G04 EAGLE Gerber RS-274X export*
G75*
%MOMM*%
%FSLAX34Y34*%
%LPD*%
%INTop Copper*%
%IPPOS*%
%AMOC8*
5,1,8,0,0,1.08239X$1,22.5*%
G01*
%ADD10C,0.065000*%
%ADD11R,3.500000X3.500000*%
%ADD12C,0.500000*%
%ADD13C,0.280800*%
%ADD14C,0.402900*%
%ADD15C,0.539550*%
%ADD16R,1.800000X1.000000*%
%ADD17R,0.850000X0.950000*%
%ADD18R,0.900000X0.500000*%
%ADD19R,0.500000X0.500000*%
%ADD20C,0.270000*%
%ADD21C,1.050000*%
%ADD22C,1.100000*%
%ADD23C,0.152400*%
%ADD24C,0.453200*%
%ADD25C,0.254000*%
%ADD26C,0.406400*%
%ADD27C,0.508000*%

G36*
X85841Y122562D02*
X85841Y122562D01*
X85876Y122560D01*
X85950Y122582D01*
X86027Y122595D01*
X86057Y122614D01*
X86091Y122624D01*
X86177Y122684D01*
X86220Y122710D01*
X86229Y122721D01*
X86244Y122732D01*
X92054Y128292D01*
X92083Y128332D01*
X92119Y128365D01*
X92148Y128422D01*
X92186Y128473D01*
X92199Y128521D01*
X92222Y128565D01*
X92233Y128643D01*
X92246Y128689D01*
X92244Y128716D01*
X92249Y128750D01*
X92249Y131454D01*
X93816Y133021D01*
X99224Y133021D01*
X99706Y132539D01*
X99741Y132514D01*
X99770Y132483D01*
X99833Y132451D01*
X99890Y132410D01*
X99931Y132400D01*
X99969Y132380D01*
X100059Y132367D01*
X100108Y132354D01*
X100128Y132357D01*
X100155Y132353D01*
X103045Y132353D01*
X103087Y132360D01*
X103130Y132358D01*
X103197Y132380D01*
X103266Y132392D01*
X103303Y132414D01*
X103343Y132427D01*
X103416Y132481D01*
X103459Y132507D01*
X103473Y132523D01*
X103494Y132539D01*
X103976Y133021D01*
X109384Y133021D01*
X109866Y132539D01*
X109901Y132514D01*
X109930Y132483D01*
X109993Y132451D01*
X110050Y132410D01*
X110091Y132400D01*
X110129Y132380D01*
X110219Y132367D01*
X110268Y132354D01*
X110288Y132357D01*
X110315Y132353D01*
X113293Y132353D01*
X113335Y132360D01*
X113377Y132358D01*
X113444Y132380D01*
X113514Y132392D01*
X113550Y132414D01*
X113591Y132427D01*
X113664Y132481D01*
X113707Y132507D01*
X113720Y132523D01*
X113742Y132539D01*
X115384Y134181D01*
X123376Y134181D01*
X125301Y132256D01*
X125301Y125664D01*
X123402Y123765D01*
X123352Y123692D01*
X123296Y123623D01*
X123288Y123601D01*
X123274Y123581D01*
X123252Y123495D01*
X123224Y123411D01*
X123224Y123387D01*
X123218Y123364D01*
X123228Y123275D01*
X123230Y123186D01*
X123239Y123164D01*
X123242Y123141D01*
X123281Y123061D01*
X123315Y122979D01*
X123331Y122961D01*
X123341Y122940D01*
X123406Y122879D01*
X123466Y122813D01*
X123487Y122802D01*
X123504Y122786D01*
X123586Y122751D01*
X123666Y122710D01*
X123692Y122707D01*
X123711Y122698D01*
X123761Y122696D01*
X123851Y122683D01*
X157933Y122683D01*
X157975Y122690D01*
X158017Y122688D01*
X158085Y122710D01*
X158154Y122722D01*
X158191Y122744D01*
X158231Y122757D01*
X158304Y122811D01*
X158347Y122837D01*
X158361Y122853D01*
X158382Y122869D01*
X160233Y124720D01*
X160264Y124764D01*
X160302Y124802D01*
X160327Y124855D01*
X160361Y124904D01*
X160374Y124956D01*
X160397Y125005D01*
X160402Y125064D01*
X160417Y125121D01*
X160411Y125175D01*
X160416Y125229D01*
X160398Y125298D01*
X160394Y125344D01*
X160380Y125372D01*
X160370Y125411D01*
X160249Y125703D01*
X160249Y128297D01*
X161242Y130694D01*
X163076Y132528D01*
X165473Y133521D01*
X165515Y133521D01*
X165580Y133532D01*
X165646Y133534D01*
X165689Y133552D01*
X165736Y133560D01*
X165793Y133594D01*
X165853Y133619D01*
X165888Y133650D01*
X165929Y133675D01*
X165971Y133726D01*
X166019Y133770D01*
X166041Y133812D01*
X166070Y133849D01*
X166091Y133911D01*
X166122Y133970D01*
X166130Y134024D01*
X166142Y134061D01*
X166141Y134101D01*
X166149Y134155D01*
X166149Y171450D01*
X166138Y171515D01*
X166136Y171581D01*
X166118Y171624D01*
X166110Y171671D01*
X166076Y171728D01*
X166051Y171788D01*
X166020Y171823D01*
X165995Y171864D01*
X165944Y171906D01*
X165900Y171954D01*
X165858Y171976D01*
X165821Y172005D01*
X165759Y172026D01*
X165700Y172057D01*
X165646Y172065D01*
X165609Y172077D01*
X165569Y172076D01*
X165515Y172084D01*
X53340Y172084D01*
X53275Y172073D01*
X53209Y172071D01*
X53166Y172053D01*
X53119Y172045D01*
X53062Y172011D01*
X53002Y171986D01*
X52967Y171955D01*
X52926Y171930D01*
X52885Y171879D01*
X52836Y171835D01*
X52814Y171793D01*
X52785Y171756D01*
X52764Y171694D01*
X52733Y171635D01*
X52725Y171581D01*
X52713Y171544D01*
X52714Y171504D01*
X52706Y171450D01*
X52706Y161290D01*
X52717Y161225D01*
X52719Y161159D01*
X52737Y161116D01*
X52745Y161069D01*
X52779Y161012D01*
X52804Y160952D01*
X52835Y160917D01*
X52860Y160876D01*
X52911Y160835D01*
X52955Y160786D01*
X52997Y160764D01*
X53034Y160735D01*
X53096Y160714D01*
X53155Y160683D01*
X53209Y160675D01*
X53246Y160663D01*
X53286Y160664D01*
X53340Y160656D01*
X80646Y160656D01*
X80646Y123190D01*
X80657Y123125D01*
X80659Y123059D01*
X80677Y123016D01*
X80685Y122969D01*
X80719Y122912D01*
X80744Y122852D01*
X80775Y122817D01*
X80800Y122776D01*
X80851Y122735D01*
X80895Y122686D01*
X80937Y122664D01*
X80974Y122635D01*
X81036Y122614D01*
X81095Y122583D01*
X81149Y122575D01*
X81186Y122563D01*
X81226Y122564D01*
X81280Y122556D01*
X85806Y122556D01*
X85841Y122562D01*
G37*
G36*
X15409Y123960D02*
X15409Y123960D01*
X15451Y123958D01*
X15518Y123980D01*
X15588Y123992D01*
X15624Y124014D01*
X15665Y124027D01*
X15738Y124081D01*
X15781Y124107D01*
X15794Y124123D01*
X15815Y124139D01*
X18043Y126366D01*
X29005Y126366D01*
X29070Y126377D01*
X29136Y126379D01*
X29179Y126397D01*
X29226Y126405D01*
X29283Y126439D01*
X29343Y126464D01*
X29378Y126495D01*
X29419Y126520D01*
X29461Y126571D01*
X29509Y126615D01*
X29531Y126657D01*
X29560Y126694D01*
X29581Y126756D01*
X29612Y126815D01*
X29620Y126869D01*
X29632Y126906D01*
X29631Y126946D01*
X29639Y127000D01*
X29639Y132256D01*
X31564Y134181D01*
X39556Y134181D01*
X41238Y132499D01*
X41273Y132474D01*
X41302Y132443D01*
X41365Y132411D01*
X41423Y132370D01*
X41464Y132360D01*
X41502Y132340D01*
X41591Y132327D01*
X41640Y132314D01*
X41661Y132317D01*
X41687Y132313D01*
X44585Y132313D01*
X44627Y132320D01*
X44670Y132318D01*
X44737Y132340D01*
X44806Y132352D01*
X44843Y132374D01*
X44883Y132387D01*
X44956Y132441D01*
X44999Y132467D01*
X45013Y132483D01*
X45034Y132499D01*
X45556Y133021D01*
X50964Y133021D01*
X51446Y132539D01*
X51481Y132514D01*
X51510Y132483D01*
X51572Y132451D01*
X51630Y132410D01*
X51671Y132400D01*
X51709Y132380D01*
X51799Y132367D01*
X51848Y132354D01*
X51868Y132357D01*
X51895Y132353D01*
X53515Y132353D01*
X53557Y132360D01*
X53600Y132358D01*
X53667Y132380D01*
X53736Y132392D01*
X53773Y132414D01*
X53813Y132427D01*
X53886Y132481D01*
X53929Y132507D01*
X53943Y132523D01*
X53964Y132539D01*
X54446Y133021D01*
X59854Y133021D01*
X61421Y131454D01*
X61421Y129189D01*
X61434Y129113D01*
X61439Y129036D01*
X61454Y129003D01*
X61460Y128968D01*
X61500Y128901D01*
X61531Y128831D01*
X61559Y128801D01*
X61575Y128775D01*
X61611Y128745D01*
X61658Y128694D01*
X64390Y126505D01*
X64397Y126502D01*
X64402Y126496D01*
X64495Y126448D01*
X64587Y126398D01*
X64595Y126397D01*
X64601Y126393D01*
X64787Y126366D01*
X68580Y126366D01*
X68645Y126377D01*
X68711Y126379D01*
X68754Y126397D01*
X68801Y126405D01*
X68858Y126439D01*
X68918Y126464D01*
X68953Y126495D01*
X68994Y126520D01*
X69036Y126571D01*
X69084Y126615D01*
X69106Y126657D01*
X69135Y126694D01*
X69156Y126756D01*
X69187Y126815D01*
X69195Y126869D01*
X69207Y126906D01*
X69206Y126946D01*
X69214Y127000D01*
X69214Y149860D01*
X69203Y149925D01*
X69201Y149991D01*
X69183Y150034D01*
X69175Y150081D01*
X69141Y150138D01*
X69116Y150198D01*
X69085Y150233D01*
X69060Y150274D01*
X69009Y150316D01*
X68965Y150364D01*
X68923Y150386D01*
X68886Y150415D01*
X68824Y150436D01*
X68765Y150467D01*
X68711Y150475D01*
X68674Y150487D01*
X68634Y150486D01*
X68580Y150494D01*
X41274Y150494D01*
X41274Y171450D01*
X41263Y171515D01*
X41261Y171581D01*
X41243Y171624D01*
X41235Y171671D01*
X41201Y171728D01*
X41176Y171788D01*
X41145Y171823D01*
X41120Y171864D01*
X41069Y171906D01*
X41025Y171954D01*
X40983Y171976D01*
X40946Y172005D01*
X40884Y172026D01*
X40825Y172057D01*
X40771Y172065D01*
X40734Y172077D01*
X40694Y172076D01*
X40640Y172084D01*
X33020Y172084D01*
X32955Y172073D01*
X32889Y172071D01*
X32846Y172053D01*
X32799Y172045D01*
X32742Y172011D01*
X32682Y171986D01*
X32647Y171955D01*
X32606Y171930D01*
X32565Y171879D01*
X32516Y171835D01*
X32494Y171793D01*
X32465Y171756D01*
X32444Y171694D01*
X32413Y171635D01*
X32405Y171581D01*
X32393Y171544D01*
X32394Y171504D01*
X32386Y171450D01*
X32386Y164464D01*
X19684Y164464D01*
X19684Y171450D01*
X19673Y171515D01*
X19671Y171581D01*
X19653Y171624D01*
X19645Y171671D01*
X19611Y171728D01*
X19586Y171788D01*
X19555Y171823D01*
X19530Y171864D01*
X19479Y171906D01*
X19435Y171954D01*
X19393Y171976D01*
X19356Y172005D01*
X19294Y172026D01*
X19235Y172057D01*
X19181Y172065D01*
X19144Y172077D01*
X19104Y172076D01*
X19050Y172084D01*
X2635Y172084D01*
X2570Y172073D01*
X2504Y172071D01*
X2461Y172053D01*
X2414Y172045D01*
X2357Y172011D01*
X2297Y171986D01*
X2262Y171955D01*
X2221Y171930D01*
X2179Y171879D01*
X2131Y171835D01*
X2109Y171793D01*
X2080Y171756D01*
X2059Y171694D01*
X2028Y171635D01*
X2020Y171581D01*
X2008Y171544D01*
X2009Y171504D01*
X2001Y171450D01*
X2001Y134155D01*
X2012Y134090D01*
X2014Y134024D01*
X2032Y133981D01*
X2040Y133934D01*
X2074Y133877D01*
X2099Y133817D01*
X2130Y133782D01*
X2155Y133741D01*
X2206Y133699D01*
X2250Y133651D01*
X2292Y133629D01*
X2329Y133600D01*
X2391Y133579D01*
X2450Y133548D01*
X2504Y133540D01*
X2541Y133528D01*
X2550Y133528D01*
X4964Y132528D01*
X6798Y130694D01*
X7791Y128297D01*
X7791Y125703D01*
X7585Y125206D01*
X7573Y125153D01*
X7552Y125103D01*
X7549Y125044D01*
X7537Y124986D01*
X7544Y124933D01*
X7542Y124879D01*
X7560Y124823D01*
X7568Y124764D01*
X7594Y124717D01*
X7611Y124665D01*
X7653Y124608D01*
X7675Y124567D01*
X7698Y124547D01*
X7722Y124514D01*
X8098Y124138D01*
X8133Y124114D01*
X8162Y124083D01*
X8224Y124051D01*
X8282Y124010D01*
X8324Y124000D01*
X8361Y123980D01*
X8451Y123967D01*
X8500Y123954D01*
X8521Y123957D01*
X8547Y123953D01*
X15367Y123953D01*
X15409Y123960D01*
G37*
G36*
X30502Y166449D02*
X30502Y166449D01*
X30501Y166449D01*
X30502Y166450D01*
X30502Y215438D01*
X44478Y215438D01*
X44478Y166450D01*
X44489Y166438D01*
X44489Y166439D01*
X44490Y166438D01*
X49490Y166438D01*
X49502Y166449D01*
X49501Y166449D01*
X49502Y166450D01*
X49502Y215438D01*
X66478Y215438D01*
X66478Y189050D01*
X66489Y189038D01*
X66489Y189039D01*
X66490Y189038D01*
X96490Y189038D01*
X96502Y189049D01*
X96501Y189049D01*
X96502Y189050D01*
X96502Y215438D01*
X113478Y215438D01*
X113478Y189050D01*
X113489Y189038D01*
X113489Y189039D01*
X113490Y189038D01*
X143490Y189038D01*
X143502Y189049D01*
X143501Y189049D01*
X143502Y189050D01*
X143502Y215438D01*
X160478Y215438D01*
X160478Y176050D01*
X160489Y176038D01*
X160489Y176039D01*
X160490Y176038D01*
X165490Y176038D01*
X165502Y176049D01*
X165501Y176049D01*
X165502Y176050D01*
X165502Y220450D01*
X165492Y220462D01*
X165491Y220461D01*
X165490Y220462D01*
X138490Y220462D01*
X138478Y220452D01*
X138479Y220451D01*
X138478Y220450D01*
X138478Y194062D01*
X118502Y194062D01*
X118502Y220450D01*
X118492Y220462D01*
X118491Y220461D01*
X118490Y220462D01*
X91490Y220462D01*
X91478Y220452D01*
X91479Y220451D01*
X91478Y220450D01*
X91478Y194062D01*
X71502Y194062D01*
X71502Y220450D01*
X71492Y220462D01*
X71491Y220461D01*
X71490Y220462D01*
X21490Y220462D01*
X21478Y220452D01*
X21479Y220451D01*
X21478Y220450D01*
X21478Y166450D01*
X21489Y166438D01*
X21489Y166439D01*
X21490Y166438D01*
X30490Y166438D01*
X30502Y166449D01*
G37*
%LPC*%
G36*
X115384Y140139D02*
X115384Y140139D01*
X113459Y142064D01*
X113459Y148656D01*
X115384Y150581D01*
X123376Y150581D01*
X125108Y148849D01*
X125143Y148824D01*
X125172Y148793D01*
X125235Y148761D01*
X125293Y148720D01*
X125334Y148710D01*
X125372Y148690D01*
X125461Y148677D01*
X125510Y148664D01*
X125531Y148667D01*
X125557Y148663D01*
X129058Y148663D01*
X129218Y148503D01*
X129253Y148478D01*
X129282Y148447D01*
X129345Y148415D01*
X129402Y148374D01*
X129444Y148364D01*
X129481Y148344D01*
X129571Y148331D01*
X129620Y148318D01*
X129641Y148321D01*
X129667Y148317D01*
X129735Y148317D01*
X131807Y146245D01*
X131807Y143315D01*
X129735Y141243D01*
X126805Y141243D01*
X126177Y141871D01*
X126142Y141896D01*
X126113Y141927D01*
X126050Y141959D01*
X125993Y142000D01*
X125952Y142010D01*
X125914Y142030D01*
X125824Y142043D01*
X125775Y142056D01*
X125755Y142053D01*
X125728Y142057D01*
X125557Y142057D01*
X125515Y142050D01*
X125473Y142052D01*
X125406Y142030D01*
X125336Y142018D01*
X125300Y141996D01*
X125259Y141983D01*
X125186Y141929D01*
X125143Y141903D01*
X125130Y141887D01*
X125108Y141871D01*
X123376Y140139D01*
X115384Y140139D01*
G37*
%LPD*%
%LPC*%
G36*
X31564Y140139D02*
X31564Y140139D01*
X30412Y141291D01*
X30377Y141316D01*
X30348Y141347D01*
X30285Y141379D01*
X30227Y141420D01*
X30186Y141430D01*
X30148Y141450D01*
X30059Y141463D01*
X30010Y141476D01*
X29989Y141473D01*
X29963Y141477D01*
X28632Y141477D01*
X28590Y141470D01*
X28547Y141472D01*
X28480Y141450D01*
X28411Y141438D01*
X28374Y141416D01*
X28334Y141403D01*
X28261Y141349D01*
X28218Y141323D01*
X28204Y141307D01*
X28183Y141291D01*
X28135Y141243D01*
X25205Y141243D01*
X23133Y143315D01*
X23133Y146245D01*
X25205Y148317D01*
X28135Y148317D01*
X28183Y148269D01*
X28218Y148244D01*
X28247Y148213D01*
X28310Y148181D01*
X28367Y148140D01*
X28408Y148130D01*
X28446Y148110D01*
X28536Y148097D01*
X28585Y148084D01*
X28605Y148087D01*
X28632Y148083D01*
X29005Y148083D01*
X29070Y148094D01*
X29136Y148096D01*
X29179Y148114D01*
X29226Y148122D01*
X29283Y148156D01*
X29343Y148181D01*
X29378Y148212D01*
X29419Y148237D01*
X29461Y148288D01*
X29509Y148332D01*
X29531Y148374D01*
X29560Y148411D01*
X29581Y148473D01*
X29612Y148532D01*
X29620Y148586D01*
X29632Y148623D01*
X29632Y148649D01*
X31564Y150581D01*
X39556Y150581D01*
X40192Y149946D01*
X40265Y149895D01*
X40334Y149839D01*
X40356Y149831D01*
X40376Y149817D01*
X40462Y149795D01*
X40546Y149767D01*
X40548Y149767D01*
X40553Y149753D01*
X40553Y149729D01*
X40587Y149647D01*
X40614Y149562D01*
X40630Y149541D01*
X40638Y149522D01*
X40672Y149484D01*
X40726Y149412D01*
X41481Y148656D01*
X41481Y142064D01*
X39556Y140139D01*
X31564Y140139D01*
G37*
%LPD*%
D10*
X88915Y106735D02*
X88915Y114685D01*
X90865Y114685D01*
X90865Y106735D01*
X88915Y106735D01*
X88915Y107352D02*
X90865Y107352D01*
X90865Y107969D02*
X88915Y107969D01*
X88915Y108586D02*
X90865Y108586D01*
X90865Y109203D02*
X88915Y109203D01*
X88915Y109820D02*
X90865Y109820D01*
X90865Y110437D02*
X88915Y110437D01*
X88915Y111054D02*
X90865Y111054D01*
X90865Y111671D02*
X88915Y111671D01*
X88915Y112288D02*
X90865Y112288D01*
X90865Y112905D02*
X88915Y112905D01*
X88915Y113522D02*
X90865Y113522D01*
X90865Y114139D02*
X88915Y114139D01*
X83915Y114685D02*
X83915Y106735D01*
X83915Y114685D02*
X85865Y114685D01*
X85865Y106735D01*
X83915Y106735D01*
X83915Y107352D02*
X85865Y107352D01*
X85865Y107969D02*
X83915Y107969D01*
X83915Y108586D02*
X85865Y108586D01*
X85865Y109203D02*
X83915Y109203D01*
X83915Y109820D02*
X85865Y109820D01*
X85865Y110437D02*
X83915Y110437D01*
X83915Y111054D02*
X85865Y111054D01*
X85865Y111671D02*
X83915Y111671D01*
X83915Y112288D02*
X85865Y112288D01*
X85865Y112905D02*
X83915Y112905D01*
X83915Y113522D02*
X85865Y113522D01*
X85865Y114139D02*
X83915Y114139D01*
X78915Y114685D02*
X78915Y106735D01*
X78915Y114685D02*
X80865Y114685D01*
X80865Y106735D01*
X78915Y106735D01*
X78915Y107352D02*
X80865Y107352D01*
X80865Y107969D02*
X78915Y107969D01*
X78915Y108586D02*
X80865Y108586D01*
X80865Y109203D02*
X78915Y109203D01*
X78915Y109820D02*
X80865Y109820D01*
X80865Y110437D02*
X78915Y110437D01*
X78915Y111054D02*
X80865Y111054D01*
X80865Y111671D02*
X78915Y111671D01*
X78915Y112288D02*
X80865Y112288D01*
X80865Y112905D02*
X78915Y112905D01*
X78915Y113522D02*
X80865Y113522D01*
X80865Y114139D02*
X78915Y114139D01*
X73915Y114685D02*
X73915Y106735D01*
X73915Y114685D02*
X75865Y114685D01*
X75865Y106735D01*
X73915Y106735D01*
X73915Y107352D02*
X75865Y107352D01*
X75865Y107969D02*
X73915Y107969D01*
X73915Y108586D02*
X75865Y108586D01*
X75865Y109203D02*
X73915Y109203D01*
X73915Y109820D02*
X75865Y109820D01*
X75865Y110437D02*
X73915Y110437D01*
X73915Y111054D02*
X75865Y111054D01*
X75865Y111671D02*
X73915Y111671D01*
X73915Y112288D02*
X75865Y112288D01*
X75865Y112905D02*
X73915Y112905D01*
X73915Y113522D02*
X75865Y113522D01*
X75865Y114139D02*
X73915Y114139D01*
X68915Y114685D02*
X68915Y106735D01*
X68915Y114685D02*
X70865Y114685D01*
X70865Y106735D01*
X68915Y106735D01*
X68915Y107352D02*
X70865Y107352D01*
X70865Y107969D02*
X68915Y107969D01*
X68915Y108586D02*
X70865Y108586D01*
X70865Y109203D02*
X68915Y109203D01*
X68915Y109820D02*
X70865Y109820D01*
X70865Y110437D02*
X68915Y110437D01*
X68915Y111054D02*
X70865Y111054D01*
X70865Y111671D02*
X68915Y111671D01*
X68915Y112288D02*
X70865Y112288D01*
X70865Y112905D02*
X68915Y112905D01*
X68915Y113522D02*
X70865Y113522D01*
X70865Y114139D02*
X68915Y114139D01*
X63915Y114685D02*
X63915Y106735D01*
X63915Y114685D02*
X65865Y114685D01*
X65865Y106735D01*
X63915Y106735D01*
X63915Y107352D02*
X65865Y107352D01*
X65865Y107969D02*
X63915Y107969D01*
X63915Y108586D02*
X65865Y108586D01*
X65865Y109203D02*
X63915Y109203D01*
X63915Y109820D02*
X65865Y109820D01*
X65865Y110437D02*
X63915Y110437D01*
X63915Y111054D02*
X65865Y111054D01*
X65865Y111671D02*
X63915Y111671D01*
X63915Y112288D02*
X65865Y112288D01*
X65865Y112905D02*
X63915Y112905D01*
X63915Y113522D02*
X65865Y113522D01*
X65865Y114139D02*
X63915Y114139D01*
X58915Y114685D02*
X58915Y106735D01*
X58915Y114685D02*
X60865Y114685D01*
X60865Y106735D01*
X58915Y106735D01*
X58915Y107352D02*
X60865Y107352D01*
X60865Y107969D02*
X58915Y107969D01*
X58915Y108586D02*
X60865Y108586D01*
X60865Y109203D02*
X58915Y109203D01*
X58915Y109820D02*
X60865Y109820D01*
X60865Y110437D02*
X58915Y110437D01*
X58915Y111054D02*
X60865Y111054D01*
X60865Y111671D02*
X58915Y111671D01*
X58915Y112288D02*
X60865Y112288D01*
X60865Y112905D02*
X58915Y112905D01*
X58915Y113522D02*
X60865Y113522D01*
X60865Y114139D02*
X58915Y114139D01*
X53915Y114685D02*
X53915Y106735D01*
X53915Y114685D02*
X55865Y114685D01*
X55865Y106735D01*
X53915Y106735D01*
X53915Y107352D02*
X55865Y107352D01*
X55865Y107969D02*
X53915Y107969D01*
X53915Y108586D02*
X55865Y108586D01*
X55865Y109203D02*
X53915Y109203D01*
X53915Y109820D02*
X55865Y109820D01*
X55865Y110437D02*
X53915Y110437D01*
X53915Y111054D02*
X55865Y111054D01*
X55865Y111671D02*
X53915Y111671D01*
X53915Y112288D02*
X55865Y112288D01*
X55865Y112905D02*
X53915Y112905D01*
X53915Y113522D02*
X55865Y113522D01*
X55865Y114139D02*
X53915Y114139D01*
X53915Y65985D02*
X53915Y58035D01*
X53915Y65985D02*
X55865Y65985D01*
X55865Y58035D01*
X53915Y58035D01*
X53915Y58652D02*
X55865Y58652D01*
X55865Y59269D02*
X53915Y59269D01*
X53915Y59886D02*
X55865Y59886D01*
X55865Y60503D02*
X53915Y60503D01*
X53915Y61120D02*
X55865Y61120D01*
X55865Y61737D02*
X53915Y61737D01*
X53915Y62354D02*
X55865Y62354D01*
X55865Y62971D02*
X53915Y62971D01*
X53915Y63588D02*
X55865Y63588D01*
X55865Y64205D02*
X53915Y64205D01*
X53915Y64822D02*
X55865Y64822D01*
X55865Y65439D02*
X53915Y65439D01*
X58915Y65985D02*
X58915Y58035D01*
X58915Y65985D02*
X60865Y65985D01*
X60865Y58035D01*
X58915Y58035D01*
X58915Y58652D02*
X60865Y58652D01*
X60865Y59269D02*
X58915Y59269D01*
X58915Y59886D02*
X60865Y59886D01*
X60865Y60503D02*
X58915Y60503D01*
X58915Y61120D02*
X60865Y61120D01*
X60865Y61737D02*
X58915Y61737D01*
X58915Y62354D02*
X60865Y62354D01*
X60865Y62971D02*
X58915Y62971D01*
X58915Y63588D02*
X60865Y63588D01*
X60865Y64205D02*
X58915Y64205D01*
X58915Y64822D02*
X60865Y64822D01*
X60865Y65439D02*
X58915Y65439D01*
X63915Y65985D02*
X63915Y58035D01*
X63915Y65985D02*
X65865Y65985D01*
X65865Y58035D01*
X63915Y58035D01*
X63915Y58652D02*
X65865Y58652D01*
X65865Y59269D02*
X63915Y59269D01*
X63915Y59886D02*
X65865Y59886D01*
X65865Y60503D02*
X63915Y60503D01*
X63915Y61120D02*
X65865Y61120D01*
X65865Y61737D02*
X63915Y61737D01*
X63915Y62354D02*
X65865Y62354D01*
X65865Y62971D02*
X63915Y62971D01*
X63915Y63588D02*
X65865Y63588D01*
X65865Y64205D02*
X63915Y64205D01*
X63915Y64822D02*
X65865Y64822D01*
X65865Y65439D02*
X63915Y65439D01*
X68915Y65985D02*
X68915Y58035D01*
X68915Y65985D02*
X70865Y65985D01*
X70865Y58035D01*
X68915Y58035D01*
X68915Y58652D02*
X70865Y58652D01*
X70865Y59269D02*
X68915Y59269D01*
X68915Y59886D02*
X70865Y59886D01*
X70865Y60503D02*
X68915Y60503D01*
X68915Y61120D02*
X70865Y61120D01*
X70865Y61737D02*
X68915Y61737D01*
X68915Y62354D02*
X70865Y62354D01*
X70865Y62971D02*
X68915Y62971D01*
X68915Y63588D02*
X70865Y63588D01*
X70865Y64205D02*
X68915Y64205D01*
X68915Y64822D02*
X70865Y64822D01*
X70865Y65439D02*
X68915Y65439D01*
X73915Y65985D02*
X73915Y58035D01*
X73915Y65985D02*
X75865Y65985D01*
X75865Y58035D01*
X73915Y58035D01*
X73915Y58652D02*
X75865Y58652D01*
X75865Y59269D02*
X73915Y59269D01*
X73915Y59886D02*
X75865Y59886D01*
X75865Y60503D02*
X73915Y60503D01*
X73915Y61120D02*
X75865Y61120D01*
X75865Y61737D02*
X73915Y61737D01*
X73915Y62354D02*
X75865Y62354D01*
X75865Y62971D02*
X73915Y62971D01*
X73915Y63588D02*
X75865Y63588D01*
X75865Y64205D02*
X73915Y64205D01*
X73915Y64822D02*
X75865Y64822D01*
X75865Y65439D02*
X73915Y65439D01*
X78915Y65985D02*
X78915Y58035D01*
X78915Y65985D02*
X80865Y65985D01*
X80865Y58035D01*
X78915Y58035D01*
X78915Y58652D02*
X80865Y58652D01*
X80865Y59269D02*
X78915Y59269D01*
X78915Y59886D02*
X80865Y59886D01*
X80865Y60503D02*
X78915Y60503D01*
X78915Y61120D02*
X80865Y61120D01*
X80865Y61737D02*
X78915Y61737D01*
X78915Y62354D02*
X80865Y62354D01*
X80865Y62971D02*
X78915Y62971D01*
X78915Y63588D02*
X80865Y63588D01*
X80865Y64205D02*
X78915Y64205D01*
X78915Y64822D02*
X80865Y64822D01*
X80865Y65439D02*
X78915Y65439D01*
X83915Y65985D02*
X83915Y58035D01*
X83915Y65985D02*
X85865Y65985D01*
X85865Y58035D01*
X83915Y58035D01*
X83915Y58652D02*
X85865Y58652D01*
X85865Y59269D02*
X83915Y59269D01*
X83915Y59886D02*
X85865Y59886D01*
X85865Y60503D02*
X83915Y60503D01*
X83915Y61120D02*
X85865Y61120D01*
X85865Y61737D02*
X83915Y61737D01*
X83915Y62354D02*
X85865Y62354D01*
X85865Y62971D02*
X83915Y62971D01*
X83915Y63588D02*
X85865Y63588D01*
X85865Y64205D02*
X83915Y64205D01*
X83915Y64822D02*
X85865Y64822D01*
X85865Y65439D02*
X83915Y65439D01*
X88915Y65985D02*
X88915Y58035D01*
X88915Y65985D02*
X90865Y65985D01*
X90865Y58035D01*
X88915Y58035D01*
X88915Y58652D02*
X90865Y58652D01*
X90865Y59269D02*
X88915Y59269D01*
X88915Y59886D02*
X90865Y59886D01*
X90865Y60503D02*
X88915Y60503D01*
X88915Y61120D02*
X90865Y61120D01*
X90865Y61737D02*
X88915Y61737D01*
X88915Y62354D02*
X90865Y62354D01*
X90865Y62971D02*
X88915Y62971D01*
X88915Y63588D02*
X90865Y63588D01*
X90865Y64205D02*
X88915Y64205D01*
X88915Y64822D02*
X90865Y64822D01*
X90865Y65439D02*
X88915Y65439D01*
X92765Y69835D02*
X100715Y69835D01*
X100715Y67885D01*
X92765Y67885D01*
X92765Y69835D01*
X92765Y68502D02*
X100715Y68502D01*
X100715Y69119D02*
X92765Y69119D01*
X92765Y69736D02*
X100715Y69736D01*
X100715Y74835D02*
X92765Y74835D01*
X100715Y74835D02*
X100715Y72885D01*
X92765Y72885D01*
X92765Y74835D01*
X92765Y73502D02*
X100715Y73502D01*
X100715Y74119D02*
X92765Y74119D01*
X92765Y74736D02*
X100715Y74736D01*
X100715Y79835D02*
X92765Y79835D01*
X100715Y79835D02*
X100715Y77885D01*
X92765Y77885D01*
X92765Y79835D01*
X92765Y78502D02*
X100715Y78502D01*
X100715Y79119D02*
X92765Y79119D01*
X92765Y79736D02*
X100715Y79736D01*
X100715Y84835D02*
X92765Y84835D01*
X100715Y84835D02*
X100715Y82885D01*
X92765Y82885D01*
X92765Y84835D01*
X92765Y83502D02*
X100715Y83502D01*
X100715Y84119D02*
X92765Y84119D01*
X92765Y84736D02*
X100715Y84736D01*
X100715Y89835D02*
X92765Y89835D01*
X100715Y89835D02*
X100715Y87885D01*
X92765Y87885D01*
X92765Y89835D01*
X92765Y88502D02*
X100715Y88502D01*
X100715Y89119D02*
X92765Y89119D01*
X92765Y89736D02*
X100715Y89736D01*
X100715Y94835D02*
X92765Y94835D01*
X100715Y94835D02*
X100715Y92885D01*
X92765Y92885D01*
X92765Y94835D01*
X92765Y93502D02*
X100715Y93502D01*
X100715Y94119D02*
X92765Y94119D01*
X92765Y94736D02*
X100715Y94736D01*
X100715Y99835D02*
X92765Y99835D01*
X100715Y99835D02*
X100715Y97885D01*
X92765Y97885D01*
X92765Y99835D01*
X92765Y98502D02*
X100715Y98502D01*
X100715Y99119D02*
X92765Y99119D01*
X92765Y99736D02*
X100715Y99736D01*
X100715Y104835D02*
X92765Y104835D01*
X100715Y104835D02*
X100715Y102885D01*
X92765Y102885D01*
X92765Y104835D01*
X92765Y103502D02*
X100715Y103502D01*
X100715Y104119D02*
X92765Y104119D01*
X92765Y104736D02*
X100715Y104736D01*
X52015Y104835D02*
X44065Y104835D01*
X52015Y104835D02*
X52015Y102885D01*
X44065Y102885D01*
X44065Y104835D01*
X44065Y103502D02*
X52015Y103502D01*
X52015Y104119D02*
X44065Y104119D01*
X44065Y104736D02*
X52015Y104736D01*
X52015Y99835D02*
X44065Y99835D01*
X52015Y99835D02*
X52015Y97885D01*
X44065Y97885D01*
X44065Y99835D01*
X44065Y98502D02*
X52015Y98502D01*
X52015Y99119D02*
X44065Y99119D01*
X44065Y99736D02*
X52015Y99736D01*
X52015Y94835D02*
X44065Y94835D01*
X52015Y94835D02*
X52015Y92885D01*
X44065Y92885D01*
X44065Y94835D01*
X44065Y93502D02*
X52015Y93502D01*
X52015Y94119D02*
X44065Y94119D01*
X44065Y94736D02*
X52015Y94736D01*
X52015Y89835D02*
X44065Y89835D01*
X52015Y89835D02*
X52015Y87885D01*
X44065Y87885D01*
X44065Y89835D01*
X44065Y88502D02*
X52015Y88502D01*
X52015Y89119D02*
X44065Y89119D01*
X44065Y89736D02*
X52015Y89736D01*
X52015Y84835D02*
X44065Y84835D01*
X52015Y84835D02*
X52015Y82885D01*
X44065Y82885D01*
X44065Y84835D01*
X44065Y83502D02*
X52015Y83502D01*
X52015Y84119D02*
X44065Y84119D01*
X44065Y84736D02*
X52015Y84736D01*
X52015Y79835D02*
X44065Y79835D01*
X52015Y79835D02*
X52015Y77885D01*
X44065Y77885D01*
X44065Y79835D01*
X44065Y78502D02*
X52015Y78502D01*
X52015Y79119D02*
X44065Y79119D01*
X44065Y79736D02*
X52015Y79736D01*
X52015Y74835D02*
X44065Y74835D01*
X52015Y74835D02*
X52015Y72885D01*
X44065Y72885D01*
X44065Y74835D01*
X44065Y73502D02*
X52015Y73502D01*
X52015Y74119D02*
X44065Y74119D01*
X44065Y74736D02*
X52015Y74736D01*
X52015Y69835D02*
X44065Y69835D01*
X52015Y69835D02*
X52015Y67885D01*
X44065Y67885D01*
X44065Y69835D01*
X44065Y68502D02*
X52015Y68502D01*
X52015Y69119D02*
X44065Y69119D01*
X44065Y69736D02*
X52015Y69736D01*
D11*
X72390Y86360D03*
D12*
X52860Y47410D02*
X52860Y42410D01*
X43660Y42410D01*
X43660Y47410D01*
X52860Y47410D01*
X52860Y47160D02*
X43660Y47160D01*
X43660Y28710D02*
X43660Y23710D01*
X43660Y28710D02*
X52860Y28710D01*
X52860Y23710D01*
X43660Y23710D01*
X43660Y28460D02*
X52860Y28460D01*
D13*
X65096Y44914D02*
X65096Y47506D01*
X65096Y44914D02*
X61904Y44914D01*
X61904Y47506D01*
X65096Y47506D01*
X61904Y38906D02*
X61904Y36314D01*
X61904Y38906D02*
X65096Y38906D01*
X65096Y36314D01*
X61904Y36314D01*
X105736Y41104D02*
X105736Y43696D01*
X105736Y41104D02*
X102544Y41104D01*
X102544Y43696D01*
X105736Y43696D01*
X102544Y35096D02*
X102544Y32504D01*
X102544Y35096D02*
X105736Y35096D01*
X105736Y32504D01*
X102544Y32504D01*
X115896Y41104D02*
X115896Y43696D01*
X115896Y41104D02*
X112704Y41104D01*
X112704Y43696D01*
X115896Y43696D01*
X112704Y35096D02*
X112704Y32504D01*
X112704Y35096D02*
X115896Y35096D01*
X115896Y32504D01*
X112704Y32504D01*
X85416Y37294D02*
X85416Y39886D01*
X85416Y37294D02*
X82224Y37294D01*
X82224Y39886D01*
X85416Y39886D01*
X82224Y31286D02*
X82224Y28694D01*
X82224Y31286D02*
X85416Y31286D01*
X85416Y28694D01*
X82224Y28694D01*
X95576Y37294D02*
X95576Y39886D01*
X95576Y37294D02*
X92384Y37294D01*
X92384Y39886D01*
X95576Y39886D01*
X92384Y31286D02*
X92384Y28694D01*
X92384Y31286D02*
X95576Y31286D01*
X95576Y28694D01*
X92384Y28694D01*
X36076Y66984D02*
X33484Y66984D01*
X33484Y70176D01*
X36076Y70176D01*
X36076Y66984D01*
X36076Y69652D02*
X33484Y69652D01*
X27476Y70176D02*
X24884Y70176D01*
X27476Y70176D02*
X27476Y66984D01*
X24884Y66984D01*
X24884Y70176D01*
X24884Y69652D02*
X27476Y69652D01*
D14*
X32924Y127024D02*
X32924Y130896D01*
X38196Y130896D01*
X38196Y127024D01*
X32924Y127024D01*
X32924Y130852D02*
X38196Y130852D01*
X38196Y143424D02*
X38196Y147296D01*
X38196Y143424D02*
X32924Y143424D01*
X32924Y147296D01*
X38196Y147296D01*
X38196Y147252D02*
X32924Y147252D01*
X116744Y130896D02*
X116744Y127024D01*
X116744Y130896D02*
X122016Y130896D01*
X122016Y127024D01*
X116744Y127024D01*
X116744Y130852D02*
X122016Y130852D01*
X122016Y143424D02*
X122016Y147296D01*
X122016Y143424D02*
X116744Y143424D01*
X116744Y147296D01*
X122016Y147296D01*
X122016Y147252D02*
X116744Y147252D01*
D15*
X35887Y25737D02*
X35887Y20343D01*
X19993Y20343D01*
X19993Y25737D01*
X35887Y25737D01*
X35887Y25469D02*
X19993Y25469D01*
X35887Y42843D02*
X35887Y48237D01*
X35887Y42843D02*
X19993Y42843D01*
X19993Y48237D01*
X35887Y48237D01*
X35887Y47969D02*
X19993Y47969D01*
D13*
X46664Y127754D02*
X46664Y130346D01*
X49856Y130346D01*
X49856Y127754D01*
X46664Y127754D01*
X49856Y136354D02*
X49856Y138946D01*
X49856Y136354D02*
X46664Y136354D01*
X46664Y138946D01*
X49856Y138946D01*
X55554Y130346D02*
X55554Y127754D01*
X55554Y130346D02*
X58746Y130346D01*
X58746Y127754D01*
X55554Y127754D01*
X58746Y136354D02*
X58746Y138946D01*
X58746Y136354D02*
X55554Y136354D01*
X55554Y138946D01*
X58746Y138946D01*
X94924Y130346D02*
X94924Y127754D01*
X94924Y130346D02*
X98116Y130346D01*
X98116Y127754D01*
X94924Y127754D01*
X98116Y136354D02*
X98116Y138946D01*
X98116Y136354D02*
X94924Y136354D01*
X94924Y138946D01*
X98116Y138946D01*
X105084Y130346D02*
X105084Y127754D01*
X105084Y130346D02*
X108276Y130346D01*
X108276Y127754D01*
X105084Y127754D01*
X108276Y136354D02*
X108276Y138946D01*
X108276Y136354D02*
X105084Y136354D01*
X105084Y138946D01*
X108276Y138946D01*
X75256Y47506D02*
X75256Y44914D01*
X72064Y44914D01*
X72064Y47506D01*
X75256Y47506D01*
X72064Y38906D02*
X72064Y36314D01*
X72064Y38906D02*
X75256Y38906D01*
X75256Y36314D01*
X72064Y36314D01*
X27186Y7294D02*
X24594Y7294D01*
X24594Y10486D01*
X27186Y10486D01*
X27186Y7294D01*
X27186Y9962D02*
X24594Y9962D01*
X18586Y10486D02*
X15994Y10486D01*
X18586Y10486D02*
X18586Y7294D01*
X15994Y7294D01*
X15994Y10486D01*
X15994Y9962D02*
X18586Y9962D01*
D16*
X139700Y64570D03*
X139700Y39570D03*
D17*
X127600Y112660D03*
X127600Y98160D03*
X139100Y98160D03*
X139100Y112660D03*
D18*
X25990Y168950D03*
D19*
X46990Y168950D03*
D20*
X73070Y153958D02*
X75770Y153958D01*
X73070Y153958D02*
X73070Y157258D01*
X75770Y157258D01*
X75770Y153958D01*
X75770Y156523D02*
X73070Y156523D01*
X81710Y153958D02*
X84410Y153958D01*
X81710Y153958D02*
X81710Y157258D01*
X84410Y157258D01*
X84410Y153958D01*
X84410Y156523D02*
X81710Y156523D01*
X56964Y157267D02*
X54264Y157267D01*
X56964Y157267D02*
X56964Y153967D01*
X54264Y153967D01*
X54264Y157267D01*
X54264Y156532D02*
X56964Y156532D01*
X48324Y157267D02*
X45624Y157267D01*
X48324Y157267D02*
X48324Y153967D01*
X45624Y153967D01*
X45624Y157267D01*
X45624Y156532D02*
X48324Y156532D01*
X76580Y138000D02*
X76580Y135300D01*
X73280Y135300D01*
X73280Y138000D01*
X76580Y138000D01*
X76580Y137865D02*
X73280Y137865D01*
X76580Y143940D02*
X76580Y146640D01*
X76580Y143940D02*
X73280Y143940D01*
X73280Y146640D01*
X76580Y146640D01*
X76580Y146505D02*
X73280Y146505D01*
X73070Y124080D02*
X75770Y124080D01*
X73070Y124080D02*
X73070Y127380D01*
X75770Y127380D01*
X75770Y124080D01*
X75770Y126645D02*
X73070Y126645D01*
X81710Y124080D02*
X84410Y124080D01*
X81710Y124080D02*
X81710Y127380D01*
X84410Y127380D01*
X84410Y124080D01*
X84410Y126645D02*
X81710Y126645D01*
D21*
X166770Y63500D03*
X166770Y50800D03*
X166770Y38100D03*
X166770Y25400D03*
X166770Y12700D03*
X166770Y76200D03*
X166770Y88900D03*
X166770Y101600D03*
X166770Y114300D03*
X166770Y127000D03*
X1270Y63500D03*
X1270Y50800D03*
X1270Y38100D03*
X1270Y25400D03*
X1270Y12700D03*
X1270Y76200D03*
X1270Y88900D03*
X1270Y101600D03*
X1270Y114300D03*
X1270Y127000D03*
D19*
X47016Y168974D03*
D18*
X26043Y168969D03*
D22*
X115570Y7620D03*
X128270Y7620D03*
X102870Y7620D03*
X90170Y7620D03*
X140970Y7620D03*
X153670Y7620D03*
X77470Y7620D03*
D23*
X96740Y68860D02*
X105973Y68860D01*
X112591Y75478D01*
X149459Y75478D01*
X156210Y68727D01*
X156210Y59690D01*
X165100Y50800D02*
X166770Y50800D01*
X165100Y50800D02*
X156210Y59690D01*
X107021Y73860D02*
X96740Y73860D01*
X107021Y73860D02*
X111433Y78272D01*
X150616Y78272D02*
X165388Y63500D01*
X150616Y78272D02*
X111433Y78272D01*
X165388Y63500D02*
X166770Y63500D01*
X108070Y78860D02*
X96740Y78860D01*
X108070Y78860D02*
X110276Y81066D01*
X158750Y76200D02*
X166770Y76200D01*
X153884Y81066D02*
X110276Y81066D01*
X153884Y81066D02*
X158750Y76200D01*
X154980Y83860D02*
X96740Y83860D01*
X154980Y83860D02*
X160020Y88900D01*
X163830Y88900D01*
X165388Y88900D01*
X166770Y88900D01*
X96780Y88900D02*
X96740Y88860D01*
X165241Y101600D02*
X166770Y101600D01*
X107990Y88860D02*
X96740Y88860D01*
X107990Y88860D02*
X110196Y86654D01*
X150295Y86654D02*
X165241Y101600D01*
X150295Y86654D02*
X110196Y86654D01*
X96860Y93980D02*
X96740Y93860D01*
X106941Y93860D01*
X111353Y89448D01*
X149138Y89448D02*
X158750Y99060D01*
X158750Y109220D01*
X163830Y114300D01*
X149138Y89448D02*
X111353Y89448D01*
X163830Y114300D02*
X166770Y114300D01*
X64890Y110710D02*
X64770Y110830D01*
X64770Y116663D01*
X64691Y116742D02*
X58228Y121920D01*
X64691Y116742D02*
X64770Y116663D01*
X7442Y121920D02*
X2362Y127000D01*
X7442Y121920D02*
X58228Y121920D01*
X2362Y127000D02*
X1270Y127000D01*
X59690Y110910D02*
X59890Y110710D01*
X59690Y110910D02*
X59690Y115807D01*
X56371Y119126D01*
X7188Y119126D01*
X2362Y114300D01*
X1270Y114300D01*
X1270Y101600D02*
X2362Y101600D01*
X1270Y101600D02*
X2540Y102870D01*
X54890Y110710D02*
X54890Y114782D01*
X53340Y116332D01*
X13600Y116332D01*
X2362Y105094D01*
X2362Y101600D01*
X2362Y91262D02*
X2362Y88900D01*
X1270Y88900D01*
X42759Y103860D02*
X48040Y103860D01*
X10019Y88900D02*
X2362Y88900D01*
X34537Y95638D02*
X42759Y103860D01*
X34537Y95638D02*
X16757Y95638D01*
X10019Y88900D01*
X2362Y77292D02*
X2362Y76200D01*
X1270Y76200D01*
X2362Y77292D02*
X17914Y92844D01*
X35694Y92844D02*
X41910Y99060D01*
X47840Y99060D01*
X48040Y98860D01*
X35694Y92844D02*
X17914Y92844D01*
X128270Y17780D02*
X128270Y7620D01*
D24*
X128270Y17780D03*
D23*
X8890Y71120D02*
X2362Y64592D01*
X2362Y63500D01*
X8890Y71120D02*
X8890Y79869D01*
X2362Y63500D02*
X1270Y63500D01*
X36249Y89448D02*
X40711Y93909D01*
X47991Y93909D01*
X48040Y93860D01*
X18469Y89448D02*
X8890Y79869D01*
X18469Y89448D02*
X36249Y89448D01*
X115570Y17780D02*
X115570Y7620D01*
D24*
X115570Y17780D03*
D23*
X11684Y68693D02*
X11684Y78711D01*
X11684Y68693D02*
X8552Y65561D01*
X8552Y60484D01*
X2362Y54294D02*
X2362Y50800D01*
X2362Y54294D02*
X8552Y60484D01*
X2362Y50800D02*
X1270Y50800D01*
X39664Y86654D02*
X41910Y88900D01*
X48000Y88900D01*
X48040Y88860D01*
X19627Y86654D02*
X11684Y78711D01*
X19627Y86654D02*
X39664Y86654D01*
X102870Y17780D02*
X102870Y7620D01*
D24*
X102870Y17780D03*
D23*
X48000Y83820D02*
X48040Y83860D01*
X20784Y83860D01*
X14478Y77554D01*
X14478Y67535D01*
X11346Y64403D02*
X11346Y59326D01*
X8552Y56532D01*
X8552Y45382D02*
X2362Y39192D01*
X2362Y38100D01*
X11346Y64403D02*
X14478Y67535D01*
X8552Y56532D02*
X8552Y45382D01*
X2362Y38100D02*
X1270Y38100D01*
X90170Y17780D02*
X90170Y7620D01*
D24*
X90170Y17780D03*
D23*
X48040Y78860D02*
X43060Y78860D01*
X40854Y81066D01*
X21942Y81066D02*
X17272Y76397D01*
X17272Y66378D01*
X14140Y63246D02*
X14140Y58169D01*
X11346Y55375D01*
X11346Y44225D01*
X2362Y28894D02*
X2362Y25400D01*
X8552Y35084D02*
X8552Y41431D01*
X8552Y35084D02*
X2362Y28894D01*
X21942Y81066D02*
X40854Y81066D01*
X17272Y66378D02*
X14140Y63246D01*
X11346Y44225D02*
X8552Y41431D01*
X2362Y25400D02*
X1270Y25400D01*
X42980Y73860D02*
X48040Y73860D01*
X42980Y73860D02*
X38568Y78272D01*
X20066Y65221D02*
X16934Y62089D01*
X16934Y57012D01*
X14140Y54218D01*
X23099Y78272D02*
X38568Y78272D01*
X23099Y78272D02*
X20066Y75239D01*
X20066Y65221D01*
X14140Y54218D02*
X14140Y43067D01*
X11346Y40273D01*
X2362Y12700D02*
X1270Y12700D01*
X11346Y33926D02*
X11346Y40273D01*
X11346Y33926D02*
X8552Y31132D01*
X8552Y22384D01*
X2362Y16194D02*
X2362Y12700D01*
X2362Y16194D02*
X8552Y22384D01*
X89890Y110710D02*
X96740Y110710D01*
X97790Y111760D01*
D24*
X97790Y111760D03*
D23*
X77470Y17780D02*
X77470Y7620D01*
D24*
X77470Y17780D03*
D23*
X159038Y120650D02*
X165388Y127000D01*
X106680Y120650D02*
X97790Y111760D01*
X106680Y120650D02*
X159038Y120650D01*
X165388Y127000D02*
X166770Y127000D01*
D24*
X57150Y101600D03*
X87630Y101600D03*
X72390Y101600D03*
X64770Y101600D03*
X80010Y101600D03*
X57150Y71120D03*
X87630Y71120D03*
X57150Y86360D03*
X57150Y93980D03*
X57150Y78740D03*
X72390Y71120D03*
X64770Y71120D03*
X80010Y71120D03*
X87630Y86360D03*
X87630Y93980D03*
X87630Y78740D03*
X64770Y93980D03*
X72390Y93980D03*
X80010Y93980D03*
X64770Y86360D03*
X64770Y78740D03*
X72390Y86360D03*
X72390Y78740D03*
X80010Y86360D03*
X80010Y78740D03*
D25*
X80010Y93980D02*
X79890Y110710D01*
X64890Y71000D02*
X64890Y62010D01*
X64890Y71000D02*
X64770Y71120D01*
D26*
X26180Y68580D02*
X26180Y61740D01*
X25400Y60960D01*
D24*
X25400Y60960D03*
D26*
X48260Y137650D02*
X57150Y137650D01*
D24*
X48260Y144780D03*
D26*
X48260Y137650D01*
D25*
X83820Y29990D02*
X83820Y22860D01*
X93980Y22860D02*
X93980Y29990D01*
X104140Y26670D02*
X104140Y33800D01*
X114300Y33800D02*
X114300Y26670D01*
X73660Y30480D02*
X73660Y37610D01*
X63500Y37610D02*
X63500Y30480D01*
D24*
X63500Y30480D03*
X73660Y30480D03*
X83820Y22860D03*
X93980Y22860D03*
X104140Y26670D03*
X114300Y26670D03*
D25*
X96520Y137650D02*
X96520Y144780D01*
X106680Y144780D02*
X106680Y137650D01*
D24*
X96520Y144780D03*
X106680Y144780D03*
D26*
X48260Y26210D02*
X48260Y16510D01*
D24*
X48260Y16510D03*
D25*
X79890Y110710D02*
X79890Y122560D01*
X83060Y125730D01*
X83060Y155608D02*
X89568Y155608D01*
X90170Y156210D01*
D24*
X90170Y156210D03*
D25*
X17290Y8890D02*
X10160Y8890D01*
D24*
X10160Y8890D03*
X25899Y169073D03*
D23*
X25931Y169009D02*
X25990Y168950D01*
D24*
X5080Y160020D03*
X5080Y151130D03*
X5080Y142240D03*
X12700Y160020D03*
X12700Y151130D03*
X12700Y142240D03*
X20320Y160020D03*
X27940Y160020D03*
X35560Y160020D03*
X96520Y153670D03*
X114300Y153670D03*
X124460Y153670D03*
X134620Y153670D03*
X144780Y153670D03*
X154940Y153670D03*
X163830Y153670D03*
X138430Y144780D03*
X154940Y144780D03*
X163830Y144780D03*
X138430Y137160D03*
X154940Y137160D03*
X163830Y137160D03*
X138430Y127000D03*
X154940Y127000D03*
X124460Y161290D03*
X134620Y161290D03*
X144780Y161290D03*
X154940Y161290D03*
X163830Y161290D03*
X20320Y151130D03*
X12700Y134620D03*
X146050Y144780D03*
X146050Y137160D03*
X146050Y127000D03*
X66040Y129540D03*
X83820Y148590D03*
X83820Y133350D03*
X114300Y161290D03*
X102870Y153670D03*
X129540Y127000D03*
X129540Y137160D03*
D25*
X148590Y113030D02*
X148220Y112660D01*
X139100Y112660D01*
D24*
X148590Y113030D03*
D25*
X127600Y98160D02*
X117210Y98160D01*
X116840Y97790D01*
D24*
X116840Y97790D03*
X66040Y144780D03*
X58420Y144780D03*
X66040Y137160D03*
X27940Y33020D03*
X83820Y140970D03*
X12700Y127000D03*
X114300Y168910D03*
X124460Y168910D03*
X134620Y168910D03*
X144780Y168910D03*
X154940Y168910D03*
X163830Y168910D03*
X102870Y168910D03*
X102870Y161290D03*
X91440Y168910D03*
X81280Y168910D03*
X69850Y168910D03*
X58420Y168910D03*
X36830Y168910D03*
X5080Y168910D03*
X12700Y168910D03*
D23*
X25899Y169041D02*
X25990Y168950D01*
X25899Y169041D02*
X25899Y169073D01*
D26*
X153670Y7620D02*
X166770Y12700D01*
D24*
X58420Y163830D03*
X69850Y163830D03*
X81280Y163830D03*
D25*
X48661Y45972D02*
X48260Y44910D01*
X83820Y39440D02*
X83820Y38590D01*
D26*
X104140Y42400D02*
X109220Y42400D01*
X114300Y42400D01*
X93980Y38590D02*
X88900Y38590D01*
X83820Y38590D01*
D25*
X79890Y57270D02*
X79890Y62010D01*
X79890Y57270D02*
X86360Y50800D01*
D24*
X59690Y53340D03*
X54610Y53340D03*
D26*
X48260Y46990D02*
X48260Y44910D01*
X48260Y46990D02*
X50165Y48895D01*
X55880Y46210D02*
X63500Y46210D01*
X55880Y46210D02*
X52850Y46210D01*
X50165Y48895D01*
X49530Y48720D02*
X53340Y52530D01*
X49530Y48720D02*
X49530Y46180D01*
X48260Y44910D01*
X54610Y51260D02*
X54610Y53340D01*
X58420Y53340D01*
X63500Y46990D02*
X63500Y46210D01*
X63500Y46990D02*
X63500Y47480D01*
X58420Y52560D01*
X58420Y53340D01*
X58420Y51290D02*
X58420Y48750D01*
X55880Y46210D01*
X55880Y49990D01*
X54610Y51260D01*
X53340Y52530D01*
D25*
X59890Y53540D02*
X59890Y62010D01*
X59890Y53540D02*
X59690Y53340D01*
X59890Y49820D02*
X63500Y46210D01*
X59890Y49820D02*
X59890Y53540D01*
X60960Y53340D02*
X63500Y50800D01*
X60960Y53340D02*
X59690Y53340D01*
X63500Y50800D02*
X63500Y46990D01*
X86360Y50800D02*
X96520Y50800D01*
X103650Y42400D02*
X104140Y42400D01*
D26*
X109220Y42400D02*
X109220Y47480D01*
X108975Y47235D02*
X104140Y42400D01*
X109220Y47480D02*
X114300Y42400D01*
X88900Y43670D02*
X88900Y44940D01*
X88900Y43670D02*
X88900Y38590D01*
X88020Y42790D02*
X83820Y38590D01*
X87385Y43425D02*
X88900Y44940D01*
X88900Y45720D01*
X88900Y43670D02*
X93980Y38590D01*
D24*
X88900Y45720D03*
D25*
X96520Y50800D02*
X99819Y47713D01*
X103117Y44627D01*
X103117Y43357D02*
X104140Y42400D01*
X83820Y39860D02*
X83820Y38590D01*
X83820Y39860D02*
X83358Y41386D01*
X82548Y44065D01*
X81386Y47908D01*
X81035Y49072D01*
X80730Y50081D01*
X74890Y55920D02*
X74890Y62010D01*
X74890Y55920D02*
X80730Y50081D01*
X83820Y45720D02*
X84386Y45720D01*
X83820Y45720D02*
X83575Y45720D01*
X81386Y47908D01*
X87385Y43425D02*
X88020Y42790D01*
X87385Y43425D02*
X86745Y44065D01*
X82548Y44065D01*
X85090Y45720D02*
X88900Y45720D01*
X85090Y45720D02*
X84386Y45720D01*
X81035Y49072D01*
X80730Y50081D02*
X85090Y45720D01*
D24*
X83820Y45720D03*
D25*
X83820Y41848D01*
X83358Y41386D01*
X96520Y50800D02*
X100330Y50800D01*
X101600Y50800D01*
X104140Y50800D02*
X107950Y50800D01*
X104140Y50800D02*
X101600Y50800D01*
X104140Y50800D02*
X107705Y47235D01*
X108975Y47235D01*
X107705Y47235D02*
X105165Y47235D01*
X101600Y50800D01*
X100330Y50800D02*
X101600Y49530D01*
X103117Y48013D02*
X103117Y44627D01*
X103117Y43357D01*
X104140Y46990D02*
X103117Y48013D01*
D24*
X101600Y49530D03*
D25*
X100330Y50800D02*
X100330Y48225D01*
X99819Y47713D01*
X107950Y50800D02*
X114300Y44450D01*
X114300Y42400D01*
X107950Y48260D02*
X107950Y50800D01*
X107950Y48260D02*
X108975Y47235D01*
D24*
X106680Y49530D03*
D25*
X103117Y48013D02*
X101600Y49530D01*
X104140Y46990D02*
X104140Y42400D01*
X140970Y22860D02*
X140970Y7620D01*
D24*
X140970Y22860D03*
D25*
X35060Y68860D02*
X34780Y68580D01*
X35060Y68860D02*
X48040Y68860D01*
D26*
X107953Y129005D02*
X119380Y128960D01*
D25*
X84890Y117919D02*
X84890Y110710D01*
X84890Y117919D02*
X96520Y129050D01*
D26*
X107908Y129050D01*
X107953Y129005D01*
X106680Y129050D02*
X119290Y129050D01*
X119380Y128960D01*
D25*
X69837Y118886D02*
X69890Y110710D01*
X69837Y118886D02*
X57150Y129050D01*
D26*
X44457Y129000D01*
X44447Y129010D01*
X35610Y129010D02*
X35560Y128960D01*
X35610Y129010D02*
X44447Y129010D01*
X48260Y129050D02*
X57150Y129050D01*
D25*
X72834Y47036D02*
X73660Y46210D01*
X69882Y62002D02*
X69890Y62010D01*
D26*
X34980Y144780D02*
X35560Y145360D01*
X34980Y144780D02*
X26670Y144780D01*
D24*
X26670Y144780D03*
D26*
X119380Y145360D02*
X127690Y145360D01*
X128270Y144780D01*
D24*
X128270Y144780D03*
D26*
X27940Y23040D02*
X27450Y22550D01*
X25890Y13970D02*
X25890Y8890D01*
X25890Y13970D02*
X25890Y17290D01*
X25890Y20320D02*
X25890Y20990D01*
X27940Y23040D01*
X25890Y8890D02*
X30970Y8890D01*
X33020Y8890D01*
X34290Y8890D01*
X30970Y8890D02*
X25890Y13970D01*
X25890Y17290D02*
X34290Y8890D01*
X25890Y17290D02*
X25890Y20320D01*
X34290Y8890D02*
X38100Y8890D01*
X33020Y13970D01*
X26670Y20320D01*
X25890Y20320D01*
D24*
X38100Y8890D03*
X33020Y8890D03*
X33020Y13970D03*
X69850Y53340D03*
D25*
X69890Y53380D02*
X69890Y62010D01*
X69890Y53380D02*
X69850Y53340D01*
X73366Y46770D02*
X73660Y46210D01*
X73366Y46770D02*
X69890Y53380D01*
X73366Y46504D02*
X73660Y46210D01*
X73366Y46504D02*
X73366Y46770D01*
X73366Y48260D01*
X70673Y52151D02*
X69850Y53340D01*
X70673Y52151D02*
X73366Y48260D01*
X73660Y46210D02*
X70673Y52151D01*
X54610Y62010D02*
X53340Y62010D01*
X54890Y58420D02*
X42836Y58420D01*
X42776Y58420D01*
X54890Y58420D02*
X54890Y62010D01*
D27*
X45882Y60777D02*
X42776Y58420D01*
X42836Y58420D02*
X34477Y52077D01*
X27940Y45540D01*
X45882Y60777D02*
X53340Y62010D01*
D23*
X139545Y39725D02*
X139700Y39570D01*
X84890Y56940D02*
X84890Y62010D01*
X84890Y56940D02*
X87728Y54102D01*
X112889Y54102D01*
X127421Y39570D02*
X139700Y39570D01*
X127421Y39570D02*
X112889Y54102D01*
X138376Y63246D02*
X139700Y64570D01*
X138376Y63246D02*
X89890Y63246D01*
X89890Y62010D01*
D25*
X74890Y110710D02*
X74890Y125715D01*
X74420Y125730D01*
X74930Y126240D01*
X74930Y136650D01*
X74930Y145290D02*
X74930Y155098D01*
X74420Y155608D01*
X74170Y155858D01*
X74411Y155617D02*
X55614Y155617D01*
X74411Y155617D02*
X74420Y155608D01*
D26*
X46990Y168910D02*
X46990Y168950D01*
X46974Y155617D01*
D23*
X96940Y99060D02*
X96740Y98860D01*
X96940Y99060D02*
X106680Y99060D01*
X113030Y105410D01*
X139100Y99660D02*
X139100Y98160D01*
X133350Y105410D02*
X113030Y105410D01*
X133350Y105410D02*
X139100Y99660D01*
X127600Y112660D02*
X127510Y112750D01*
X106400Y103860D02*
X96740Y103860D01*
X106400Y103860D02*
X116840Y114300D01*
X125960Y114300D01*
X127600Y112660D01*
M02*
