G04 EAGLE Gerber RS-274X export*
G75*
%MOMM*%
%FSLAX34Y34*%
%LPD*%
%INTop Copper*%
%IPPOS*%
%AMOC8*
5,1,8,0,0,1.08239X$1,22.5*%
G01*
%ADD10C,0.065000*%
%ADD11R,3.500000X3.500000*%
%ADD12C,0.500000*%
%ADD13C,0.280800*%
%ADD14C,0.402900*%
%ADD15C,0.539550*%
%ADD16R,1.800000X1.000000*%
%ADD17R,0.850000X0.950000*%
%ADD18R,0.900000X0.500000*%
%ADD19R,0.500000X0.500000*%
%ADD20C,0.270000*%
%ADD21C,1.050000*%
%ADD22C,1.100000*%
%ADD23C,0.152400*%
%ADD24C,0.453200*%
%ADD25C,0.254000*%
%ADD26C,0.406400*%
%ADD27C,0.508000*%

G36*
X165408Y2004D02*
X165408Y2004D01*
X165427Y2002D01*
X165529Y2024D01*
X165631Y2040D01*
X165648Y2050D01*
X165668Y2054D01*
X165757Y2107D01*
X165848Y2156D01*
X165862Y2170D01*
X165879Y2180D01*
X165946Y2259D01*
X166018Y2334D01*
X166026Y2352D01*
X166039Y2367D01*
X166078Y2463D01*
X166121Y2557D01*
X166123Y2577D01*
X166131Y2595D01*
X166149Y2762D01*
X166149Y18118D01*
X166146Y18138D01*
X166148Y18157D01*
X166126Y18259D01*
X166110Y18361D01*
X166100Y18378D01*
X166096Y18398D01*
X166043Y18487D01*
X165994Y18578D01*
X165980Y18592D01*
X165970Y18609D01*
X165891Y18676D01*
X165816Y18748D01*
X165798Y18756D01*
X165783Y18769D01*
X165687Y18808D01*
X165593Y18851D01*
X165573Y18853D01*
X165555Y18861D01*
X165504Y18866D01*
X163076Y19872D01*
X161242Y21706D01*
X160249Y24103D01*
X160249Y26697D01*
X161242Y29094D01*
X163076Y30928D01*
X165528Y31944D01*
X165529Y31944D01*
X165631Y31960D01*
X165648Y31970D01*
X165668Y31974D01*
X165757Y32027D01*
X165848Y32076D01*
X165862Y32090D01*
X165879Y32100D01*
X165946Y32179D01*
X166018Y32254D01*
X166026Y32272D01*
X166039Y32287D01*
X166078Y32383D01*
X166121Y32477D01*
X166123Y32497D01*
X166131Y32515D01*
X166149Y32682D01*
X166149Y43518D01*
X166146Y43538D01*
X166148Y43557D01*
X166126Y43659D01*
X166110Y43761D01*
X166100Y43778D01*
X166096Y43798D01*
X166043Y43887D01*
X165994Y43978D01*
X165980Y43992D01*
X165970Y44009D01*
X165891Y44076D01*
X165816Y44148D01*
X165798Y44156D01*
X165783Y44169D01*
X165687Y44208D01*
X165593Y44251D01*
X165573Y44253D01*
X165555Y44261D01*
X165504Y44266D01*
X163076Y45272D01*
X161242Y47106D01*
X160249Y49503D01*
X160249Y52097D01*
X161242Y54494D01*
X163076Y56328D01*
X163363Y56447D01*
X163424Y56484D01*
X163489Y56514D01*
X163528Y56549D01*
X163572Y56576D01*
X163618Y56631D01*
X163670Y56680D01*
X163696Y56726D01*
X163729Y56766D01*
X163754Y56833D01*
X163789Y56896D01*
X163798Y56947D01*
X163817Y56995D01*
X163820Y57067D01*
X163833Y57138D01*
X163825Y57189D01*
X163827Y57241D01*
X163807Y57310D01*
X163797Y57381D01*
X163773Y57427D01*
X163759Y57477D01*
X163718Y57536D01*
X163685Y57600D01*
X163648Y57637D01*
X163619Y57679D01*
X163561Y57722D01*
X163510Y57772D01*
X163447Y57807D01*
X163421Y57826D01*
X163399Y57833D01*
X163363Y57853D01*
X163076Y57972D01*
X161242Y59806D01*
X160249Y62203D01*
X160249Y64797D01*
X161242Y67194D01*
X163076Y69028D01*
X163363Y69147D01*
X163424Y69184D01*
X163489Y69214D01*
X163528Y69249D01*
X163572Y69276D01*
X163618Y69331D01*
X163670Y69380D01*
X163696Y69426D01*
X163729Y69466D01*
X163754Y69533D01*
X163789Y69596D01*
X163798Y69647D01*
X163817Y69695D01*
X163820Y69767D01*
X163833Y69838D01*
X163825Y69889D01*
X163827Y69941D01*
X163807Y70010D01*
X163797Y70081D01*
X163773Y70127D01*
X163759Y70177D01*
X163718Y70236D01*
X163685Y70300D01*
X163648Y70337D01*
X163619Y70379D01*
X163561Y70422D01*
X163510Y70472D01*
X163447Y70507D01*
X163421Y70526D01*
X163399Y70533D01*
X163363Y70553D01*
X163076Y70672D01*
X161242Y72506D01*
X160249Y74903D01*
X160249Y77497D01*
X161242Y79894D01*
X163076Y81728D01*
X163363Y81847D01*
X163424Y81884D01*
X163489Y81914D01*
X163528Y81949D01*
X163572Y81976D01*
X163618Y82031D01*
X163670Y82080D01*
X163696Y82126D01*
X163729Y82166D01*
X163754Y82233D01*
X163789Y82296D01*
X163798Y82347D01*
X163817Y82395D01*
X163820Y82467D01*
X163833Y82538D01*
X163825Y82589D01*
X163827Y82641D01*
X163807Y82710D01*
X163797Y82781D01*
X163773Y82827D01*
X163759Y82877D01*
X163718Y82936D01*
X163685Y83000D01*
X163648Y83037D01*
X163619Y83079D01*
X163561Y83122D01*
X163510Y83172D01*
X163447Y83207D01*
X163421Y83226D01*
X163399Y83233D01*
X163363Y83253D01*
X163076Y83372D01*
X161242Y85206D01*
X160249Y87603D01*
X160249Y90197D01*
X161242Y92594D01*
X163076Y94428D01*
X163363Y94547D01*
X163424Y94584D01*
X163489Y94614D01*
X163528Y94649D01*
X163572Y94676D01*
X163618Y94731D01*
X163670Y94780D01*
X163696Y94826D01*
X163729Y94866D01*
X163754Y94933D01*
X163789Y94996D01*
X163798Y95047D01*
X163817Y95095D01*
X163820Y95167D01*
X163833Y95238D01*
X163825Y95289D01*
X163827Y95341D01*
X163807Y95410D01*
X163797Y95481D01*
X163773Y95527D01*
X163759Y95577D01*
X163718Y95636D01*
X163685Y95700D01*
X163648Y95737D01*
X163619Y95779D01*
X163561Y95822D01*
X163510Y95872D01*
X163447Y95907D01*
X163421Y95926D01*
X163399Y95933D01*
X163363Y95953D01*
X163076Y96072D01*
X161242Y97906D01*
X160249Y100303D01*
X160249Y102897D01*
X161242Y105294D01*
X163076Y107128D01*
X163363Y107247D01*
X163424Y107284D01*
X163489Y107314D01*
X163528Y107349D01*
X163572Y107376D01*
X163618Y107431D01*
X163670Y107480D01*
X163696Y107526D01*
X163729Y107566D01*
X163754Y107633D01*
X163789Y107696D01*
X163798Y107747D01*
X163817Y107795D01*
X163820Y107867D01*
X163833Y107938D01*
X163825Y107989D01*
X163827Y108041D01*
X163807Y108110D01*
X163797Y108181D01*
X163773Y108227D01*
X163759Y108277D01*
X163718Y108336D01*
X163685Y108400D01*
X163648Y108437D01*
X163619Y108479D01*
X163561Y108522D01*
X163510Y108572D01*
X163447Y108607D01*
X163421Y108626D01*
X163399Y108633D01*
X163363Y108653D01*
X163076Y108772D01*
X161242Y110606D01*
X160249Y113003D01*
X160249Y115597D01*
X161242Y117994D01*
X163076Y119828D01*
X163363Y119947D01*
X163424Y119984D01*
X163489Y120014D01*
X163528Y120049D01*
X163572Y120076D01*
X163618Y120131D01*
X163670Y120180D01*
X163696Y120226D01*
X163729Y120266D01*
X163754Y120333D01*
X163789Y120396D01*
X163798Y120447D01*
X163817Y120495D01*
X163820Y120567D01*
X163833Y120638D01*
X163825Y120689D01*
X163827Y120741D01*
X163807Y120810D01*
X163797Y120881D01*
X163773Y120927D01*
X163759Y120977D01*
X163718Y121036D01*
X163685Y121100D01*
X163648Y121137D01*
X163619Y121179D01*
X163561Y121222D01*
X163510Y121272D01*
X163447Y121307D01*
X163421Y121326D01*
X163399Y121333D01*
X163363Y121353D01*
X163076Y121472D01*
X161242Y123306D01*
X160249Y125703D01*
X160249Y128297D01*
X161242Y130694D01*
X163076Y132528D01*
X165528Y133544D01*
X165529Y133544D01*
X165631Y133560D01*
X165648Y133570D01*
X165668Y133574D01*
X165757Y133627D01*
X165848Y133676D01*
X165862Y133690D01*
X165879Y133700D01*
X165946Y133779D01*
X166018Y133854D01*
X166026Y133872D01*
X166039Y133887D01*
X166078Y133983D01*
X166121Y134077D01*
X166123Y134097D01*
X166131Y134115D01*
X166149Y134282D01*
X166149Y177800D01*
X166146Y177820D01*
X166148Y177839D01*
X166126Y177941D01*
X166110Y178043D01*
X166100Y178060D01*
X166096Y178080D01*
X166043Y178169D01*
X165994Y178260D01*
X165980Y178274D01*
X165970Y178291D01*
X165891Y178358D01*
X165816Y178430D01*
X165798Y178438D01*
X165783Y178451D01*
X165687Y178490D01*
X165593Y178533D01*
X165573Y178535D01*
X165555Y178543D01*
X165388Y178561D01*
X51435Y178561D01*
X51415Y178558D01*
X51396Y178560D01*
X51294Y178538D01*
X51192Y178522D01*
X51175Y178512D01*
X51155Y178508D01*
X51066Y178455D01*
X50975Y178406D01*
X50961Y178392D01*
X50944Y178382D01*
X50877Y178303D01*
X50806Y178228D01*
X50797Y178210D01*
X50784Y178195D01*
X50745Y178099D01*
X50702Y178005D01*
X50700Y177985D01*
X50692Y177967D01*
X50674Y177800D01*
X50674Y175895D01*
X50689Y175805D01*
X50696Y175714D01*
X50708Y175684D01*
X50714Y175652D01*
X50756Y175572D01*
X50792Y175488D01*
X50818Y175456D01*
X50829Y175435D01*
X50852Y175413D01*
X50897Y175357D01*
X54072Y172182D01*
X54146Y172129D01*
X54215Y172069D01*
X54245Y172057D01*
X54271Y172038D01*
X54358Y172011D01*
X54443Y171977D01*
X54484Y171973D01*
X54507Y171966D01*
X54539Y171967D01*
X54610Y171959D01*
X79060Y171959D01*
X80519Y170500D01*
X80519Y121285D01*
X80522Y121265D01*
X80520Y121246D01*
X80542Y121144D01*
X80559Y121042D01*
X80568Y121025D01*
X80572Y121005D01*
X80625Y120916D01*
X80674Y120825D01*
X80688Y120811D01*
X80698Y120794D01*
X80777Y120727D01*
X80852Y120656D01*
X80870Y120647D01*
X80885Y120634D01*
X80981Y120595D01*
X81075Y120552D01*
X81095Y120550D01*
X81113Y120542D01*
X81280Y120524D01*
X83632Y120524D01*
X83714Y120537D01*
X83797Y120542D01*
X83834Y120557D01*
X83875Y120564D01*
X83948Y120602D01*
X84025Y120633D01*
X84067Y120666D01*
X84092Y120679D01*
X84112Y120700D01*
X84158Y120735D01*
X92014Y128255D01*
X92074Y128334D01*
X92139Y128410D01*
X92148Y128432D01*
X92162Y128451D01*
X92194Y128545D01*
X92231Y128638D01*
X92234Y128667D01*
X92240Y128684D01*
X92240Y128717D01*
X92249Y128804D01*
X92249Y131454D01*
X93816Y133021D01*
X99224Y133021D01*
X99669Y132576D01*
X99743Y132522D01*
X99812Y132463D01*
X99842Y132451D01*
X99869Y132432D01*
X99956Y132405D01*
X100040Y132371D01*
X100081Y132367D01*
X100104Y132360D01*
X100136Y132361D01*
X100207Y132353D01*
X102993Y132353D01*
X103083Y132367D01*
X103174Y132375D01*
X103204Y132387D01*
X103236Y132392D01*
X103316Y132435D01*
X103400Y132471D01*
X103432Y132497D01*
X103453Y132508D01*
X103475Y132531D01*
X103531Y132576D01*
X103976Y133021D01*
X109384Y133021D01*
X109829Y132576D01*
X109903Y132522D01*
X109972Y132463D01*
X110002Y132451D01*
X110029Y132432D01*
X110116Y132405D01*
X110200Y132371D01*
X110241Y132367D01*
X110264Y132360D01*
X110296Y132361D01*
X110367Y132353D01*
X113240Y132353D01*
X113331Y132367D01*
X113421Y132375D01*
X113451Y132387D01*
X113483Y132392D01*
X113564Y132435D01*
X113648Y132471D01*
X113680Y132497D01*
X113701Y132508D01*
X113723Y132531D01*
X113779Y132576D01*
X115384Y134181D01*
X123376Y134181D01*
X125301Y132256D01*
X125301Y125664D01*
X123376Y123739D01*
X115384Y123739D01*
X113664Y125459D01*
X113591Y125511D01*
X113523Y125570D01*
X113492Y125583D01*
X113464Y125602D01*
X113379Y125629D01*
X113295Y125663D01*
X113253Y125668D01*
X113229Y125675D01*
X113197Y125674D01*
X113129Y125682D01*
X110316Y125693D01*
X110224Y125678D01*
X110132Y125671D01*
X110103Y125659D01*
X110073Y125654D01*
X109991Y125611D01*
X109906Y125575D01*
X109875Y125550D01*
X109855Y125540D01*
X109833Y125516D01*
X109775Y125470D01*
X109384Y125079D01*
X103976Y125079D01*
X103531Y125524D01*
X103457Y125578D01*
X103388Y125637D01*
X103358Y125649D01*
X103331Y125668D01*
X103244Y125695D01*
X103160Y125729D01*
X103119Y125733D01*
X103096Y125740D01*
X103064Y125739D01*
X102993Y125747D01*
X100207Y125747D01*
X100117Y125733D01*
X100026Y125725D01*
X99996Y125713D01*
X99964Y125708D01*
X99884Y125665D01*
X99800Y125629D01*
X99768Y125603D01*
X99747Y125592D01*
X99725Y125569D01*
X99669Y125524D01*
X99224Y125079D01*
X96351Y125079D01*
X96270Y125066D01*
X96187Y125061D01*
X96149Y125046D01*
X96109Y125040D01*
X96036Y125001D01*
X95958Y124970D01*
X95916Y124937D01*
X95891Y124924D01*
X95871Y124903D01*
X95825Y124868D01*
X92656Y121835D01*
X92608Y121771D01*
X92553Y121713D01*
X92535Y121673D01*
X92508Y121638D01*
X92483Y121562D01*
X92450Y121490D01*
X92445Y121447D01*
X92431Y121405D01*
X92431Y121325D01*
X92422Y121246D01*
X92432Y121203D01*
X92432Y121159D01*
X92458Y121083D01*
X92475Y121005D01*
X92497Y120968D01*
X92511Y120926D01*
X92560Y120863D01*
X92601Y120794D01*
X92634Y120766D01*
X92661Y120731D01*
X92727Y120686D01*
X92788Y120634D01*
X92828Y120618D01*
X92865Y120593D01*
X92942Y120572D01*
X93016Y120542D01*
X93074Y120536D01*
X93102Y120528D01*
X93130Y120530D01*
X93183Y120524D01*
X143195Y120524D01*
X148464Y115255D01*
X148464Y79690D01*
X145994Y77220D01*
X145952Y77162D01*
X145902Y77110D01*
X145880Y77063D01*
X145850Y77021D01*
X145829Y76952D01*
X145799Y76887D01*
X145793Y76835D01*
X145778Y76785D01*
X145780Y76714D01*
X145772Y76643D01*
X145783Y76592D01*
X145784Y76540D01*
X145809Y76472D01*
X145824Y76402D01*
X145851Y76358D01*
X145869Y76309D01*
X145913Y76253D01*
X145950Y76191D01*
X145990Y76157D01*
X146022Y76117D01*
X146083Y76078D01*
X146137Y76031D01*
X146185Y76012D01*
X146229Y75984D01*
X146299Y75966D01*
X146365Y75939D01*
X146437Y75931D01*
X146468Y75923D01*
X146491Y75925D01*
X146532Y75921D01*
X149226Y75921D01*
X149971Y75176D01*
X149971Y64124D01*
X149202Y63355D01*
X149109Y63340D01*
X149092Y63330D01*
X149072Y63326D01*
X148983Y63273D01*
X148892Y63224D01*
X148878Y63210D01*
X148861Y63200D01*
X148794Y63121D01*
X148722Y63046D01*
X148714Y63028D01*
X148701Y63013D01*
X148662Y62917D01*
X148619Y62823D01*
X148617Y62803D01*
X148609Y62785D01*
X148591Y62618D01*
X148591Y51682D01*
X148594Y51662D01*
X148592Y51643D01*
X148614Y51541D01*
X148630Y51439D01*
X148640Y51422D01*
X148644Y51402D01*
X148697Y51313D01*
X148746Y51222D01*
X148760Y51208D01*
X148770Y51191D01*
X148849Y51124D01*
X148924Y51052D01*
X148942Y51044D01*
X148957Y51031D01*
X149053Y50992D01*
X149147Y50949D01*
X149167Y50947D01*
X149185Y50939D01*
X149211Y50936D01*
X149971Y50176D01*
X149971Y39124D01*
X149226Y38379D01*
X130174Y38379D01*
X129429Y39124D01*
X129429Y41856D01*
X129426Y41876D01*
X129428Y41895D01*
X129406Y41997D01*
X129390Y42099D01*
X129380Y42116D01*
X129376Y42136D01*
X129323Y42225D01*
X129274Y42316D01*
X129260Y42330D01*
X129250Y42347D01*
X129171Y42414D01*
X129096Y42486D01*
X129078Y42494D01*
X129063Y42507D01*
X128967Y42546D01*
X128873Y42589D01*
X128853Y42591D01*
X128835Y42599D01*
X128668Y42617D01*
X125095Y42617D01*
X125075Y42614D01*
X125056Y42616D01*
X124954Y42594D01*
X124852Y42578D01*
X124835Y42568D01*
X124815Y42564D01*
X124726Y42511D01*
X124635Y42462D01*
X124621Y42448D01*
X124604Y42438D01*
X124537Y42359D01*
X124466Y42284D01*
X124457Y42266D01*
X124444Y42251D01*
X124405Y42155D01*
X124362Y42061D01*
X124360Y42041D01*
X124352Y42023D01*
X124334Y41856D01*
X124334Y24445D01*
X119667Y19778D01*
X119625Y19772D01*
X119608Y19762D01*
X119588Y19758D01*
X119499Y19705D01*
X119408Y19656D01*
X119394Y19642D01*
X119377Y19632D01*
X119310Y19553D01*
X119238Y19478D01*
X119230Y19460D01*
X119217Y19445D01*
X119178Y19349D01*
X119135Y19255D01*
X119133Y19235D01*
X119125Y19217D01*
X119107Y19050D01*
X119107Y16315D01*
X117910Y15119D01*
X117883Y15081D01*
X117850Y15050D01*
X117812Y14982D01*
X117767Y14919D01*
X117753Y14875D01*
X117731Y14835D01*
X117717Y14758D01*
X117694Y14684D01*
X117695Y14638D01*
X117687Y14593D01*
X117699Y14516D01*
X117701Y14438D01*
X117716Y14395D01*
X117723Y14349D01*
X117758Y14280D01*
X117785Y14207D01*
X117814Y14171D01*
X117835Y14130D01*
X117890Y14076D01*
X117939Y14015D01*
X117977Y13990D01*
X118010Y13958D01*
X118130Y13892D01*
X118146Y13882D01*
X118151Y13881D01*
X118157Y13877D01*
X119405Y13360D01*
X121382Y11384D01*
X121398Y11372D01*
X121410Y11356D01*
X121498Y11300D01*
X121581Y11240D01*
X121600Y11234D01*
X121617Y11223D01*
X121718Y11198D01*
X121817Y11168D01*
X121836Y11168D01*
X121856Y11163D01*
X121959Y11171D01*
X122062Y11174D01*
X122081Y11181D01*
X122101Y11182D01*
X122196Y11223D01*
X122293Y11258D01*
X122309Y11271D01*
X122327Y11279D01*
X122458Y11384D01*
X124435Y13360D01*
X125683Y13877D01*
X125722Y13901D01*
X125765Y13917D01*
X125826Y13965D01*
X125892Y14007D01*
X125921Y14042D01*
X125957Y14071D01*
X125999Y14136D01*
X126049Y14196D01*
X126065Y14239D01*
X126090Y14277D01*
X126109Y14353D01*
X126137Y14426D01*
X126139Y14471D01*
X126150Y14516D01*
X126144Y14594D01*
X126147Y14671D01*
X126134Y14716D01*
X126131Y14761D01*
X126100Y14833D01*
X126079Y14908D01*
X126053Y14945D01*
X126035Y14988D01*
X125949Y15094D01*
X125939Y15110D01*
X125934Y15113D01*
X125930Y15119D01*
X124733Y16315D01*
X124733Y19245D01*
X126805Y21317D01*
X129735Y21317D01*
X131807Y19245D01*
X131807Y16315D01*
X130610Y15119D01*
X130583Y15081D01*
X130550Y15050D01*
X130512Y14982D01*
X130467Y14919D01*
X130453Y14875D01*
X130431Y14835D01*
X130417Y14758D01*
X130394Y14684D01*
X130395Y14638D01*
X130387Y14593D01*
X130399Y14516D01*
X130401Y14438D01*
X130416Y14395D01*
X130423Y14349D01*
X130458Y14280D01*
X130485Y14207D01*
X130514Y14171D01*
X130535Y14130D01*
X130590Y14076D01*
X130639Y14015D01*
X130677Y13990D01*
X130710Y13958D01*
X130830Y13892D01*
X130846Y13882D01*
X130851Y13881D01*
X130857Y13877D01*
X132105Y13360D01*
X134082Y11384D01*
X134098Y11372D01*
X134110Y11356D01*
X134198Y11300D01*
X134281Y11240D01*
X134300Y11234D01*
X134317Y11223D01*
X134418Y11198D01*
X134517Y11168D01*
X134536Y11168D01*
X134556Y11163D01*
X134659Y11171D01*
X134762Y11174D01*
X134781Y11181D01*
X134801Y11182D01*
X134896Y11223D01*
X134993Y11258D01*
X135009Y11271D01*
X135027Y11279D01*
X135158Y11384D01*
X137135Y13360D01*
X137959Y13702D01*
X138059Y13763D01*
X138159Y13823D01*
X138163Y13828D01*
X138168Y13831D01*
X138243Y13921D01*
X138319Y14010D01*
X138321Y14016D01*
X138325Y14021D01*
X138367Y14129D01*
X138411Y14238D01*
X138412Y14246D01*
X138413Y14250D01*
X138414Y14269D01*
X138429Y14405D01*
X138429Y20084D01*
X138415Y20174D01*
X138407Y20265D01*
X138395Y20294D01*
X138390Y20326D01*
X138347Y20407D01*
X138311Y20491D01*
X138285Y20523D01*
X138274Y20544D01*
X138251Y20566D01*
X138206Y20622D01*
X137433Y21395D01*
X137433Y24325D01*
X139505Y26397D01*
X142435Y26397D01*
X144507Y24325D01*
X144507Y21395D01*
X143734Y20622D01*
X143681Y20548D01*
X143621Y20479D01*
X143609Y20448D01*
X143590Y20422D01*
X143563Y20335D01*
X143529Y20250D01*
X143525Y20209D01*
X143518Y20187D01*
X143519Y20155D01*
X143511Y20084D01*
X143511Y14405D01*
X143530Y14290D01*
X143547Y14174D01*
X143549Y14168D01*
X143550Y14162D01*
X143605Y14059D01*
X143658Y13955D01*
X143663Y13950D01*
X143666Y13945D01*
X143750Y13865D01*
X143834Y13782D01*
X143840Y13779D01*
X143844Y13775D01*
X143861Y13768D01*
X143981Y13702D01*
X144805Y13360D01*
X146710Y11455D01*
X147741Y8967D01*
X147741Y6273D01*
X146710Y3785D01*
X146226Y3300D01*
X146184Y3242D01*
X146134Y3190D01*
X146112Y3143D01*
X146082Y3101D01*
X146061Y3032D01*
X146031Y2967D01*
X146025Y2915D01*
X146010Y2865D01*
X146011Y2794D01*
X146004Y2723D01*
X146015Y2672D01*
X146016Y2620D01*
X146041Y2552D01*
X146056Y2482D01*
X146083Y2437D01*
X146100Y2389D01*
X146145Y2333D01*
X146182Y2271D01*
X146222Y2237D01*
X146254Y2197D01*
X146314Y2158D01*
X146369Y2111D01*
X146417Y2092D01*
X146461Y2064D01*
X146530Y2046D01*
X146597Y2019D01*
X146668Y2011D01*
X146700Y2003D01*
X146723Y2005D01*
X146764Y2001D01*
X165388Y2001D01*
X165408Y2004D01*
G37*
G36*
X68656Y123339D02*
X68656Y123339D01*
X68711Y123340D01*
X68765Y123362D01*
X68822Y123375D01*
X68868Y123404D01*
X68918Y123424D01*
X68962Y123464D01*
X69011Y123495D01*
X69044Y123539D01*
X69084Y123576D01*
X69111Y123628D01*
X69146Y123675D01*
X69162Y123727D01*
X69187Y123775D01*
X69197Y123845D01*
X69210Y123890D01*
X69208Y123920D01*
X69214Y123961D01*
X69214Y160020D01*
X69203Y160085D01*
X69201Y160151D01*
X69183Y160194D01*
X69175Y160241D01*
X69141Y160298D01*
X69116Y160358D01*
X69085Y160393D01*
X69060Y160434D01*
X69009Y160476D01*
X68965Y160524D01*
X68923Y160546D01*
X68886Y160575D01*
X68824Y160596D01*
X68765Y160627D01*
X68711Y160635D01*
X68674Y160647D01*
X68634Y160646D01*
X68580Y160654D01*
X57175Y160654D01*
X54468Y160867D01*
X51852Y161495D01*
X49367Y162525D01*
X47073Y163930D01*
X45028Y165678D01*
X43280Y167723D01*
X41875Y170017D01*
X40845Y172502D01*
X40217Y175118D01*
X40004Y177825D01*
X40004Y179070D01*
X39993Y179135D01*
X39991Y179201D01*
X39973Y179244D01*
X39965Y179291D01*
X39931Y179348D01*
X39906Y179408D01*
X39875Y179443D01*
X39850Y179484D01*
X39799Y179526D01*
X39755Y179574D01*
X39713Y179596D01*
X39676Y179625D01*
X39614Y179646D01*
X39555Y179677D01*
X39501Y179685D01*
X39464Y179697D01*
X39424Y179696D01*
X39370Y179704D01*
X31127Y179704D01*
X31062Y179693D01*
X30996Y179691D01*
X30953Y179673D01*
X30906Y179665D01*
X30849Y179631D01*
X30788Y179606D01*
X30754Y179575D01*
X30713Y179550D01*
X30671Y179499D01*
X30623Y179455D01*
X30601Y179413D01*
X30572Y179376D01*
X30550Y179314D01*
X30520Y179255D01*
X30512Y179201D01*
X30500Y179164D01*
X30501Y179124D01*
X30493Y179070D01*
X30493Y173464D01*
X29748Y172719D01*
X19696Y172719D01*
X18951Y173464D01*
X18951Y179070D01*
X18940Y179135D01*
X18938Y179201D01*
X18920Y179244D01*
X18912Y179291D01*
X18878Y179348D01*
X18853Y179408D01*
X18822Y179443D01*
X18797Y179484D01*
X18746Y179526D01*
X18702Y179574D01*
X18660Y179596D01*
X18623Y179625D01*
X18561Y179646D01*
X18502Y179677D01*
X18448Y179685D01*
X18411Y179697D01*
X18371Y179696D01*
X18317Y179704D01*
X2635Y179704D01*
X2570Y179693D01*
X2504Y179691D01*
X2461Y179673D01*
X2414Y179665D01*
X2357Y179631D01*
X2297Y179606D01*
X2262Y179575D01*
X2221Y179550D01*
X2179Y179499D01*
X2131Y179455D01*
X2109Y179413D01*
X2080Y179376D01*
X2059Y179314D01*
X2028Y179255D01*
X2020Y179201D01*
X2008Y179164D01*
X2009Y179124D01*
X2001Y179070D01*
X2001Y134155D01*
X2012Y134090D01*
X2014Y134024D01*
X2032Y133981D01*
X2040Y133934D01*
X2074Y133877D01*
X2099Y133817D01*
X2130Y133782D01*
X2155Y133741D01*
X2206Y133699D01*
X2250Y133651D01*
X2292Y133629D01*
X2329Y133600D01*
X2391Y133579D01*
X2450Y133548D01*
X2504Y133540D01*
X2541Y133528D01*
X2550Y133528D01*
X4964Y132528D01*
X6798Y130694D01*
X7791Y128297D01*
X7791Y125703D01*
X7585Y125206D01*
X7573Y125153D01*
X7552Y125103D01*
X7551Y125078D01*
X7546Y125062D01*
X7547Y125031D01*
X7537Y124986D01*
X7544Y124933D01*
X7542Y124879D01*
X7552Y124848D01*
X7552Y124838D01*
X7561Y124816D01*
X7568Y124764D01*
X7594Y124717D01*
X7611Y124665D01*
X7636Y124631D01*
X7637Y124630D01*
X7638Y124628D01*
X7653Y124608D01*
X7675Y124567D01*
X7698Y124547D01*
X7722Y124514D01*
X8098Y124138D01*
X8133Y124114D01*
X8162Y124083D01*
X8224Y124051D01*
X8282Y124010D01*
X8324Y124000D01*
X8361Y123980D01*
X8451Y123967D01*
X8500Y123954D01*
X8521Y123957D01*
X8547Y123953D01*
X29819Y123953D01*
X29907Y123968D01*
X29995Y123978D01*
X30016Y123988D01*
X30040Y123992D01*
X30117Y124038D01*
X30196Y124077D01*
X30213Y124094D01*
X30233Y124107D01*
X30289Y124176D01*
X30350Y124240D01*
X30359Y124262D01*
X30374Y124281D01*
X30403Y124365D01*
X30438Y124447D01*
X30439Y124471D01*
X30446Y124493D01*
X30444Y124582D01*
X30448Y124671D01*
X30440Y124694D01*
X30440Y124718D01*
X30406Y124800D01*
X30379Y124885D01*
X30363Y124906D01*
X30355Y124925D01*
X30321Y124963D01*
X30268Y125035D01*
X29639Y125664D01*
X29639Y132256D01*
X31564Y134181D01*
X39556Y134181D01*
X41239Y132499D01*
X41273Y132474D01*
X41302Y132443D01*
X41365Y132411D01*
X41423Y132370D01*
X41464Y132360D01*
X41502Y132340D01*
X41591Y132327D01*
X41640Y132314D01*
X41661Y132317D01*
X41687Y132313D01*
X44585Y132313D01*
X44627Y132320D01*
X44670Y132318D01*
X44737Y132340D01*
X44806Y132352D01*
X44843Y132374D01*
X44883Y132387D01*
X44956Y132441D01*
X44999Y132467D01*
X45013Y132483D01*
X45034Y132499D01*
X45556Y133021D01*
X50964Y133021D01*
X51446Y132539D01*
X51481Y132514D01*
X51510Y132483D01*
X51573Y132451D01*
X51630Y132410D01*
X51671Y132400D01*
X51709Y132380D01*
X51799Y132367D01*
X51848Y132354D01*
X51868Y132357D01*
X51895Y132353D01*
X53515Y132353D01*
X53557Y132360D01*
X53600Y132358D01*
X53667Y132380D01*
X53736Y132392D01*
X53773Y132414D01*
X53813Y132427D01*
X53886Y132481D01*
X53929Y132507D01*
X53943Y132523D01*
X53964Y132539D01*
X54446Y133021D01*
X59854Y133021D01*
X61421Y131454D01*
X61421Y129189D01*
X61434Y129113D01*
X61439Y129036D01*
X61454Y129003D01*
X61460Y128968D01*
X61500Y128901D01*
X61531Y128831D01*
X61559Y128801D01*
X61575Y128775D01*
X61611Y128745D01*
X61658Y128694D01*
X68183Y123466D01*
X68231Y123440D01*
X68274Y123405D01*
X68329Y123387D01*
X68381Y123359D01*
X68435Y123351D01*
X68486Y123334D01*
X68545Y123335D01*
X68603Y123327D01*
X68656Y123339D01*
G37*
G36*
X29232Y174069D02*
X29232Y174069D01*
X29231Y174069D01*
X29232Y174070D01*
X29232Y223058D01*
X43208Y223058D01*
X43208Y174070D01*
X43219Y174058D01*
X43219Y174059D01*
X43220Y174058D01*
X48220Y174058D01*
X48232Y174069D01*
X48231Y174069D01*
X48232Y174070D01*
X48232Y223058D01*
X65208Y223058D01*
X65208Y196670D01*
X65219Y196658D01*
X65219Y196659D01*
X65220Y196658D01*
X95220Y196658D01*
X95232Y196669D01*
X95231Y196669D01*
X95232Y196670D01*
X95232Y223058D01*
X112208Y223058D01*
X112208Y196670D01*
X112219Y196658D01*
X112219Y196659D01*
X112220Y196658D01*
X142220Y196658D01*
X142232Y196669D01*
X142231Y196669D01*
X142232Y196670D01*
X142232Y223058D01*
X159208Y223058D01*
X159208Y183670D01*
X159219Y183658D01*
X159219Y183659D01*
X159220Y183658D01*
X164220Y183658D01*
X164232Y183669D01*
X164231Y183669D01*
X164232Y183670D01*
X164232Y228070D01*
X164222Y228082D01*
X164221Y228081D01*
X164220Y228082D01*
X137220Y228082D01*
X137208Y228072D01*
X137209Y228071D01*
X137208Y228070D01*
X137208Y201682D01*
X117232Y201682D01*
X117232Y228070D01*
X117222Y228082D01*
X117221Y228081D01*
X117220Y228082D01*
X90220Y228082D01*
X90208Y228072D01*
X90209Y228071D01*
X90208Y228070D01*
X90208Y201682D01*
X70232Y201682D01*
X70232Y228070D01*
X70222Y228082D01*
X70221Y228081D01*
X70220Y228082D01*
X20220Y228082D01*
X20208Y228072D01*
X20209Y228071D01*
X20208Y228070D01*
X20208Y174070D01*
X20219Y174058D01*
X20219Y174059D01*
X20220Y174058D01*
X29220Y174058D01*
X29232Y174069D01*
G37*
G36*
X71747Y2012D02*
X71747Y2012D01*
X71819Y2014D01*
X71868Y2032D01*
X71919Y2040D01*
X71982Y2074D01*
X72050Y2099D01*
X72090Y2131D01*
X72136Y2156D01*
X72186Y2208D01*
X72242Y2252D01*
X72270Y2296D01*
X72306Y2334D01*
X72336Y2399D01*
X72375Y2459D01*
X72387Y2510D01*
X72409Y2557D01*
X72417Y2628D01*
X72435Y2698D01*
X72431Y2750D01*
X72436Y2801D01*
X72421Y2872D01*
X72416Y2943D01*
X72395Y2991D01*
X72384Y3042D01*
X72347Y3103D01*
X72319Y3169D01*
X72274Y3225D01*
X72258Y3253D01*
X72240Y3268D01*
X72214Y3300D01*
X71730Y3785D01*
X70699Y6273D01*
X70699Y8967D01*
X71730Y11455D01*
X73635Y13360D01*
X74883Y13877D01*
X74922Y13901D01*
X74965Y13917D01*
X75026Y13965D01*
X75092Y14007D01*
X75121Y14042D01*
X75157Y14071D01*
X75199Y14136D01*
X75249Y14196D01*
X75265Y14239D01*
X75290Y14277D01*
X75309Y14353D01*
X75337Y14426D01*
X75339Y14471D01*
X75350Y14516D01*
X75344Y14594D01*
X75347Y14671D01*
X75334Y14716D01*
X75331Y14761D01*
X75300Y14833D01*
X75279Y14908D01*
X75253Y14945D01*
X75235Y14988D01*
X75149Y15094D01*
X75139Y15110D01*
X75134Y15113D01*
X75130Y15119D01*
X73933Y16315D01*
X73933Y19050D01*
X73930Y19070D01*
X73932Y19089D01*
X73910Y19191D01*
X73894Y19293D01*
X73884Y19310D01*
X73880Y19330D01*
X73827Y19419D01*
X73778Y19510D01*
X73764Y19524D01*
X73754Y19541D01*
X73675Y19608D01*
X73600Y19680D01*
X73582Y19688D01*
X73567Y19701D01*
X73471Y19740D01*
X73377Y19783D01*
X73357Y19785D01*
X73339Y19793D01*
X73172Y19811D01*
X60325Y19811D01*
X60305Y19808D01*
X60286Y19810D01*
X60184Y19788D01*
X60082Y19772D01*
X60065Y19762D01*
X60045Y19758D01*
X59956Y19705D01*
X59865Y19656D01*
X59851Y19642D01*
X59834Y19632D01*
X59767Y19553D01*
X59696Y19478D01*
X59687Y19460D01*
X59674Y19445D01*
X59635Y19349D01*
X59592Y19255D01*
X59590Y19235D01*
X59582Y19217D01*
X59564Y19050D01*
X59564Y13015D01*
X56835Y10286D01*
X47625Y10286D01*
X47535Y10272D01*
X47444Y10264D01*
X47414Y10252D01*
X47382Y10247D01*
X47302Y10204D01*
X47218Y10168D01*
X47186Y10142D01*
X47165Y10131D01*
X47143Y10108D01*
X47087Y10063D01*
X40737Y3713D01*
X40684Y3639D01*
X40624Y3570D01*
X40612Y3540D01*
X40593Y3514D01*
X40566Y3427D01*
X40532Y3342D01*
X40528Y3301D01*
X40521Y3278D01*
X40522Y3246D01*
X40514Y3175D01*
X40514Y2762D01*
X40517Y2742D01*
X40515Y2723D01*
X40537Y2621D01*
X40554Y2519D01*
X40563Y2502D01*
X40567Y2482D01*
X40620Y2393D01*
X40669Y2302D01*
X40683Y2288D01*
X40693Y2271D01*
X40772Y2204D01*
X40847Y2132D01*
X40865Y2124D01*
X40880Y2111D01*
X40976Y2072D01*
X41070Y2029D01*
X41090Y2027D01*
X41108Y2019D01*
X41275Y2001D01*
X71676Y2001D01*
X71747Y2012D01*
G37*
G36*
X16133Y17162D02*
X16133Y17162D01*
X16221Y17171D01*
X16243Y17181D01*
X16266Y17185D01*
X16343Y17231D01*
X16423Y17270D01*
X16439Y17287D01*
X16459Y17300D01*
X16515Y17369D01*
X16576Y17433D01*
X16586Y17455D01*
X16601Y17474D01*
X16629Y17558D01*
X16664Y17640D01*
X16665Y17664D01*
X16673Y17686D01*
X16670Y17775D01*
X16674Y17864D01*
X16667Y17887D01*
X16666Y17911D01*
X16632Y17993D01*
X16605Y18078D01*
X16590Y18099D01*
X16582Y18118D01*
X16548Y18156D01*
X16494Y18229D01*
X16024Y18698D01*
X16024Y27382D01*
X18348Y29706D01*
X37532Y29706D01*
X38922Y28316D01*
X38995Y28265D01*
X39064Y28209D01*
X39086Y28202D01*
X39106Y28188D01*
X39192Y28166D01*
X39276Y28137D01*
X39300Y28138D01*
X39323Y28132D01*
X39412Y28141D01*
X39501Y28144D01*
X39523Y28153D01*
X39546Y28155D01*
X39626Y28195D01*
X39708Y28228D01*
X39726Y28244D01*
X39747Y28255D01*
X39808Y28320D01*
X39874Y28380D01*
X39885Y28401D01*
X39901Y28418D01*
X39936Y28500D01*
X39977Y28579D01*
X39980Y28606D01*
X39989Y28625D01*
X39991Y28675D01*
X40004Y28765D01*
X40004Y39815D01*
X39988Y39903D01*
X39979Y39991D01*
X39969Y40013D01*
X39965Y40036D01*
X39919Y40113D01*
X39880Y40193D01*
X39863Y40209D01*
X39850Y40229D01*
X39781Y40285D01*
X39717Y40346D01*
X39695Y40356D01*
X39676Y40371D01*
X39592Y40399D01*
X39510Y40434D01*
X39486Y40435D01*
X39464Y40443D01*
X39375Y40440D01*
X39286Y40444D01*
X39263Y40437D01*
X39239Y40436D01*
X39157Y40403D01*
X39072Y40375D01*
X39051Y40359D01*
X39032Y40352D01*
X38994Y40318D01*
X38922Y40264D01*
X37532Y38874D01*
X18348Y38874D01*
X16033Y41189D01*
X15979Y41226D01*
X15931Y41272D01*
X15888Y41290D01*
X15849Y41317D01*
X15785Y41333D01*
X15725Y41359D01*
X15678Y41361D01*
X15632Y41373D01*
X15566Y41366D01*
X15501Y41369D01*
X15456Y41355D01*
X15409Y41350D01*
X15350Y41321D01*
X15287Y41300D01*
X15243Y41268D01*
X15208Y41250D01*
X15181Y41222D01*
X15136Y41189D01*
X13565Y39617D01*
X13540Y39582D01*
X13509Y39554D01*
X13477Y39491D01*
X13436Y39433D01*
X13426Y39392D01*
X13406Y39354D01*
X13393Y39264D01*
X13380Y39216D01*
X13383Y39195D01*
X13379Y39169D01*
X13379Y33084D01*
X10771Y30476D01*
X10746Y30441D01*
X10715Y30413D01*
X10683Y30350D01*
X10642Y30292D01*
X10632Y30251D01*
X10612Y30213D01*
X10599Y30123D01*
X10586Y30075D01*
X10589Y30054D01*
X10585Y30028D01*
X10585Y21542D01*
X7272Y18229D01*
X7221Y18155D01*
X7165Y18086D01*
X7157Y18064D01*
X7143Y18044D01*
X7121Y17958D01*
X7093Y17874D01*
X7093Y17850D01*
X7087Y17827D01*
X7097Y17738D01*
X7099Y17649D01*
X7108Y17627D01*
X7111Y17604D01*
X7150Y17524D01*
X7184Y17442D01*
X7200Y17424D01*
X7210Y17403D01*
X7275Y17342D01*
X7335Y17276D01*
X7356Y17265D01*
X7373Y17249D01*
X7455Y17214D01*
X7535Y17173D01*
X7561Y17170D01*
X7580Y17161D01*
X7630Y17159D01*
X7720Y17146D01*
X16045Y17146D01*
X16133Y17162D01*
G37*
G36*
X8956Y90940D02*
X8956Y90940D01*
X8998Y90938D01*
X9065Y90960D01*
X9135Y90972D01*
X9171Y90994D01*
X9212Y91007D01*
X9284Y91061D01*
X9328Y91087D01*
X9341Y91103D01*
X9362Y91119D01*
X15915Y97671D01*
X17780Y97671D01*
X17845Y97682D01*
X17911Y97684D01*
X17954Y97702D01*
X18001Y97710D01*
X18058Y97744D01*
X18118Y97769D01*
X18153Y97800D01*
X18194Y97825D01*
X18236Y97876D01*
X18284Y97920D01*
X18306Y97962D01*
X18335Y97999D01*
X18356Y98061D01*
X18387Y98120D01*
X18395Y98174D01*
X18407Y98211D01*
X18407Y98234D01*
X18407Y98236D01*
X18407Y98254D01*
X18414Y98305D01*
X18414Y113665D01*
X18403Y113730D01*
X18401Y113796D01*
X18383Y113839D01*
X18375Y113886D01*
X18341Y113943D01*
X18316Y114003D01*
X18285Y114038D01*
X18260Y114079D01*
X18209Y114121D01*
X18165Y114169D01*
X18123Y114191D01*
X18086Y114220D01*
X18024Y114241D01*
X17965Y114272D01*
X17911Y114280D01*
X17874Y114292D01*
X17834Y114291D01*
X17780Y114299D01*
X14705Y114299D01*
X14663Y114292D01*
X14621Y114294D01*
X14554Y114272D01*
X14484Y114260D01*
X14448Y114238D01*
X14407Y114225D01*
X14334Y114171D01*
X14291Y114145D01*
X14278Y114129D01*
X14257Y114113D01*
X6566Y106423D01*
X6528Y106369D01*
X6483Y106321D01*
X6465Y106277D01*
X6438Y106239D01*
X6421Y106175D01*
X6396Y106114D01*
X6394Y106067D01*
X6382Y106021D01*
X6389Y105956D01*
X6386Y105890D01*
X6400Y105845D01*
X6405Y105798D01*
X6434Y105739D01*
X6454Y105676D01*
X6487Y105632D01*
X6504Y105597D01*
X6533Y105570D01*
X6566Y105526D01*
X6798Y105294D01*
X7791Y102897D01*
X7791Y100303D01*
X6798Y97906D01*
X4964Y96072D01*
X4394Y95836D01*
X4319Y95788D01*
X4241Y95745D01*
X4225Y95728D01*
X4205Y95715D01*
X4152Y95644D01*
X4093Y95577D01*
X4084Y95554D01*
X4070Y95535D01*
X4045Y95450D01*
X4013Y95367D01*
X4013Y95343D01*
X4006Y95320D01*
X4012Y95231D01*
X4012Y95143D01*
X4020Y95120D01*
X4021Y95097D01*
X4058Y95015D01*
X4088Y94932D01*
X4103Y94914D01*
X4113Y94892D01*
X4176Y94828D01*
X4233Y94761D01*
X4256Y94747D01*
X4271Y94732D01*
X4316Y94711D01*
X4394Y94664D01*
X4964Y94428D01*
X6798Y92594D01*
X7324Y91324D01*
X7353Y91279D01*
X7373Y91229D01*
X7413Y91185D01*
X7445Y91135D01*
X7488Y91103D01*
X7525Y91063D01*
X7577Y91036D01*
X7624Y91001D01*
X7676Y90985D01*
X7724Y90960D01*
X7795Y90950D01*
X7839Y90937D01*
X7870Y90939D01*
X7910Y90933D01*
X8914Y90933D01*
X8956Y90940D01*
G37*
%LPC*%
G36*
X115384Y140139D02*
X115384Y140139D01*
X113459Y142064D01*
X113459Y148656D01*
X115384Y150581D01*
X123376Y150581D01*
X125071Y148886D01*
X125145Y148833D01*
X125215Y148773D01*
X125245Y148761D01*
X125271Y148742D01*
X125358Y148715D01*
X125443Y148681D01*
X125484Y148677D01*
X125506Y148670D01*
X125538Y148671D01*
X125610Y148663D01*
X129058Y148663D01*
X129181Y148540D01*
X129255Y148487D01*
X129324Y148427D01*
X129355Y148415D01*
X129381Y148396D01*
X129468Y148369D01*
X129553Y148335D01*
X129594Y148331D01*
X129616Y148324D01*
X129648Y148325D01*
X129719Y148317D01*
X129735Y148317D01*
X131807Y146245D01*
X131807Y143315D01*
X129735Y141243D01*
X126805Y141243D01*
X126214Y141834D01*
X126140Y141887D01*
X126071Y141947D01*
X126040Y141959D01*
X126014Y141978D01*
X125927Y142005D01*
X125842Y142039D01*
X125801Y142043D01*
X125779Y142050D01*
X125747Y142049D01*
X125676Y142057D01*
X125610Y142057D01*
X125520Y142043D01*
X125429Y142035D01*
X125399Y142023D01*
X125367Y142018D01*
X125286Y141975D01*
X125202Y141939D01*
X125170Y141913D01*
X125149Y141902D01*
X125127Y141879D01*
X125071Y141834D01*
X123376Y140139D01*
X115384Y140139D01*
G37*
%LPD*%
%LPC*%
G36*
X31564Y140139D02*
X31564Y140139D01*
X30411Y141291D01*
X30381Y141313D01*
X30366Y141329D01*
X30363Y141330D01*
X30348Y141347D01*
X30285Y141379D01*
X30227Y141420D01*
X30186Y141430D01*
X30148Y141450D01*
X30059Y141463D01*
X30010Y141476D01*
X29989Y141473D01*
X29963Y141477D01*
X28632Y141477D01*
X28590Y141470D01*
X28547Y141472D01*
X28480Y141450D01*
X28411Y141438D01*
X28374Y141416D01*
X28334Y141403D01*
X28261Y141349D01*
X28218Y141323D01*
X28206Y141309D01*
X28199Y141305D01*
X28196Y141301D01*
X28183Y141291D01*
X28135Y141243D01*
X25205Y141243D01*
X23133Y143315D01*
X23133Y146245D01*
X25205Y148317D01*
X28135Y148317D01*
X28183Y148269D01*
X28218Y148244D01*
X28247Y148213D01*
X28310Y148181D01*
X28367Y148140D01*
X28408Y148130D01*
X28446Y148110D01*
X28536Y148097D01*
X28585Y148084D01*
X28605Y148087D01*
X28632Y148083D01*
X29005Y148083D01*
X29070Y148094D01*
X29136Y148096D01*
X29179Y148114D01*
X29226Y148122D01*
X29283Y148156D01*
X29343Y148181D01*
X29378Y148212D01*
X29419Y148237D01*
X29461Y148288D01*
X29509Y148332D01*
X29531Y148374D01*
X29560Y148411D01*
X29581Y148473D01*
X29612Y148532D01*
X29620Y148586D01*
X29632Y148623D01*
X29632Y148649D01*
X31564Y150581D01*
X39556Y150581D01*
X41481Y148656D01*
X41481Y142064D01*
X39556Y140139D01*
X31564Y140139D01*
G37*
%LPD*%
D10*
X88915Y106735D02*
X88915Y114685D01*
X90865Y114685D01*
X90865Y106735D01*
X88915Y106735D01*
X88915Y107352D02*
X90865Y107352D01*
X90865Y107969D02*
X88915Y107969D01*
X88915Y108586D02*
X90865Y108586D01*
X90865Y109203D02*
X88915Y109203D01*
X88915Y109820D02*
X90865Y109820D01*
X90865Y110437D02*
X88915Y110437D01*
X88915Y111054D02*
X90865Y111054D01*
X90865Y111671D02*
X88915Y111671D01*
X88915Y112288D02*
X90865Y112288D01*
X90865Y112905D02*
X88915Y112905D01*
X88915Y113522D02*
X90865Y113522D01*
X90865Y114139D02*
X88915Y114139D01*
X83915Y114685D02*
X83915Y106735D01*
X83915Y114685D02*
X85865Y114685D01*
X85865Y106735D01*
X83915Y106735D01*
X83915Y107352D02*
X85865Y107352D01*
X85865Y107969D02*
X83915Y107969D01*
X83915Y108586D02*
X85865Y108586D01*
X85865Y109203D02*
X83915Y109203D01*
X83915Y109820D02*
X85865Y109820D01*
X85865Y110437D02*
X83915Y110437D01*
X83915Y111054D02*
X85865Y111054D01*
X85865Y111671D02*
X83915Y111671D01*
X83915Y112288D02*
X85865Y112288D01*
X85865Y112905D02*
X83915Y112905D01*
X83915Y113522D02*
X85865Y113522D01*
X85865Y114139D02*
X83915Y114139D01*
X78915Y114685D02*
X78915Y106735D01*
X78915Y114685D02*
X80865Y114685D01*
X80865Y106735D01*
X78915Y106735D01*
X78915Y107352D02*
X80865Y107352D01*
X80865Y107969D02*
X78915Y107969D01*
X78915Y108586D02*
X80865Y108586D01*
X80865Y109203D02*
X78915Y109203D01*
X78915Y109820D02*
X80865Y109820D01*
X80865Y110437D02*
X78915Y110437D01*
X78915Y111054D02*
X80865Y111054D01*
X80865Y111671D02*
X78915Y111671D01*
X78915Y112288D02*
X80865Y112288D01*
X80865Y112905D02*
X78915Y112905D01*
X78915Y113522D02*
X80865Y113522D01*
X80865Y114139D02*
X78915Y114139D01*
X73915Y114685D02*
X73915Y106735D01*
X73915Y114685D02*
X75865Y114685D01*
X75865Y106735D01*
X73915Y106735D01*
X73915Y107352D02*
X75865Y107352D01*
X75865Y107969D02*
X73915Y107969D01*
X73915Y108586D02*
X75865Y108586D01*
X75865Y109203D02*
X73915Y109203D01*
X73915Y109820D02*
X75865Y109820D01*
X75865Y110437D02*
X73915Y110437D01*
X73915Y111054D02*
X75865Y111054D01*
X75865Y111671D02*
X73915Y111671D01*
X73915Y112288D02*
X75865Y112288D01*
X75865Y112905D02*
X73915Y112905D01*
X73915Y113522D02*
X75865Y113522D01*
X75865Y114139D02*
X73915Y114139D01*
X68915Y114685D02*
X68915Y106735D01*
X68915Y114685D02*
X70865Y114685D01*
X70865Y106735D01*
X68915Y106735D01*
X68915Y107352D02*
X70865Y107352D01*
X70865Y107969D02*
X68915Y107969D01*
X68915Y108586D02*
X70865Y108586D01*
X70865Y109203D02*
X68915Y109203D01*
X68915Y109820D02*
X70865Y109820D01*
X70865Y110437D02*
X68915Y110437D01*
X68915Y111054D02*
X70865Y111054D01*
X70865Y111671D02*
X68915Y111671D01*
X68915Y112288D02*
X70865Y112288D01*
X70865Y112905D02*
X68915Y112905D01*
X68915Y113522D02*
X70865Y113522D01*
X70865Y114139D02*
X68915Y114139D01*
X63915Y114685D02*
X63915Y106735D01*
X63915Y114685D02*
X65865Y114685D01*
X65865Y106735D01*
X63915Y106735D01*
X63915Y107352D02*
X65865Y107352D01*
X65865Y107969D02*
X63915Y107969D01*
X63915Y108586D02*
X65865Y108586D01*
X65865Y109203D02*
X63915Y109203D01*
X63915Y109820D02*
X65865Y109820D01*
X65865Y110437D02*
X63915Y110437D01*
X63915Y111054D02*
X65865Y111054D01*
X65865Y111671D02*
X63915Y111671D01*
X63915Y112288D02*
X65865Y112288D01*
X65865Y112905D02*
X63915Y112905D01*
X63915Y113522D02*
X65865Y113522D01*
X65865Y114139D02*
X63915Y114139D01*
X58915Y114685D02*
X58915Y106735D01*
X58915Y114685D02*
X60865Y114685D01*
X60865Y106735D01*
X58915Y106735D01*
X58915Y107352D02*
X60865Y107352D01*
X60865Y107969D02*
X58915Y107969D01*
X58915Y108586D02*
X60865Y108586D01*
X60865Y109203D02*
X58915Y109203D01*
X58915Y109820D02*
X60865Y109820D01*
X60865Y110437D02*
X58915Y110437D01*
X58915Y111054D02*
X60865Y111054D01*
X60865Y111671D02*
X58915Y111671D01*
X58915Y112288D02*
X60865Y112288D01*
X60865Y112905D02*
X58915Y112905D01*
X58915Y113522D02*
X60865Y113522D01*
X60865Y114139D02*
X58915Y114139D01*
X53915Y114685D02*
X53915Y106735D01*
X53915Y114685D02*
X55865Y114685D01*
X55865Y106735D01*
X53915Y106735D01*
X53915Y107352D02*
X55865Y107352D01*
X55865Y107969D02*
X53915Y107969D01*
X53915Y108586D02*
X55865Y108586D01*
X55865Y109203D02*
X53915Y109203D01*
X53915Y109820D02*
X55865Y109820D01*
X55865Y110437D02*
X53915Y110437D01*
X53915Y111054D02*
X55865Y111054D01*
X55865Y111671D02*
X53915Y111671D01*
X53915Y112288D02*
X55865Y112288D01*
X55865Y112905D02*
X53915Y112905D01*
X53915Y113522D02*
X55865Y113522D01*
X55865Y114139D02*
X53915Y114139D01*
X53915Y65985D02*
X53915Y58035D01*
X53915Y65985D02*
X55865Y65985D01*
X55865Y58035D01*
X53915Y58035D01*
X53915Y58652D02*
X55865Y58652D01*
X55865Y59269D02*
X53915Y59269D01*
X53915Y59886D02*
X55865Y59886D01*
X55865Y60503D02*
X53915Y60503D01*
X53915Y61120D02*
X55865Y61120D01*
X55865Y61737D02*
X53915Y61737D01*
X53915Y62354D02*
X55865Y62354D01*
X55865Y62971D02*
X53915Y62971D01*
X53915Y63588D02*
X55865Y63588D01*
X55865Y64205D02*
X53915Y64205D01*
X53915Y64822D02*
X55865Y64822D01*
X55865Y65439D02*
X53915Y65439D01*
X58915Y65985D02*
X58915Y58035D01*
X58915Y65985D02*
X60865Y65985D01*
X60865Y58035D01*
X58915Y58035D01*
X58915Y58652D02*
X60865Y58652D01*
X60865Y59269D02*
X58915Y59269D01*
X58915Y59886D02*
X60865Y59886D01*
X60865Y60503D02*
X58915Y60503D01*
X58915Y61120D02*
X60865Y61120D01*
X60865Y61737D02*
X58915Y61737D01*
X58915Y62354D02*
X60865Y62354D01*
X60865Y62971D02*
X58915Y62971D01*
X58915Y63588D02*
X60865Y63588D01*
X60865Y64205D02*
X58915Y64205D01*
X58915Y64822D02*
X60865Y64822D01*
X60865Y65439D02*
X58915Y65439D01*
X63915Y65985D02*
X63915Y58035D01*
X63915Y65985D02*
X65865Y65985D01*
X65865Y58035D01*
X63915Y58035D01*
X63915Y58652D02*
X65865Y58652D01*
X65865Y59269D02*
X63915Y59269D01*
X63915Y59886D02*
X65865Y59886D01*
X65865Y60503D02*
X63915Y60503D01*
X63915Y61120D02*
X65865Y61120D01*
X65865Y61737D02*
X63915Y61737D01*
X63915Y62354D02*
X65865Y62354D01*
X65865Y62971D02*
X63915Y62971D01*
X63915Y63588D02*
X65865Y63588D01*
X65865Y64205D02*
X63915Y64205D01*
X63915Y64822D02*
X65865Y64822D01*
X65865Y65439D02*
X63915Y65439D01*
X68915Y65985D02*
X68915Y58035D01*
X68915Y65985D02*
X70865Y65985D01*
X70865Y58035D01*
X68915Y58035D01*
X68915Y58652D02*
X70865Y58652D01*
X70865Y59269D02*
X68915Y59269D01*
X68915Y59886D02*
X70865Y59886D01*
X70865Y60503D02*
X68915Y60503D01*
X68915Y61120D02*
X70865Y61120D01*
X70865Y61737D02*
X68915Y61737D01*
X68915Y62354D02*
X70865Y62354D01*
X70865Y62971D02*
X68915Y62971D01*
X68915Y63588D02*
X70865Y63588D01*
X70865Y64205D02*
X68915Y64205D01*
X68915Y64822D02*
X70865Y64822D01*
X70865Y65439D02*
X68915Y65439D01*
X73915Y65985D02*
X73915Y58035D01*
X73915Y65985D02*
X75865Y65985D01*
X75865Y58035D01*
X73915Y58035D01*
X73915Y58652D02*
X75865Y58652D01*
X75865Y59269D02*
X73915Y59269D01*
X73915Y59886D02*
X75865Y59886D01*
X75865Y60503D02*
X73915Y60503D01*
X73915Y61120D02*
X75865Y61120D01*
X75865Y61737D02*
X73915Y61737D01*
X73915Y62354D02*
X75865Y62354D01*
X75865Y62971D02*
X73915Y62971D01*
X73915Y63588D02*
X75865Y63588D01*
X75865Y64205D02*
X73915Y64205D01*
X73915Y64822D02*
X75865Y64822D01*
X75865Y65439D02*
X73915Y65439D01*
X78915Y65985D02*
X78915Y58035D01*
X78915Y65985D02*
X80865Y65985D01*
X80865Y58035D01*
X78915Y58035D01*
X78915Y58652D02*
X80865Y58652D01*
X80865Y59269D02*
X78915Y59269D01*
X78915Y59886D02*
X80865Y59886D01*
X80865Y60503D02*
X78915Y60503D01*
X78915Y61120D02*
X80865Y61120D01*
X80865Y61737D02*
X78915Y61737D01*
X78915Y62354D02*
X80865Y62354D01*
X80865Y62971D02*
X78915Y62971D01*
X78915Y63588D02*
X80865Y63588D01*
X80865Y64205D02*
X78915Y64205D01*
X78915Y64822D02*
X80865Y64822D01*
X80865Y65439D02*
X78915Y65439D01*
X83915Y65985D02*
X83915Y58035D01*
X83915Y65985D02*
X85865Y65985D01*
X85865Y58035D01*
X83915Y58035D01*
X83915Y58652D02*
X85865Y58652D01*
X85865Y59269D02*
X83915Y59269D01*
X83915Y59886D02*
X85865Y59886D01*
X85865Y60503D02*
X83915Y60503D01*
X83915Y61120D02*
X85865Y61120D01*
X85865Y61737D02*
X83915Y61737D01*
X83915Y62354D02*
X85865Y62354D01*
X85865Y62971D02*
X83915Y62971D01*
X83915Y63588D02*
X85865Y63588D01*
X85865Y64205D02*
X83915Y64205D01*
X83915Y64822D02*
X85865Y64822D01*
X85865Y65439D02*
X83915Y65439D01*
X88915Y65985D02*
X88915Y58035D01*
X88915Y65985D02*
X90865Y65985D01*
X90865Y58035D01*
X88915Y58035D01*
X88915Y58652D02*
X90865Y58652D01*
X90865Y59269D02*
X88915Y59269D01*
X88915Y59886D02*
X90865Y59886D01*
X90865Y60503D02*
X88915Y60503D01*
X88915Y61120D02*
X90865Y61120D01*
X90865Y61737D02*
X88915Y61737D01*
X88915Y62354D02*
X90865Y62354D01*
X90865Y62971D02*
X88915Y62971D01*
X88915Y63588D02*
X90865Y63588D01*
X90865Y64205D02*
X88915Y64205D01*
X88915Y64822D02*
X90865Y64822D01*
X90865Y65439D02*
X88915Y65439D01*
X92765Y69835D02*
X100715Y69835D01*
X100715Y67885D01*
X92765Y67885D01*
X92765Y69835D01*
X92765Y68502D02*
X100715Y68502D01*
X100715Y69119D02*
X92765Y69119D01*
X92765Y69736D02*
X100715Y69736D01*
X100715Y74835D02*
X92765Y74835D01*
X100715Y74835D02*
X100715Y72885D01*
X92765Y72885D01*
X92765Y74835D01*
X92765Y73502D02*
X100715Y73502D01*
X100715Y74119D02*
X92765Y74119D01*
X92765Y74736D02*
X100715Y74736D01*
X100715Y79835D02*
X92765Y79835D01*
X100715Y79835D02*
X100715Y77885D01*
X92765Y77885D01*
X92765Y79835D01*
X92765Y78502D02*
X100715Y78502D01*
X100715Y79119D02*
X92765Y79119D01*
X92765Y79736D02*
X100715Y79736D01*
X100715Y84835D02*
X92765Y84835D01*
X100715Y84835D02*
X100715Y82885D01*
X92765Y82885D01*
X92765Y84835D01*
X92765Y83502D02*
X100715Y83502D01*
X100715Y84119D02*
X92765Y84119D01*
X92765Y84736D02*
X100715Y84736D01*
X100715Y89835D02*
X92765Y89835D01*
X100715Y89835D02*
X100715Y87885D01*
X92765Y87885D01*
X92765Y89835D01*
X92765Y88502D02*
X100715Y88502D01*
X100715Y89119D02*
X92765Y89119D01*
X92765Y89736D02*
X100715Y89736D01*
X100715Y94835D02*
X92765Y94835D01*
X100715Y94835D02*
X100715Y92885D01*
X92765Y92885D01*
X92765Y94835D01*
X92765Y93502D02*
X100715Y93502D01*
X100715Y94119D02*
X92765Y94119D01*
X92765Y94736D02*
X100715Y94736D01*
X100715Y99835D02*
X92765Y99835D01*
X100715Y99835D02*
X100715Y97885D01*
X92765Y97885D01*
X92765Y99835D01*
X92765Y98502D02*
X100715Y98502D01*
X100715Y99119D02*
X92765Y99119D01*
X92765Y99736D02*
X100715Y99736D01*
X100715Y104835D02*
X92765Y104835D01*
X100715Y104835D02*
X100715Y102885D01*
X92765Y102885D01*
X92765Y104835D01*
X92765Y103502D02*
X100715Y103502D01*
X100715Y104119D02*
X92765Y104119D01*
X92765Y104736D02*
X100715Y104736D01*
X52015Y104835D02*
X44065Y104835D01*
X52015Y104835D02*
X52015Y102885D01*
X44065Y102885D01*
X44065Y104835D01*
X44065Y103502D02*
X52015Y103502D01*
X52015Y104119D02*
X44065Y104119D01*
X44065Y104736D02*
X52015Y104736D01*
X52015Y99835D02*
X44065Y99835D01*
X52015Y99835D02*
X52015Y97885D01*
X44065Y97885D01*
X44065Y99835D01*
X44065Y98502D02*
X52015Y98502D01*
X52015Y99119D02*
X44065Y99119D01*
X44065Y99736D02*
X52015Y99736D01*
X52015Y94835D02*
X44065Y94835D01*
X52015Y94835D02*
X52015Y92885D01*
X44065Y92885D01*
X44065Y94835D01*
X44065Y93502D02*
X52015Y93502D01*
X52015Y94119D02*
X44065Y94119D01*
X44065Y94736D02*
X52015Y94736D01*
X52015Y89835D02*
X44065Y89835D01*
X52015Y89835D02*
X52015Y87885D01*
X44065Y87885D01*
X44065Y89835D01*
X44065Y88502D02*
X52015Y88502D01*
X52015Y89119D02*
X44065Y89119D01*
X44065Y89736D02*
X52015Y89736D01*
X52015Y84835D02*
X44065Y84835D01*
X52015Y84835D02*
X52015Y82885D01*
X44065Y82885D01*
X44065Y84835D01*
X44065Y83502D02*
X52015Y83502D01*
X52015Y84119D02*
X44065Y84119D01*
X44065Y84736D02*
X52015Y84736D01*
X52015Y79835D02*
X44065Y79835D01*
X52015Y79835D02*
X52015Y77885D01*
X44065Y77885D01*
X44065Y79835D01*
X44065Y78502D02*
X52015Y78502D01*
X52015Y79119D02*
X44065Y79119D01*
X44065Y79736D02*
X52015Y79736D01*
X52015Y74835D02*
X44065Y74835D01*
X52015Y74835D02*
X52015Y72885D01*
X44065Y72885D01*
X44065Y74835D01*
X44065Y73502D02*
X52015Y73502D01*
X52015Y74119D02*
X44065Y74119D01*
X44065Y74736D02*
X52015Y74736D01*
X52015Y69835D02*
X44065Y69835D01*
X52015Y69835D02*
X52015Y67885D01*
X44065Y67885D01*
X44065Y69835D01*
X44065Y68502D02*
X52015Y68502D01*
X52015Y69119D02*
X44065Y69119D01*
X44065Y69736D02*
X52015Y69736D01*
D11*
X72390Y86360D03*
D12*
X52860Y47410D02*
X52860Y42410D01*
X43660Y42410D01*
X43660Y47410D01*
X52860Y47410D01*
X52860Y47160D02*
X43660Y47160D01*
X43660Y28710D02*
X43660Y23710D01*
X43660Y28710D02*
X52860Y28710D01*
X52860Y23710D01*
X43660Y23710D01*
X43660Y28460D02*
X52860Y28460D01*
D13*
X65096Y44914D02*
X65096Y47506D01*
X65096Y44914D02*
X61904Y44914D01*
X61904Y47506D01*
X65096Y47506D01*
X61904Y38906D02*
X61904Y36314D01*
X61904Y38906D02*
X65096Y38906D01*
X65096Y36314D01*
X61904Y36314D01*
X105736Y41104D02*
X105736Y43696D01*
X105736Y41104D02*
X102544Y41104D01*
X102544Y43696D01*
X105736Y43696D01*
X102544Y35096D02*
X102544Y32504D01*
X102544Y35096D02*
X105736Y35096D01*
X105736Y32504D01*
X102544Y32504D01*
X115896Y41104D02*
X115896Y43696D01*
X115896Y41104D02*
X112704Y41104D01*
X112704Y43696D01*
X115896Y43696D01*
X112704Y35096D02*
X112704Y32504D01*
X112704Y35096D02*
X115896Y35096D01*
X115896Y32504D01*
X112704Y32504D01*
X85416Y37294D02*
X85416Y39886D01*
X85416Y37294D02*
X82224Y37294D01*
X82224Y39886D01*
X85416Y39886D01*
X82224Y31286D02*
X82224Y28694D01*
X82224Y31286D02*
X85416Y31286D01*
X85416Y28694D01*
X82224Y28694D01*
X95576Y37294D02*
X95576Y39886D01*
X95576Y37294D02*
X92384Y37294D01*
X92384Y39886D01*
X95576Y39886D01*
X92384Y31286D02*
X92384Y28694D01*
X92384Y31286D02*
X95576Y31286D01*
X95576Y28694D01*
X92384Y28694D01*
X36076Y66984D02*
X33484Y66984D01*
X33484Y70176D01*
X36076Y70176D01*
X36076Y66984D01*
X36076Y69652D02*
X33484Y69652D01*
X27476Y70176D02*
X24884Y70176D01*
X27476Y70176D02*
X27476Y66984D01*
X24884Y66984D01*
X24884Y70176D01*
X24884Y69652D02*
X27476Y69652D01*
D14*
X32924Y127024D02*
X32924Y130896D01*
X38196Y130896D01*
X38196Y127024D01*
X32924Y127024D01*
X32924Y130852D02*
X38196Y130852D01*
X38196Y143424D02*
X38196Y147296D01*
X38196Y143424D02*
X32924Y143424D01*
X32924Y147296D01*
X38196Y147296D01*
X38196Y147252D02*
X32924Y147252D01*
X116744Y130896D02*
X116744Y127024D01*
X116744Y130896D02*
X122016Y130896D01*
X122016Y127024D01*
X116744Y127024D01*
X116744Y130852D02*
X122016Y130852D01*
X122016Y143424D02*
X122016Y147296D01*
X122016Y143424D02*
X116744Y143424D01*
X116744Y147296D01*
X122016Y147296D01*
X122016Y147252D02*
X116744Y147252D01*
D15*
X35887Y25737D02*
X35887Y20343D01*
X19993Y20343D01*
X19993Y25737D01*
X35887Y25737D01*
X35887Y25469D02*
X19993Y25469D01*
X35887Y42843D02*
X35887Y48237D01*
X35887Y42843D02*
X19993Y42843D01*
X19993Y48237D01*
X35887Y48237D01*
X35887Y47969D02*
X19993Y47969D01*
D13*
X46664Y127754D02*
X46664Y130346D01*
X49856Y130346D01*
X49856Y127754D01*
X46664Y127754D01*
X49856Y136354D02*
X49856Y138946D01*
X49856Y136354D02*
X46664Y136354D01*
X46664Y138946D01*
X49856Y138946D01*
X55554Y130346D02*
X55554Y127754D01*
X55554Y130346D02*
X58746Y130346D01*
X58746Y127754D01*
X55554Y127754D01*
X58746Y136354D02*
X58746Y138946D01*
X58746Y136354D02*
X55554Y136354D01*
X55554Y138946D01*
X58746Y138946D01*
X94924Y130346D02*
X94924Y127754D01*
X94924Y130346D02*
X98116Y130346D01*
X98116Y127754D01*
X94924Y127754D01*
X98116Y136354D02*
X98116Y138946D01*
X98116Y136354D02*
X94924Y136354D01*
X94924Y138946D01*
X98116Y138946D01*
X105084Y130346D02*
X105084Y127754D01*
X105084Y130346D02*
X108276Y130346D01*
X108276Y127754D01*
X105084Y127754D01*
X108276Y136354D02*
X108276Y138946D01*
X108276Y136354D02*
X105084Y136354D01*
X105084Y138946D01*
X108276Y138946D01*
X75256Y47506D02*
X75256Y44914D01*
X72064Y44914D01*
X72064Y47506D01*
X75256Y47506D01*
X72064Y38906D02*
X72064Y36314D01*
X72064Y38906D02*
X75256Y38906D01*
X75256Y36314D01*
X72064Y36314D01*
X27186Y7294D02*
X24594Y7294D01*
X24594Y10486D01*
X27186Y10486D01*
X27186Y7294D01*
X27186Y9962D02*
X24594Y9962D01*
X18586Y10486D02*
X15994Y10486D01*
X18586Y10486D02*
X18586Y7294D01*
X15994Y7294D01*
X15994Y10486D01*
X15994Y9962D02*
X18586Y9962D01*
D16*
X139700Y69650D03*
X139700Y44650D03*
D17*
X123790Y113930D03*
X123790Y99430D03*
X135290Y99430D03*
X135290Y113930D03*
D18*
X24720Y176570D03*
D19*
X45720Y176570D03*
D20*
X73070Y153958D02*
X75770Y153958D01*
X73070Y153958D02*
X73070Y157258D01*
X75770Y157258D01*
X75770Y153958D01*
X75770Y156523D02*
X73070Y156523D01*
X81710Y153958D02*
X84410Y153958D01*
X81710Y153958D02*
X81710Y157258D01*
X84410Y157258D01*
X84410Y153958D01*
X84410Y156523D02*
X81710Y156523D01*
X75520Y168020D02*
X72820Y168020D01*
X75520Y168020D02*
X75520Y164720D01*
X72820Y164720D01*
X72820Y168020D01*
X72820Y167285D02*
X75520Y167285D01*
X66880Y168020D02*
X64180Y168020D01*
X66880Y168020D02*
X66880Y164720D01*
X64180Y164720D01*
X64180Y168020D01*
X64180Y167285D02*
X66880Y167285D01*
X76580Y138000D02*
X76580Y135300D01*
X73280Y135300D01*
X73280Y138000D01*
X76580Y138000D01*
X76580Y137865D02*
X73280Y137865D01*
X76580Y143940D02*
X76580Y146640D01*
X76580Y143940D02*
X73280Y143940D01*
X73280Y146640D01*
X76580Y146640D01*
X76580Y146505D02*
X73280Y146505D01*
X73070Y124080D02*
X75770Y124080D01*
X73070Y124080D02*
X73070Y127380D01*
X75770Y127380D01*
X75770Y124080D01*
X75770Y126645D02*
X73070Y126645D01*
X81710Y124080D02*
X84410Y124080D01*
X81710Y124080D02*
X81710Y127380D01*
X84410Y127380D01*
X84410Y124080D01*
X84410Y126645D02*
X81710Y126645D01*
D21*
X166770Y63500D03*
X166770Y50800D03*
X166770Y38100D03*
X166770Y25400D03*
X166770Y12700D03*
X166770Y76200D03*
X166770Y88900D03*
X166770Y101600D03*
X166770Y114300D03*
X166770Y127000D03*
X1270Y63500D03*
X1270Y50800D03*
X1270Y38100D03*
X1270Y25400D03*
X1270Y12700D03*
X1270Y76200D03*
X1270Y88900D03*
X1270Y101600D03*
X1270Y114300D03*
X1270Y127000D03*
D19*
X45720Y176530D03*
D18*
X24722Y176490D03*
D22*
X115570Y7620D03*
X128270Y7620D03*
X102870Y7620D03*
X90170Y7620D03*
X140970Y7620D03*
X153670Y7620D03*
X77470Y7620D03*
D23*
X96740Y68860D02*
X105130Y68860D01*
X105410Y68580D01*
D24*
X105410Y68580D03*
D23*
X109020Y73860D02*
X96740Y73860D01*
X109020Y73860D02*
X109220Y73660D01*
D24*
X109220Y73660D03*
D23*
X105290Y78860D02*
X96740Y78860D01*
X105290Y78860D02*
X105410Y78740D01*
D24*
X105410Y78740D03*
D23*
X109180Y83860D02*
X96740Y83860D01*
X109180Y83860D02*
X109220Y83820D01*
D24*
X109220Y83820D03*
D23*
X96780Y88900D02*
X96740Y88860D01*
X96780Y88900D02*
X105410Y88900D01*
D24*
X105410Y88900D03*
X109220Y93980D03*
D23*
X96860Y93980D02*
X96740Y93860D01*
X96860Y93980D02*
X109220Y93980D01*
X64890Y110710D02*
X64770Y110830D01*
X64770Y116663D01*
X64691Y116742D02*
X58228Y121920D01*
X64691Y116742D02*
X64770Y116663D01*
X7442Y121920D02*
X2362Y127000D01*
X7442Y121920D02*
X58228Y121920D01*
X2362Y127000D02*
X1270Y127000D01*
X59690Y110910D02*
X59890Y110710D01*
X59690Y110910D02*
X59690Y115807D01*
X56371Y119126D01*
X7188Y119126D01*
X2362Y114300D01*
X1270Y114300D01*
X1270Y101600D02*
X2362Y101600D01*
X1270Y101600D02*
X2540Y102870D01*
X54890Y110710D02*
X54890Y114782D01*
X53340Y116332D01*
X13600Y116332D01*
X2362Y105094D01*
X2362Y101600D01*
X2362Y91262D02*
X2362Y88900D01*
X1270Y88900D01*
X42759Y103860D02*
X48040Y103860D01*
X10019Y88900D02*
X2362Y88900D01*
X34537Y95638D02*
X42759Y103860D01*
X34537Y95638D02*
X16757Y95638D01*
X10019Y88900D01*
X2362Y77292D02*
X2362Y76200D01*
X1270Y76200D01*
X2362Y77292D02*
X17914Y92844D01*
X35694Y92844D02*
X41910Y99060D01*
X47840Y99060D01*
X48040Y98860D01*
X35694Y92844D02*
X17914Y92844D01*
X128270Y17780D02*
X128270Y7620D01*
D24*
X128270Y17780D03*
D23*
X8890Y71120D02*
X2362Y64592D01*
X2362Y63500D01*
X8890Y71120D02*
X8890Y79869D01*
X2362Y63500D02*
X1270Y63500D01*
X36249Y89448D02*
X40711Y93909D01*
X47991Y93909D01*
X48040Y93860D01*
X18469Y89448D02*
X8890Y79869D01*
X18469Y89448D02*
X36249Y89448D01*
X115570Y17780D02*
X115570Y7620D01*
D24*
X115570Y17780D03*
D23*
X11684Y68693D02*
X11684Y78711D01*
X11684Y68693D02*
X8552Y65561D01*
X8552Y60484D01*
X2362Y54294D02*
X2362Y50800D01*
X2362Y54294D02*
X8552Y60484D01*
X2362Y50800D02*
X1270Y50800D01*
X39664Y86654D02*
X41910Y88900D01*
X48000Y88900D01*
X48040Y88860D01*
X19627Y86654D02*
X11684Y78711D01*
X19627Y86654D02*
X39664Y86654D01*
X102870Y17780D02*
X102870Y7620D01*
D24*
X102870Y17780D03*
D23*
X48000Y83820D02*
X48040Y83860D01*
X20784Y83860D01*
X14478Y77554D01*
X14478Y67535D01*
X11346Y64403D02*
X11346Y59326D01*
X8552Y56532D01*
X8552Y45382D02*
X2362Y39192D01*
X2362Y38100D01*
X11346Y64403D02*
X14478Y67535D01*
X8552Y56532D02*
X8552Y45382D01*
X2362Y38100D02*
X1270Y38100D01*
X90170Y17780D02*
X90170Y7620D01*
D24*
X90170Y17780D03*
D23*
X48040Y78860D02*
X43060Y78860D01*
X40854Y81066D01*
X21942Y81066D02*
X17272Y76397D01*
X17272Y66378D01*
X14140Y63246D02*
X14140Y58169D01*
X11346Y55375D01*
X11346Y44225D01*
X2362Y28894D02*
X2362Y25400D01*
X8552Y35084D02*
X8552Y41431D01*
X8552Y35084D02*
X2362Y28894D01*
X21942Y81066D02*
X40854Y81066D01*
X17272Y66378D02*
X14140Y63246D01*
X11346Y44225D02*
X8552Y41431D01*
X2362Y25400D02*
X1270Y25400D01*
X42980Y73860D02*
X48040Y73860D01*
X42980Y73860D02*
X38568Y78272D01*
X20066Y65221D02*
X16934Y62089D01*
X16934Y57012D01*
X14140Y54218D01*
X23099Y78272D02*
X38568Y78272D01*
X23099Y78272D02*
X20066Y75239D01*
X20066Y65221D01*
X14140Y54218D02*
X14140Y43067D01*
X11346Y40273D01*
X2362Y12700D02*
X1270Y12700D01*
X11346Y33926D02*
X11346Y40273D01*
X11346Y33926D02*
X8552Y31132D01*
X8552Y22384D01*
X2362Y16194D02*
X2362Y12700D01*
X2362Y16194D02*
X8552Y22384D01*
X89890Y110710D02*
X96740Y110710D01*
X97790Y111760D01*
D24*
X97790Y111760D03*
D23*
X77470Y17780D02*
X77470Y7620D01*
D24*
X77470Y17780D03*
X57150Y101600D03*
X87630Y101600D03*
X72390Y101600D03*
X64770Y101600D03*
X80010Y101600D03*
X57150Y71120D03*
X87630Y71120D03*
X57150Y86360D03*
X57150Y93980D03*
X57150Y78740D03*
X72390Y71120D03*
X64770Y71120D03*
X80010Y71120D03*
X87630Y86360D03*
X87630Y93980D03*
X87630Y78740D03*
X64770Y93980D03*
X72390Y93980D03*
X80010Y93980D03*
X64770Y86360D03*
X64770Y78740D03*
X72390Y86360D03*
X72390Y78740D03*
X80010Y86360D03*
X80010Y78740D03*
D25*
X80010Y93980D02*
X79890Y110710D01*
X64890Y71000D02*
X64890Y62010D01*
X64890Y71000D02*
X64770Y71120D01*
D26*
X26180Y68580D02*
X26180Y61740D01*
X25400Y60960D01*
D24*
X25400Y60960D03*
D26*
X48260Y137650D02*
X57150Y137650D01*
D24*
X48260Y144780D03*
D26*
X48260Y137650D01*
D25*
X83820Y29990D02*
X83820Y22860D01*
X93980Y22860D02*
X93980Y29990D01*
X104140Y26670D02*
X104140Y33800D01*
X114300Y33800D02*
X114300Y26670D01*
X73660Y30480D02*
X73660Y37610D01*
X63500Y37610D02*
X63500Y30480D01*
D24*
X63500Y30480D03*
X73660Y30480D03*
X83820Y22860D03*
X93980Y22860D03*
X104140Y26670D03*
X114300Y26670D03*
D25*
X96520Y137650D02*
X96520Y144780D01*
X106680Y144780D02*
X106680Y137650D01*
D24*
X96520Y144780D03*
X106680Y144780D03*
D26*
X48260Y26210D02*
X48260Y16510D01*
D24*
X48260Y16510D03*
D25*
X79890Y110710D02*
X79890Y122560D01*
X83060Y125730D01*
X83060Y155608D02*
X89568Y155608D01*
X90170Y156210D01*
D24*
X90170Y156210D03*
D25*
X17290Y8890D02*
X10160Y8890D01*
D24*
X10160Y8890D03*
X24654Y176352D03*
D23*
X24720Y176412D02*
X24720Y176570D01*
X24720Y176412D02*
X24661Y176352D01*
D24*
X5080Y176530D03*
X5080Y168910D03*
X5080Y160020D03*
X5080Y151130D03*
X5080Y142240D03*
X12700Y176530D03*
X12700Y168910D03*
X12700Y160020D03*
X12700Y151130D03*
X12700Y142240D03*
X20320Y168910D03*
X27940Y168910D03*
X35560Y168910D03*
X20320Y160020D03*
X27940Y160020D03*
X35560Y160020D03*
X43180Y158750D03*
X35560Y176530D03*
X54610Y176530D03*
X163830Y176530D03*
X154940Y176530D03*
X144780Y176530D03*
X134620Y176530D03*
X124460Y176530D03*
X114300Y176530D03*
X102870Y168910D03*
X92710Y176530D03*
X82550Y176530D03*
X63500Y176530D03*
X85090Y168910D03*
X114300Y168910D03*
X124460Y168910D03*
X134620Y168910D03*
X144780Y168910D03*
X154940Y168910D03*
X163830Y168910D03*
X96520Y153670D03*
X114300Y153670D03*
X124460Y153670D03*
X134620Y153670D03*
X144780Y153670D03*
X154940Y153670D03*
X163830Y153670D03*
X138430Y144780D03*
X154940Y144780D03*
X163830Y144780D03*
X138430Y137160D03*
X154940Y137160D03*
X163830Y137160D03*
X138430Y127000D03*
X154940Y127000D03*
X58420Y5080D03*
X49530Y5080D03*
X102870Y176530D03*
X102870Y161290D03*
X124460Y161290D03*
X134620Y161290D03*
X144780Y161290D03*
X154940Y161290D03*
X163830Y161290D03*
X41910Y165100D03*
X20320Y151130D03*
X12700Y134620D03*
X146050Y144780D03*
X146050Y137160D03*
X146050Y127000D03*
D23*
X24720Y176417D02*
X24720Y176570D01*
X24720Y176417D02*
X24654Y176352D01*
D24*
X66040Y129540D03*
X83820Y148590D03*
X83820Y133350D03*
X114300Y161290D03*
X102870Y153670D03*
X85090Y162560D03*
X129540Y127000D03*
X129540Y137160D03*
X97790Y121920D03*
X104140Y121920D03*
D25*
X135290Y113930D02*
X142610Y113930D01*
X143510Y113030D01*
D24*
X143510Y113030D03*
D25*
X123790Y99430D02*
X116470Y99430D01*
X115570Y100330D01*
D24*
X115570Y100330D03*
X50800Y158750D03*
X66040Y158750D03*
X58420Y158750D03*
X66040Y152400D03*
X66040Y144780D03*
X58420Y152400D03*
X58420Y144780D03*
X50800Y152400D03*
X92710Y168910D03*
X93980Y162560D03*
X66040Y137160D03*
X154940Y116840D03*
X154940Y109220D03*
X153670Y100330D03*
X154940Y36830D03*
X154940Y49530D03*
X73660Y176530D03*
X129540Y35560D03*
X154940Y80010D03*
X12700Y106680D03*
X8890Y95250D03*
X27940Y33020D03*
X43180Y152400D03*
X83820Y140970D03*
X12700Y127000D03*
X67310Y5080D03*
X67310Y13970D03*
D25*
X48260Y44910D02*
X48661Y45972D01*
X83820Y39440D02*
X83820Y38590D01*
D26*
X104140Y42400D02*
X109220Y42400D01*
X114300Y42400D01*
X93980Y38590D02*
X88900Y38590D01*
X83820Y38590D01*
D25*
X79890Y57270D02*
X79890Y62010D01*
X79890Y57270D02*
X86360Y50800D01*
D24*
X59690Y53340D03*
X54610Y53340D03*
D26*
X48260Y46990D02*
X48260Y44910D01*
X48260Y46990D02*
X50165Y48895D01*
X55880Y46210D02*
X63500Y46210D01*
X55880Y46210D02*
X52850Y46210D01*
X50165Y48895D01*
X49530Y48720D02*
X53340Y52530D01*
X49530Y48720D02*
X49530Y46180D01*
X48260Y44910D01*
X54610Y51260D02*
X54610Y53340D01*
X58420Y53340D01*
X63500Y46990D02*
X63500Y46210D01*
X63500Y46990D02*
X63500Y47480D01*
X58420Y52560D01*
X58420Y53340D01*
X58420Y51290D02*
X58420Y48750D01*
X55880Y46210D01*
X55880Y49990D01*
X54610Y51260D01*
X53340Y52530D01*
D25*
X59890Y53540D02*
X59890Y62010D01*
X59890Y53540D02*
X59690Y53340D01*
X59890Y49820D02*
X63500Y46210D01*
X59890Y49820D02*
X59890Y53540D01*
X60960Y53340D02*
X63500Y50800D01*
X60960Y53340D02*
X59690Y53340D01*
X63500Y50800D02*
X63500Y46990D01*
X86360Y50800D02*
X96520Y50800D01*
X103650Y42400D02*
X104140Y42400D01*
D26*
X109220Y42400D02*
X109220Y47480D01*
X108975Y47235D02*
X104140Y42400D01*
X109220Y47480D02*
X114300Y42400D01*
X88900Y43670D02*
X88900Y44940D01*
X88900Y43670D02*
X88900Y38590D01*
X88020Y42790D02*
X83820Y38590D01*
X87385Y43425D02*
X88900Y44940D01*
X88900Y45720D01*
X88900Y43670D02*
X93980Y38590D01*
D24*
X88900Y45720D03*
D25*
X96520Y50800D02*
X99819Y47713D01*
X103117Y44627D01*
X103117Y43357D02*
X104140Y42400D01*
X83820Y39860D02*
X83820Y38590D01*
X83820Y39860D02*
X83358Y41386D01*
X82548Y44065D01*
X81386Y47908D01*
X81035Y49072D01*
X80730Y50081D01*
X74890Y55920D02*
X74890Y62010D01*
X74890Y55920D02*
X80730Y50081D01*
X83820Y45720D02*
X84386Y45720D01*
X83820Y45720D02*
X83575Y45720D01*
X81386Y47908D01*
X87385Y43425D02*
X88020Y42790D01*
X87385Y43425D02*
X86745Y44065D01*
X82548Y44065D01*
X85090Y45720D02*
X88900Y45720D01*
X85090Y45720D02*
X84386Y45720D01*
X81035Y49072D01*
X80730Y50081D02*
X85090Y45720D01*
D24*
X83820Y45720D03*
D25*
X83820Y41848D01*
X83358Y41386D01*
X96520Y50800D02*
X100330Y50800D01*
X101600Y50800D01*
X104140Y50800D02*
X107950Y50800D01*
X104140Y50800D02*
X101600Y50800D01*
X104140Y50800D02*
X107705Y47235D01*
X108975Y47235D01*
X107705Y47235D02*
X105165Y47235D01*
X101600Y50800D01*
X100330Y50800D02*
X101600Y49530D01*
X103117Y48013D02*
X103117Y44627D01*
X103117Y43357D01*
X104140Y46990D02*
X103117Y48013D01*
D24*
X101600Y49530D03*
D25*
X100330Y50800D02*
X100330Y48225D01*
X99819Y47713D01*
X107950Y50800D02*
X114300Y44450D01*
X114300Y42400D01*
X107950Y48260D02*
X107950Y50800D01*
X107950Y48260D02*
X108975Y47235D01*
D24*
X106680Y49530D03*
D25*
X103117Y48013D02*
X101600Y49530D01*
X104140Y46990D02*
X104140Y42400D01*
X140970Y22860D02*
X140970Y7620D01*
D24*
X140970Y22860D03*
D25*
X35060Y68860D02*
X34780Y68580D01*
X35060Y68860D02*
X48040Y68860D01*
D26*
X107953Y129005D02*
X119380Y128960D01*
D25*
X84890Y117919D02*
X84890Y110710D01*
X84890Y117919D02*
X96520Y129050D01*
D26*
X107908Y129050D01*
X107953Y129005D01*
X106680Y129050D02*
X119290Y129050D01*
X119380Y128960D01*
D25*
X69837Y118886D02*
X69890Y110710D01*
X69837Y118886D02*
X57150Y129050D01*
D26*
X44457Y129000D01*
X44447Y129010D01*
X35610Y129010D02*
X35560Y128960D01*
X35610Y129010D02*
X44447Y129010D01*
X48260Y129050D02*
X57150Y129050D01*
D25*
X72834Y47036D02*
X73660Y46210D01*
X69882Y62002D02*
X69890Y62010D01*
D26*
X34980Y144780D02*
X35560Y145360D01*
X34980Y144780D02*
X26670Y144780D01*
D24*
X26670Y144780D03*
D26*
X119380Y145360D02*
X127690Y145360D01*
X128270Y144780D01*
D24*
X128270Y144780D03*
D26*
X27940Y23040D02*
X27450Y22550D01*
X25890Y13970D02*
X25890Y8890D01*
X25890Y13970D02*
X25890Y17290D01*
X25890Y20320D02*
X25890Y20990D01*
X27940Y23040D01*
X25890Y8890D02*
X30970Y8890D01*
X33020Y8890D01*
X34290Y8890D01*
X30970Y8890D02*
X25890Y13970D01*
X25890Y17290D02*
X34290Y8890D01*
X25890Y17290D02*
X25890Y20320D01*
X34290Y8890D02*
X38100Y8890D01*
X33020Y13970D01*
X26670Y20320D01*
X25890Y20320D01*
D24*
X38100Y8890D03*
X33020Y8890D03*
X33020Y13970D03*
X69850Y53340D03*
D25*
X69890Y53380D02*
X69890Y62010D01*
X69890Y53380D02*
X69850Y53340D01*
X73366Y46770D02*
X73660Y46210D01*
X73366Y46770D02*
X69890Y53380D01*
X73366Y46504D02*
X73660Y46210D01*
X73366Y46504D02*
X73366Y46770D01*
X73366Y48260D01*
X70673Y52151D02*
X69850Y53340D01*
X70673Y52151D02*
X73366Y48260D01*
X73660Y46210D02*
X70673Y52151D01*
X54610Y62010D02*
X53340Y62010D01*
X54890Y58420D02*
X42836Y58420D01*
X42776Y58420D01*
X54890Y58420D02*
X54890Y62010D01*
D27*
X45882Y60777D02*
X42776Y58420D01*
X42836Y58420D02*
X34477Y52077D01*
X27940Y45540D01*
X45882Y60777D02*
X53340Y62010D01*
D23*
X139545Y44805D02*
X139700Y44650D01*
X84890Y56940D02*
X84890Y62010D01*
X84890Y56940D02*
X87728Y54102D01*
X112889Y54102D01*
X122341Y44650D02*
X139700Y44650D01*
X122341Y44650D02*
X112889Y54102D01*
X89890Y60706D02*
X89890Y62010D01*
X89890Y60706D02*
X112776Y60706D01*
X121720Y69650D02*
X139700Y69650D01*
X121720Y69650D02*
X112776Y60706D01*
D25*
X74890Y110710D02*
X74890Y125715D01*
X74420Y125730D01*
X74930Y126240D01*
X74930Y136650D01*
X74930Y145290D02*
X74930Y155098D01*
X74420Y155608D01*
X74170Y155858D01*
X74170Y166370D01*
D26*
X45720Y176530D02*
X45720Y176570D01*
X45720Y176530D02*
X45723Y176284D01*
X45732Y176039D01*
X45747Y175794D01*
X45767Y175549D01*
X45794Y175305D01*
X45827Y175062D01*
X45865Y174819D01*
X45909Y174578D01*
X45959Y174338D01*
X46015Y174099D01*
X46077Y173861D01*
X46144Y173625D01*
X46217Y173390D01*
X46296Y173158D01*
X46380Y172927D01*
X46470Y172699D01*
X46565Y172472D01*
X46666Y172249D01*
X46772Y172027D01*
X46884Y171808D01*
X47000Y171592D01*
X47122Y171379D01*
X47249Y171169D01*
X47381Y170962D01*
X47518Y170758D01*
X47660Y170558D01*
X47807Y170361D01*
X47959Y170168D01*
X48115Y169978D01*
X48275Y169793D01*
X48440Y169611D01*
X48610Y169433D01*
X48783Y169260D01*
X48961Y169090D01*
X49143Y168925D01*
X49328Y168765D01*
X49518Y168609D01*
X49711Y168457D01*
X49908Y168310D01*
X50108Y168168D01*
X50312Y168031D01*
X50519Y167899D01*
X50729Y167772D01*
X50942Y167650D01*
X51158Y167534D01*
X51377Y167422D01*
X51599Y167316D01*
X51822Y167215D01*
X52049Y167120D01*
X52277Y167030D01*
X52508Y166946D01*
X52740Y166867D01*
X52975Y166794D01*
X53211Y166727D01*
X53449Y166665D01*
X53688Y166609D01*
X53928Y166559D01*
X54169Y166515D01*
X54412Y166477D01*
X54655Y166444D01*
X54899Y166417D01*
X55144Y166397D01*
X55389Y166382D01*
X55634Y166373D01*
X55880Y166370D01*
X65530Y166370D01*
D23*
X96940Y99060D02*
X96740Y98860D01*
X96940Y99060D02*
X106680Y99060D01*
X114300Y106680D01*
X135290Y103470D02*
X135290Y99430D01*
X132080Y106680D02*
X114300Y106680D01*
X132080Y106680D02*
X135290Y103470D01*
X123790Y113930D02*
X123700Y114020D01*
X106400Y103860D02*
X96740Y103860D01*
X106400Y103860D02*
X116840Y114300D01*
X123420Y114300D01*
X123790Y113930D01*
M02*
