G04 EAGLE Gerber RS-274X export*
G75*
%MOMM*%
%FSLAX34Y34*%
%LPD*%
%INCopper Layer 2*%
%IPPOS*%
%AMOC8*
5,1,8,0,0,1.08239X$1,22.5*%
G01*
%ADD10C,1.050000*%
%ADD11C,0.453200*%
%ADD12C,0.152400*%

G36*
X165580Y2012D02*
X165580Y2012D01*
X165646Y2014D01*
X165689Y2032D01*
X165736Y2040D01*
X165793Y2074D01*
X165853Y2099D01*
X165888Y2130D01*
X165929Y2155D01*
X165971Y2206D01*
X166019Y2250D01*
X166041Y2292D01*
X166070Y2329D01*
X166091Y2391D01*
X166122Y2450D01*
X166130Y2504D01*
X166142Y2541D01*
X166141Y2581D01*
X166149Y2635D01*
X166149Y18245D01*
X166138Y18310D01*
X166136Y18376D01*
X166118Y18419D01*
X166110Y18466D01*
X166076Y18523D01*
X166051Y18583D01*
X166020Y18618D01*
X165995Y18659D01*
X165944Y18701D01*
X165900Y18749D01*
X165858Y18771D01*
X165821Y18800D01*
X165759Y18821D01*
X165700Y18852D01*
X165646Y18860D01*
X165609Y18872D01*
X165569Y18871D01*
X165515Y18879D01*
X165473Y18879D01*
X163076Y19872D01*
X161242Y21706D01*
X160249Y24103D01*
X160249Y26697D01*
X161242Y29094D01*
X163076Y30928D01*
X165473Y31921D01*
X165515Y31921D01*
X165580Y31932D01*
X165646Y31934D01*
X165689Y31952D01*
X165736Y31960D01*
X165793Y31994D01*
X165853Y32019D01*
X165888Y32050D01*
X165929Y32075D01*
X165971Y32126D01*
X166019Y32170D01*
X166041Y32212D01*
X166070Y32249D01*
X166091Y32311D01*
X166122Y32370D01*
X166130Y32424D01*
X166142Y32461D01*
X166141Y32501D01*
X166149Y32555D01*
X166149Y43645D01*
X166138Y43710D01*
X166136Y43776D01*
X166118Y43819D01*
X166110Y43866D01*
X166076Y43923D01*
X166051Y43983D01*
X166020Y44018D01*
X165995Y44059D01*
X165944Y44101D01*
X165900Y44149D01*
X165858Y44171D01*
X165821Y44200D01*
X165759Y44221D01*
X165700Y44252D01*
X165646Y44260D01*
X165609Y44272D01*
X165569Y44271D01*
X165515Y44279D01*
X165473Y44279D01*
X163076Y45272D01*
X161242Y47106D01*
X160249Y49503D01*
X160249Y52097D01*
X161242Y54494D01*
X163076Y56328D01*
X163646Y56564D01*
X163721Y56612D01*
X163799Y56655D01*
X163815Y56672D01*
X163835Y56685D01*
X163888Y56756D01*
X163947Y56823D01*
X163956Y56846D01*
X163970Y56865D01*
X163995Y56950D01*
X164027Y57033D01*
X164027Y57057D01*
X164034Y57080D01*
X164028Y57169D01*
X164028Y57257D01*
X164020Y57280D01*
X164019Y57303D01*
X163982Y57385D01*
X163952Y57468D01*
X163937Y57486D01*
X163927Y57508D01*
X163864Y57572D01*
X163807Y57639D01*
X163784Y57653D01*
X163769Y57668D01*
X163724Y57689D01*
X163646Y57736D01*
X163076Y57972D01*
X161242Y59806D01*
X160249Y62203D01*
X160249Y64797D01*
X161242Y67194D01*
X163076Y69028D01*
X163646Y69264D01*
X163721Y69312D01*
X163799Y69354D01*
X163815Y69372D01*
X163835Y69385D01*
X163888Y69456D01*
X163947Y69523D01*
X163956Y69546D01*
X163970Y69564D01*
X163995Y69650D01*
X164027Y69733D01*
X164027Y69757D01*
X164034Y69780D01*
X164028Y69868D01*
X164029Y69957D01*
X164020Y69980D01*
X164019Y70003D01*
X163982Y70084D01*
X163952Y70168D01*
X163937Y70187D01*
X163927Y70208D01*
X163864Y70272D01*
X163807Y70339D01*
X163784Y70353D01*
X163769Y70368D01*
X163724Y70389D01*
X163646Y70436D01*
X163076Y70672D01*
X161242Y72506D01*
X160249Y74903D01*
X160249Y77497D01*
X161242Y79894D01*
X163076Y81728D01*
X163646Y81964D01*
X163721Y82012D01*
X163799Y82054D01*
X163809Y82066D01*
X163816Y82070D01*
X163822Y82077D01*
X163835Y82085D01*
X163888Y82156D01*
X163947Y82223D01*
X163953Y82238D01*
X163958Y82244D01*
X163960Y82252D01*
X163970Y82264D01*
X163995Y82350D01*
X164027Y82433D01*
X164027Y82449D01*
X164030Y82457D01*
X164029Y82465D01*
X164034Y82480D01*
X164028Y82568D01*
X164029Y82657D01*
X164023Y82672D01*
X164023Y82681D01*
X164020Y82689D01*
X164019Y82703D01*
X163982Y82784D01*
X163952Y82868D01*
X163942Y82880D01*
X163939Y82889D01*
X163932Y82896D01*
X163927Y82908D01*
X163864Y82972D01*
X163807Y83039D01*
X163794Y83047D01*
X163787Y83055D01*
X163778Y83059D01*
X163769Y83068D01*
X163724Y83089D01*
X163646Y83136D01*
X163076Y83372D01*
X161242Y85206D01*
X160249Y87603D01*
X160249Y90197D01*
X161242Y92594D01*
X163076Y94428D01*
X163646Y94664D01*
X163721Y94712D01*
X163799Y94754D01*
X163815Y94772D01*
X163835Y94785D01*
X163888Y94856D01*
X163947Y94923D01*
X163956Y94946D01*
X163970Y94964D01*
X163995Y95050D01*
X164027Y95133D01*
X164027Y95157D01*
X164034Y95180D01*
X164028Y95268D01*
X164029Y95357D01*
X164020Y95380D01*
X164019Y95403D01*
X163982Y95484D01*
X163952Y95568D01*
X163937Y95587D01*
X163927Y95608D01*
X163864Y95672D01*
X163807Y95739D01*
X163784Y95753D01*
X163769Y95768D01*
X163724Y95789D01*
X163646Y95836D01*
X163076Y96072D01*
X161242Y97906D01*
X160249Y100303D01*
X160249Y102897D01*
X161242Y105294D01*
X163076Y107128D01*
X163646Y107364D01*
X163721Y107412D01*
X163799Y107454D01*
X163815Y107472D01*
X163835Y107485D01*
X163888Y107556D01*
X163947Y107623D01*
X163956Y107646D01*
X163970Y107664D01*
X163995Y107750D01*
X164027Y107833D01*
X164027Y107857D01*
X164034Y107880D01*
X164028Y107968D01*
X164029Y108057D01*
X164020Y108080D01*
X164019Y108103D01*
X163982Y108184D01*
X163952Y108268D01*
X163937Y108287D01*
X163927Y108308D01*
X163864Y108372D01*
X163807Y108439D01*
X163784Y108453D01*
X163769Y108468D01*
X163724Y108489D01*
X163646Y108536D01*
X163076Y108772D01*
X161242Y110606D01*
X160249Y113003D01*
X160249Y115597D01*
X161242Y117994D01*
X163076Y119828D01*
X163646Y120064D01*
X163721Y120112D01*
X163799Y120154D01*
X163815Y120172D01*
X163835Y120185D01*
X163888Y120256D01*
X163947Y120323D01*
X163956Y120346D01*
X163970Y120364D01*
X163995Y120450D01*
X164027Y120533D01*
X164027Y120557D01*
X164034Y120580D01*
X164028Y120668D01*
X164029Y120757D01*
X164020Y120780D01*
X164019Y120803D01*
X163982Y120884D01*
X163952Y120968D01*
X163937Y120987D01*
X163927Y121008D01*
X163864Y121072D01*
X163807Y121139D01*
X163784Y121153D01*
X163769Y121168D01*
X163724Y121189D01*
X163646Y121236D01*
X163076Y121472D01*
X161242Y123306D01*
X160249Y125703D01*
X160249Y128297D01*
X161242Y130694D01*
X163076Y132528D01*
X165473Y133521D01*
X165515Y133521D01*
X165580Y133532D01*
X165646Y133534D01*
X165689Y133552D01*
X165736Y133560D01*
X165793Y133594D01*
X165853Y133619D01*
X165888Y133650D01*
X165929Y133675D01*
X165971Y133726D01*
X166019Y133770D01*
X166041Y133812D01*
X166070Y133849D01*
X166091Y133911D01*
X166122Y133970D01*
X166130Y134024D01*
X166142Y134061D01*
X166141Y134101D01*
X166149Y134155D01*
X166149Y171450D01*
X166138Y171515D01*
X166136Y171581D01*
X166118Y171624D01*
X166110Y171671D01*
X166076Y171728D01*
X166051Y171788D01*
X166020Y171823D01*
X165995Y171864D01*
X165944Y171906D01*
X165900Y171954D01*
X165858Y171976D01*
X165821Y172005D01*
X165759Y172026D01*
X165700Y172057D01*
X165646Y172065D01*
X165609Y172077D01*
X165569Y172076D01*
X165515Y172084D01*
X2635Y172084D01*
X2570Y172073D01*
X2504Y172071D01*
X2461Y172053D01*
X2414Y172045D01*
X2357Y172011D01*
X2297Y171986D01*
X2262Y171955D01*
X2221Y171930D01*
X2179Y171879D01*
X2131Y171835D01*
X2109Y171793D01*
X2080Y171756D01*
X2059Y171694D01*
X2028Y171635D01*
X2020Y171581D01*
X2008Y171544D01*
X2009Y171504D01*
X2001Y171450D01*
X2001Y134155D01*
X2012Y134090D01*
X2014Y134024D01*
X2032Y133981D01*
X2040Y133934D01*
X2074Y133877D01*
X2099Y133817D01*
X2130Y133782D01*
X2155Y133741D01*
X2206Y133699D01*
X2250Y133651D01*
X2292Y133629D01*
X2329Y133600D01*
X2391Y133579D01*
X2450Y133548D01*
X2504Y133540D01*
X2541Y133528D01*
X2550Y133528D01*
X4964Y132528D01*
X6798Y130694D01*
X7791Y128297D01*
X7791Y125703D01*
X6798Y123306D01*
X4964Y121472D01*
X4394Y121236D01*
X4319Y121188D01*
X4241Y121145D01*
X4225Y121128D01*
X4205Y121115D01*
X4152Y121044D01*
X4093Y120977D01*
X4084Y120954D01*
X4070Y120935D01*
X4045Y120850D01*
X4013Y120767D01*
X4013Y120743D01*
X4006Y120720D01*
X4012Y120631D01*
X4012Y120543D01*
X4020Y120520D01*
X4021Y120497D01*
X4058Y120415D01*
X4088Y120332D01*
X4103Y120313D01*
X4113Y120292D01*
X4176Y120228D01*
X4233Y120161D01*
X4256Y120147D01*
X4271Y120132D01*
X4316Y120111D01*
X4394Y120064D01*
X4964Y119828D01*
X6798Y117994D01*
X7791Y115597D01*
X7791Y113003D01*
X6798Y110606D01*
X4964Y108772D01*
X4394Y108536D01*
X4319Y108488D01*
X4241Y108445D01*
X4225Y108428D01*
X4205Y108415D01*
X4152Y108344D01*
X4093Y108277D01*
X4084Y108254D01*
X4070Y108235D01*
X4045Y108150D01*
X4013Y108067D01*
X4013Y108043D01*
X4006Y108020D01*
X4012Y107931D01*
X4012Y107843D01*
X4020Y107820D01*
X4021Y107797D01*
X4058Y107715D01*
X4088Y107632D01*
X4103Y107613D01*
X4113Y107592D01*
X4176Y107528D01*
X4233Y107461D01*
X4256Y107447D01*
X4271Y107432D01*
X4316Y107411D01*
X4394Y107364D01*
X4964Y107128D01*
X6798Y105294D01*
X7791Y102897D01*
X7791Y100303D01*
X6798Y97906D01*
X4964Y96072D01*
X4394Y95836D01*
X4319Y95788D01*
X4241Y95745D01*
X4225Y95728D01*
X4205Y95715D01*
X4152Y95644D01*
X4093Y95577D01*
X4084Y95554D01*
X4070Y95535D01*
X4045Y95450D01*
X4013Y95367D01*
X4013Y95343D01*
X4006Y95320D01*
X4012Y95231D01*
X4012Y95143D01*
X4020Y95120D01*
X4021Y95097D01*
X4058Y95015D01*
X4088Y94932D01*
X4103Y94913D01*
X4113Y94892D01*
X4176Y94828D01*
X4233Y94761D01*
X4256Y94747D01*
X4271Y94732D01*
X4316Y94711D01*
X4394Y94664D01*
X4964Y94428D01*
X6798Y92594D01*
X7791Y90197D01*
X7791Y87603D01*
X6798Y85206D01*
X4964Y83372D01*
X4394Y83136D01*
X4319Y83088D01*
X4241Y83045D01*
X4233Y83036D01*
X4224Y83031D01*
X4217Y83022D01*
X4205Y83015D01*
X4152Y82944D01*
X4093Y82877D01*
X4088Y82864D01*
X4082Y82857D01*
X4079Y82847D01*
X4070Y82835D01*
X4045Y82750D01*
X4013Y82667D01*
X4013Y82652D01*
X4010Y82644D01*
X4011Y82635D01*
X4006Y82620D01*
X4012Y82531D01*
X4012Y82443D01*
X4017Y82428D01*
X4017Y82420D01*
X4020Y82412D01*
X4021Y82397D01*
X4058Y82315D01*
X4088Y82232D01*
X4098Y82220D01*
X4101Y82212D01*
X4107Y82206D01*
X4113Y82192D01*
X4176Y82128D01*
X4233Y82061D01*
X4248Y82052D01*
X4253Y82046D01*
X4260Y82043D01*
X4271Y82032D01*
X4316Y82011D01*
X4394Y81964D01*
X4964Y81728D01*
X6798Y79894D01*
X7791Y77497D01*
X7791Y74903D01*
X6798Y72506D01*
X4964Y70672D01*
X4394Y70436D01*
X4319Y70388D01*
X4241Y70345D01*
X4225Y70328D01*
X4205Y70315D01*
X4152Y70244D01*
X4093Y70177D01*
X4084Y70154D01*
X4070Y70135D01*
X4045Y70050D01*
X4013Y69967D01*
X4013Y69943D01*
X4006Y69920D01*
X4012Y69831D01*
X4012Y69743D01*
X4020Y69720D01*
X4021Y69697D01*
X4058Y69615D01*
X4088Y69532D01*
X4103Y69514D01*
X4113Y69492D01*
X4176Y69428D01*
X4233Y69361D01*
X4256Y69347D01*
X4271Y69332D01*
X4316Y69311D01*
X4394Y69264D01*
X4964Y69028D01*
X6798Y67194D01*
X7791Y64797D01*
X7791Y62203D01*
X6798Y59806D01*
X4964Y57972D01*
X4394Y57736D01*
X4319Y57688D01*
X4241Y57646D01*
X4225Y57628D01*
X4205Y57615D01*
X4152Y57544D01*
X4093Y57477D01*
X4084Y57454D01*
X4070Y57436D01*
X4045Y57350D01*
X4013Y57267D01*
X4013Y57243D01*
X4006Y57220D01*
X4012Y57132D01*
X4011Y57043D01*
X4020Y57020D01*
X4021Y56997D01*
X4058Y56916D01*
X4088Y56832D01*
X4103Y56813D01*
X4113Y56792D01*
X4176Y56728D01*
X4233Y56661D01*
X4256Y56647D01*
X4271Y56632D01*
X4316Y56611D01*
X4394Y56564D01*
X4964Y56328D01*
X6798Y54494D01*
X7791Y52097D01*
X7791Y49503D01*
X6798Y47106D01*
X4964Y45272D01*
X4394Y45036D01*
X4319Y44988D01*
X4241Y44946D01*
X4225Y44928D01*
X4205Y44915D01*
X4152Y44844D01*
X4093Y44777D01*
X4084Y44754D01*
X4070Y44736D01*
X4045Y44650D01*
X4013Y44567D01*
X4013Y44543D01*
X4006Y44520D01*
X4012Y44432D01*
X4011Y44343D01*
X4020Y44320D01*
X4021Y44297D01*
X4058Y44216D01*
X4088Y44132D01*
X4103Y44113D01*
X4113Y44092D01*
X4176Y44028D01*
X4233Y43961D01*
X4256Y43947D01*
X4271Y43932D01*
X4316Y43911D01*
X4394Y43864D01*
X4964Y43628D01*
X6798Y41794D01*
X7791Y39397D01*
X7791Y36803D01*
X6798Y34406D01*
X4964Y32572D01*
X4394Y32336D01*
X4319Y32288D01*
X4241Y32246D01*
X4225Y32228D01*
X4205Y32215D01*
X4152Y32144D01*
X4093Y32077D01*
X4084Y32054D01*
X4070Y32036D01*
X4045Y31950D01*
X4013Y31867D01*
X4013Y31843D01*
X4006Y31820D01*
X4012Y31732D01*
X4011Y31643D01*
X4020Y31620D01*
X4021Y31597D01*
X4058Y31516D01*
X4088Y31432D01*
X4103Y31413D01*
X4113Y31392D01*
X4176Y31328D01*
X4233Y31261D01*
X4256Y31247D01*
X4271Y31232D01*
X4316Y31211D01*
X4394Y31164D01*
X4964Y30928D01*
X6798Y29094D01*
X7791Y26697D01*
X7791Y24103D01*
X6798Y21706D01*
X4964Y19872D01*
X4394Y19636D01*
X4319Y19588D01*
X4241Y19546D01*
X4225Y19528D01*
X4205Y19515D01*
X4152Y19444D01*
X4093Y19377D01*
X4084Y19354D01*
X4070Y19336D01*
X4045Y19250D01*
X4013Y19167D01*
X4013Y19143D01*
X4006Y19120D01*
X4012Y19032D01*
X4011Y18943D01*
X4020Y18920D01*
X4021Y18897D01*
X4058Y18816D01*
X4088Y18732D01*
X4103Y18713D01*
X4113Y18692D01*
X4176Y18628D01*
X4233Y18561D01*
X4256Y18547D01*
X4271Y18532D01*
X4316Y18511D01*
X4394Y18464D01*
X4964Y18228D01*
X6798Y16394D01*
X7791Y13997D01*
X7791Y11403D01*
X6798Y9006D01*
X4964Y7172D01*
X2537Y6167D01*
X2504Y6166D01*
X2461Y6148D01*
X2414Y6140D01*
X2357Y6106D01*
X2297Y6081D01*
X2262Y6050D01*
X2221Y6025D01*
X2179Y5974D01*
X2131Y5930D01*
X2109Y5888D01*
X2080Y5851D01*
X2059Y5789D01*
X2028Y5730D01*
X2020Y5676D01*
X2008Y5639D01*
X2009Y5599D01*
X2001Y5545D01*
X2001Y2635D01*
X2012Y2570D01*
X2014Y2504D01*
X2032Y2461D01*
X2040Y2414D01*
X2074Y2357D01*
X2099Y2297D01*
X2130Y2262D01*
X2155Y2221D01*
X2206Y2179D01*
X2250Y2131D01*
X2292Y2109D01*
X2329Y2080D01*
X2391Y2059D01*
X2450Y2028D01*
X2504Y2020D01*
X2541Y2008D01*
X2581Y2009D01*
X2635Y2001D01*
X165515Y2001D01*
X165580Y2012D01*
G37*
%LPC*%
G36*
X82978Y5587D02*
X82978Y5587D01*
X75437Y13128D01*
X75437Y14548D01*
X75430Y14590D01*
X75432Y14633D01*
X75410Y14700D01*
X75398Y14769D01*
X75376Y14806D01*
X75363Y14846D01*
X75309Y14919D01*
X75283Y14962D01*
X75267Y14976D01*
X75251Y14997D01*
X73933Y16315D01*
X73933Y19245D01*
X76005Y21317D01*
X78935Y21317D01*
X81007Y19245D01*
X81007Y16315D01*
X79952Y15260D01*
X79914Y15206D01*
X79869Y15158D01*
X79851Y15115D01*
X79824Y15076D01*
X79807Y15012D01*
X79782Y14951D01*
X79779Y14904D01*
X79768Y14859D01*
X79774Y14793D01*
X79772Y14727D01*
X79786Y14682D01*
X79791Y14635D01*
X79820Y14576D01*
X79840Y14514D01*
X79873Y14470D01*
X79890Y14434D01*
X79919Y14407D01*
X79952Y14363D01*
X84476Y9839D01*
X84511Y9814D01*
X84540Y9783D01*
X84603Y9751D01*
X84660Y9710D01*
X84702Y9700D01*
X84739Y9680D01*
X84829Y9667D01*
X84878Y9654D01*
X84899Y9657D01*
X84925Y9653D01*
X115735Y9653D01*
X115777Y9660D01*
X115819Y9658D01*
X115887Y9680D01*
X115956Y9692D01*
X115993Y9714D01*
X116033Y9727D01*
X116106Y9781D01*
X116149Y9807D01*
X116163Y9823D01*
X116184Y9839D01*
X119701Y13356D01*
X119726Y13391D01*
X119757Y13420D01*
X119789Y13483D01*
X119830Y13540D01*
X119840Y13582D01*
X119860Y13619D01*
X119873Y13709D01*
X119886Y13758D01*
X119883Y13778D01*
X119887Y13805D01*
X119887Y15564D01*
X119871Y15652D01*
X119862Y15741D01*
X119852Y15762D01*
X119848Y15785D01*
X119802Y15862D01*
X119763Y15942D01*
X119746Y15958D01*
X119733Y15978D01*
X119664Y16035D01*
X119600Y16096D01*
X119578Y16105D01*
X119559Y16120D01*
X119475Y16148D01*
X119393Y16183D01*
X119369Y16184D01*
X119347Y16192D01*
X119258Y16189D01*
X119169Y16193D01*
X119146Y16186D01*
X119122Y16185D01*
X119040Y16152D01*
X118955Y16124D01*
X118934Y16109D01*
X118915Y16101D01*
X118877Y16067D01*
X118805Y16013D01*
X117035Y14243D01*
X114105Y14243D01*
X112033Y16315D01*
X112033Y19245D01*
X114105Y21317D01*
X117035Y21317D01*
X118805Y19547D01*
X118878Y19496D01*
X118947Y19440D01*
X118969Y19433D01*
X118989Y19419D01*
X119075Y19397D01*
X119159Y19368D01*
X119183Y19369D01*
X119206Y19363D01*
X119295Y19372D01*
X119384Y19375D01*
X119406Y19384D01*
X119429Y19386D01*
X119509Y19426D01*
X119591Y19459D01*
X119609Y19475D01*
X119630Y19486D01*
X119691Y19551D01*
X119757Y19611D01*
X119768Y19632D01*
X119784Y19649D01*
X119819Y19731D01*
X119860Y19810D01*
X119863Y19836D01*
X119872Y19856D01*
X119874Y19906D01*
X119887Y19996D01*
X119887Y106845D01*
X119880Y106887D01*
X119882Y106929D01*
X119860Y106997D01*
X119848Y107066D01*
X119826Y107103D01*
X119813Y107143D01*
X119759Y107216D01*
X119733Y107259D01*
X119717Y107273D01*
X119701Y107294D01*
X117454Y109541D01*
X117419Y109566D01*
X117390Y109597D01*
X117327Y109629D01*
X117270Y109670D01*
X117228Y109680D01*
X117191Y109700D01*
X117101Y109713D01*
X117052Y109726D01*
X117032Y109723D01*
X117005Y109727D01*
X101022Y109727D01*
X100980Y109720D01*
X100937Y109722D01*
X100870Y109700D01*
X100801Y109688D01*
X100764Y109666D01*
X100724Y109653D01*
X100651Y109599D01*
X100608Y109573D01*
X100594Y109557D01*
X100573Y109541D01*
X99255Y108223D01*
X96325Y108223D01*
X94253Y110295D01*
X94253Y113225D01*
X96325Y115297D01*
X99255Y115297D01*
X100573Y113979D01*
X100608Y113954D01*
X100637Y113923D01*
X100700Y113891D01*
X100757Y113850D01*
X100798Y113840D01*
X100836Y113820D01*
X100926Y113807D01*
X100975Y113794D01*
X100995Y113797D01*
X101022Y113793D01*
X118952Y113793D01*
X123953Y108792D01*
X123953Y19996D01*
X123969Y19908D01*
X123978Y19819D01*
X123988Y19798D01*
X123992Y19775D01*
X124038Y19698D01*
X124077Y19618D01*
X124094Y19602D01*
X124107Y19582D01*
X124176Y19525D01*
X124240Y19464D01*
X124262Y19455D01*
X124281Y19440D01*
X124365Y19412D01*
X124447Y19377D01*
X124471Y19376D01*
X124493Y19368D01*
X124582Y19371D01*
X124671Y19367D01*
X124694Y19374D01*
X124718Y19375D01*
X124800Y19408D01*
X124885Y19436D01*
X124906Y19451D01*
X124925Y19459D01*
X124963Y19493D01*
X125035Y19547D01*
X126805Y21317D01*
X129735Y21317D01*
X131807Y19245D01*
X131807Y16315D01*
X129735Y14243D01*
X126805Y14243D01*
X125035Y16013D01*
X124962Y16064D01*
X124893Y16120D01*
X124871Y16127D01*
X124851Y16141D01*
X124765Y16163D01*
X124681Y16192D01*
X124657Y16191D01*
X124634Y16197D01*
X124545Y16188D01*
X124456Y16185D01*
X124434Y16176D01*
X124411Y16174D01*
X124331Y16134D01*
X124249Y16101D01*
X124231Y16085D01*
X124210Y16074D01*
X124149Y16009D01*
X124083Y15949D01*
X124072Y15928D01*
X124056Y15911D01*
X124021Y15829D01*
X123980Y15750D01*
X123977Y15724D01*
X123968Y15704D01*
X123966Y15654D01*
X123953Y15564D01*
X123953Y11858D01*
X117682Y5587D01*
X82978Y5587D01*
G37*
%LPD*%
%LPC*%
G36*
X31555Y5353D02*
X31555Y5353D01*
X29483Y7425D01*
X29483Y10355D01*
X30110Y10981D01*
X30147Y11036D01*
X30193Y11083D01*
X30211Y11127D01*
X30238Y11166D01*
X30254Y11229D01*
X30280Y11290D01*
X30282Y11337D01*
X30294Y11383D01*
X30287Y11448D01*
X30290Y11514D01*
X30276Y11559D01*
X30271Y11606D01*
X30242Y11665D01*
X30221Y11728D01*
X30189Y11772D01*
X30171Y11807D01*
X30142Y11834D01*
X30110Y11878D01*
X29483Y12505D01*
X29483Y15435D01*
X31555Y17507D01*
X34485Y17507D01*
X36557Y15435D01*
X36557Y13061D01*
X36568Y12996D01*
X36570Y12930D01*
X36588Y12887D01*
X36596Y12840D01*
X36630Y12783D01*
X36655Y12723D01*
X36686Y12688D01*
X36711Y12647D01*
X36762Y12605D01*
X36806Y12557D01*
X36848Y12535D01*
X36885Y12506D01*
X36947Y12485D01*
X37006Y12454D01*
X37060Y12446D01*
X37097Y12434D01*
X37137Y12435D01*
X37191Y12427D01*
X39565Y12427D01*
X41637Y10355D01*
X41637Y7425D01*
X39565Y5353D01*
X36635Y5353D01*
X36009Y5980D01*
X35954Y6017D01*
X35907Y6063D01*
X35863Y6081D01*
X35824Y6108D01*
X35761Y6124D01*
X35700Y6150D01*
X35653Y6152D01*
X35607Y6164D01*
X35542Y6157D01*
X35476Y6160D01*
X35431Y6146D01*
X35384Y6141D01*
X35325Y6112D01*
X35262Y6091D01*
X35218Y6059D01*
X35183Y6041D01*
X35156Y6012D01*
X35112Y5980D01*
X34485Y5353D01*
X31555Y5353D01*
G37*
%LPD*%
%LPC*%
G36*
X53145Y49803D02*
X53145Y49803D01*
X51073Y51875D01*
X51073Y54805D01*
X53145Y56877D01*
X56075Y56877D01*
X56702Y56250D01*
X56756Y56213D01*
X56803Y56167D01*
X56847Y56149D01*
X56886Y56122D01*
X56949Y56106D01*
X57010Y56080D01*
X57057Y56078D01*
X57103Y56066D01*
X57168Y56073D01*
X57234Y56070D01*
X57279Y56084D01*
X57326Y56089D01*
X57385Y56119D01*
X57448Y56139D01*
X57492Y56171D01*
X57527Y56189D01*
X57554Y56217D01*
X57599Y56250D01*
X58225Y56877D01*
X61155Y56877D01*
X63227Y54805D01*
X63227Y51875D01*
X61155Y49803D01*
X58225Y49803D01*
X57599Y50430D01*
X57544Y50467D01*
X57497Y50513D01*
X57453Y50531D01*
X57414Y50558D01*
X57351Y50574D01*
X57290Y50600D01*
X57243Y50602D01*
X57197Y50614D01*
X57132Y50607D01*
X57066Y50610D01*
X57021Y50596D01*
X56974Y50591D01*
X56915Y50562D01*
X56852Y50541D01*
X56808Y50509D01*
X56773Y50491D01*
X56746Y50462D01*
X56702Y50430D01*
X56075Y49803D01*
X53145Y49803D01*
G37*
%LPD*%
%LPC*%
G36*
X100135Y45993D02*
X100135Y45993D01*
X98063Y48065D01*
X98063Y50995D01*
X100135Y53067D01*
X103065Y53067D01*
X103691Y52440D01*
X103746Y52403D01*
X103793Y52357D01*
X103837Y52339D01*
X103876Y52312D01*
X103939Y52296D01*
X104000Y52270D01*
X104047Y52268D01*
X104093Y52256D01*
X104158Y52263D01*
X104224Y52260D01*
X104269Y52274D01*
X104316Y52279D01*
X104375Y52308D01*
X104438Y52329D01*
X104482Y52361D01*
X104517Y52379D01*
X104544Y52408D01*
X104588Y52440D01*
X105215Y53067D01*
X108145Y53067D01*
X110217Y50995D01*
X110217Y48065D01*
X108145Y45993D01*
X105215Y45993D01*
X104588Y46620D01*
X104534Y46657D01*
X104487Y46703D01*
X104443Y46721D01*
X104404Y46748D01*
X104341Y46764D01*
X104280Y46790D01*
X104233Y46792D01*
X104187Y46804D01*
X104122Y46797D01*
X104056Y46800D01*
X104011Y46786D01*
X103964Y46781D01*
X103905Y46751D01*
X103842Y46731D01*
X103798Y46699D01*
X103763Y46681D01*
X103736Y46653D01*
X103691Y46620D01*
X103065Y45993D01*
X100135Y45993D01*
G37*
%LPD*%
%LPC*%
G36*
X82355Y42183D02*
X82355Y42183D01*
X80283Y44255D01*
X80283Y47185D01*
X82355Y49257D01*
X85285Y49257D01*
X85912Y48630D01*
X85966Y48593D01*
X86013Y48547D01*
X86057Y48529D01*
X86096Y48502D01*
X86159Y48486D01*
X86220Y48460D01*
X86267Y48458D01*
X86313Y48446D01*
X86378Y48453D01*
X86444Y48450D01*
X86489Y48464D01*
X86536Y48469D01*
X86595Y48499D01*
X86658Y48519D01*
X86702Y48551D01*
X86737Y48569D01*
X86764Y48597D01*
X86809Y48630D01*
X87435Y49257D01*
X90365Y49257D01*
X92437Y47185D01*
X92437Y44255D01*
X90365Y42183D01*
X87435Y42183D01*
X86809Y42810D01*
X86754Y42847D01*
X86707Y42893D01*
X86663Y42911D01*
X86624Y42938D01*
X86561Y42954D01*
X86500Y42980D01*
X86453Y42982D01*
X86407Y42994D01*
X86342Y42987D01*
X86276Y42990D01*
X86231Y42976D01*
X86184Y42971D01*
X86125Y42942D01*
X86062Y42921D01*
X86018Y42889D01*
X85983Y42871D01*
X85956Y42842D01*
X85912Y42810D01*
X85285Y42183D01*
X82355Y42183D01*
G37*
%LPD*%
%LPC*%
G36*
X126805Y141243D02*
X126805Y141243D01*
X124733Y143315D01*
X124733Y146245D01*
X126805Y148317D01*
X129735Y148317D01*
X131807Y146245D01*
X131807Y143315D01*
X129735Y141243D01*
X126805Y141243D01*
G37*
%LPD*%
%LPC*%
G36*
X25205Y141243D02*
X25205Y141243D01*
X23133Y143315D01*
X23133Y146245D01*
X25205Y148317D01*
X28135Y148317D01*
X30207Y146245D01*
X30207Y143315D01*
X28135Y141243D01*
X25205Y141243D01*
G37*
%LPD*%
%LPC*%
G36*
X68385Y49803D02*
X68385Y49803D01*
X66313Y51875D01*
X66313Y54805D01*
X68385Y56877D01*
X71315Y56877D01*
X73387Y54805D01*
X73387Y51875D01*
X71315Y49803D01*
X68385Y49803D01*
G37*
%LPD*%
%LPC*%
G36*
X139505Y19323D02*
X139505Y19323D01*
X137433Y21395D01*
X137433Y24325D01*
X139505Y26397D01*
X142435Y26397D01*
X144507Y24325D01*
X144507Y21395D01*
X142435Y19323D01*
X139505Y19323D01*
G37*
%LPD*%
%LPC*%
G36*
X101405Y14243D02*
X101405Y14243D01*
X99333Y16315D01*
X99333Y19245D01*
X101405Y21317D01*
X104335Y21317D01*
X106407Y19245D01*
X106407Y16315D01*
X104335Y14243D01*
X101405Y14243D01*
G37*
%LPD*%
%LPC*%
G36*
X88705Y14243D02*
X88705Y14243D01*
X86633Y16315D01*
X86633Y19245D01*
X88705Y21317D01*
X91635Y21317D01*
X93707Y19245D01*
X93707Y16315D01*
X91635Y14243D01*
X88705Y14243D01*
G37*
%LPD*%
D10*
X166770Y63500D03*
X166770Y50800D03*
X166770Y38100D03*
X166770Y25400D03*
X166770Y12700D03*
X166770Y76200D03*
X166770Y88900D03*
X166770Y101600D03*
X166770Y114300D03*
X166770Y127000D03*
X1270Y63500D03*
X1270Y50800D03*
X1270Y38100D03*
X1270Y25400D03*
X1270Y12700D03*
X1270Y76200D03*
X1270Y88900D03*
X1270Y101600D03*
X1270Y114300D03*
X1270Y127000D03*
D11*
X128270Y17780D03*
X115570Y17780D03*
X102870Y17780D03*
X90170Y17780D03*
X97790Y111760D03*
D12*
X118110Y111760D01*
X121920Y107950D01*
X121920Y12700D01*
X116840Y7620D01*
X83820Y7620D01*
X77470Y13970D01*
X77470Y17780D01*
D11*
X77470Y17780D03*
X57150Y101600D03*
X87630Y101600D03*
X72390Y101600D03*
X64770Y101600D03*
X80010Y101600D03*
X57150Y71120D03*
X87630Y71120D03*
X57150Y86360D03*
X57150Y93980D03*
X57150Y78740D03*
X72390Y71120D03*
X64770Y71120D03*
X80010Y71120D03*
X87630Y86360D03*
X87630Y93980D03*
X87630Y78740D03*
X64770Y93980D03*
X72390Y93980D03*
X80010Y93980D03*
X64770Y86360D03*
X64770Y78740D03*
X72390Y86360D03*
X72390Y78740D03*
X80010Y86360D03*
X80010Y78740D03*
X25400Y60960D03*
X48260Y144780D03*
X63500Y30480D03*
X73660Y30480D03*
X83820Y22860D03*
X93980Y22860D03*
X104140Y26670D03*
X114300Y26670D03*
X96520Y144780D03*
X106680Y144780D03*
X48260Y16510D03*
X90170Y156210D03*
X10160Y8890D03*
X25899Y169073D03*
X5080Y160020D03*
X5080Y151130D03*
X5080Y142240D03*
X12700Y160020D03*
X12700Y151130D03*
X12700Y142240D03*
X20320Y160020D03*
X27940Y160020D03*
X35560Y160020D03*
X96520Y153670D03*
X114300Y153670D03*
X124460Y153670D03*
X134620Y153670D03*
X144780Y153670D03*
X154940Y153670D03*
X163830Y153670D03*
X138430Y144780D03*
X154940Y144780D03*
X163830Y144780D03*
X138430Y137160D03*
X154940Y137160D03*
X163830Y137160D03*
X138430Y127000D03*
X154940Y127000D03*
X124460Y161290D03*
X134620Y161290D03*
X144780Y161290D03*
X154940Y161290D03*
X163830Y161290D03*
X20320Y151130D03*
X12700Y134620D03*
X146050Y144780D03*
X146050Y137160D03*
X146050Y127000D03*
X66040Y129540D03*
X83820Y148590D03*
X83820Y133350D03*
X114300Y161290D03*
X102870Y153670D03*
X129540Y127000D03*
X129540Y137160D03*
X148590Y113030D03*
X116840Y97790D03*
X66040Y144780D03*
X58420Y144780D03*
X66040Y137160D03*
X27940Y33020D03*
X83820Y140970D03*
X12700Y127000D03*
X114300Y168910D03*
X124460Y168910D03*
X134620Y168910D03*
X144780Y168910D03*
X154940Y168910D03*
X163830Y168910D03*
X102870Y168910D03*
X102870Y161290D03*
X91440Y168910D03*
X81280Y168910D03*
X69850Y168910D03*
X58420Y168910D03*
X36830Y168910D03*
X5080Y168910D03*
X12700Y168910D03*
X58420Y163830D03*
X69850Y163830D03*
X81280Y163830D03*
X59690Y53340D03*
X54610Y53340D03*
X88900Y45720D03*
X83820Y45720D03*
X101600Y49530D03*
X106680Y49530D03*
X140970Y22860D03*
X26670Y144780D03*
X128270Y144780D03*
X38100Y8890D03*
X33020Y8890D03*
X33020Y13970D03*
X69850Y53340D03*
M02*
