G04 EAGLE Gerber RS-274X export*
G75*
%MOMM*%
%FSLAX34Y34*%
%LPD*%
%INSilkscreen Bottom*%
%IPPOS*%
%AMOC8*
5,1,8,0,0,1.08239X$1,22.5*%
G01*
%ADD10C,0.152400*%


D10*
X29078Y8194D02*
X26877Y14798D01*
X24675Y8194D01*
X25226Y9845D02*
X28528Y9845D01*
X21396Y11496D02*
X21394Y11641D01*
X21388Y11786D01*
X21379Y11931D01*
X21365Y12076D01*
X21348Y12220D01*
X21326Y12363D01*
X21301Y12507D01*
X21272Y12649D01*
X21240Y12790D01*
X21203Y12931D01*
X21163Y13070D01*
X21119Y13209D01*
X21072Y13346D01*
X21021Y13482D01*
X20966Y13616D01*
X20908Y13749D01*
X20846Y13881D01*
X20847Y13881D02*
X20821Y13950D01*
X20792Y14017D01*
X20759Y14083D01*
X20723Y14146D01*
X20683Y14208D01*
X20640Y14267D01*
X20594Y14324D01*
X20545Y14378D01*
X20493Y14430D01*
X20438Y14479D01*
X20381Y14524D01*
X20321Y14567D01*
X20259Y14606D01*
X20196Y14642D01*
X20130Y14675D01*
X20063Y14703D01*
X19994Y14729D01*
X19924Y14750D01*
X19853Y14768D01*
X19781Y14781D01*
X19708Y14791D01*
X19635Y14797D01*
X19562Y14799D01*
X19562Y14798D02*
X19489Y14796D01*
X19416Y14790D01*
X19343Y14780D01*
X19272Y14767D01*
X19200Y14749D01*
X19130Y14728D01*
X19062Y14702D01*
X18994Y14674D01*
X18929Y14641D01*
X18865Y14605D01*
X18803Y14566D01*
X18744Y14524D01*
X18687Y14478D01*
X18632Y14429D01*
X18580Y14378D01*
X18531Y14323D01*
X18485Y14266D01*
X18442Y14207D01*
X18402Y14146D01*
X18366Y14082D01*
X18333Y14017D01*
X18304Y13950D01*
X18278Y13881D01*
X18277Y13881D02*
X18215Y13749D01*
X18157Y13616D01*
X18102Y13482D01*
X18051Y13346D01*
X18004Y13209D01*
X17960Y13070D01*
X17920Y12931D01*
X17883Y12790D01*
X17851Y12649D01*
X17822Y12507D01*
X17797Y12364D01*
X17775Y12220D01*
X17758Y12076D01*
X17744Y11931D01*
X17735Y11786D01*
X17729Y11641D01*
X17727Y11496D01*
X21396Y11496D02*
X21394Y11351D01*
X21388Y11206D01*
X21379Y11061D01*
X21365Y10916D01*
X21348Y10772D01*
X21326Y10629D01*
X21301Y10486D01*
X21273Y10343D01*
X21240Y10202D01*
X21203Y10061D01*
X21163Y9922D01*
X21119Y9783D01*
X21072Y9646D01*
X21021Y9510D01*
X20966Y9376D01*
X20908Y9243D01*
X20846Y9111D01*
X20847Y9112D02*
X20821Y9043D01*
X20792Y8976D01*
X20759Y8910D01*
X20723Y8847D01*
X20683Y8785D01*
X20640Y8726D01*
X20594Y8669D01*
X20545Y8615D01*
X20493Y8563D01*
X20438Y8514D01*
X20381Y8469D01*
X20321Y8426D01*
X20259Y8387D01*
X20196Y8351D01*
X20130Y8318D01*
X20063Y8290D01*
X19994Y8264D01*
X19924Y8243D01*
X19853Y8225D01*
X19781Y8212D01*
X19708Y8202D01*
X19635Y8196D01*
X19562Y8194D01*
X18277Y9111D02*
X18215Y9243D01*
X18157Y9376D01*
X18102Y9510D01*
X18051Y9646D01*
X18004Y9783D01*
X17960Y9922D01*
X17920Y10061D01*
X17883Y10202D01*
X17851Y10343D01*
X17822Y10485D01*
X17797Y10628D01*
X17775Y10772D01*
X17758Y10916D01*
X17744Y11061D01*
X17735Y11206D01*
X17729Y11351D01*
X17727Y11496D01*
X18278Y9111D02*
X18304Y9042D01*
X18333Y8975D01*
X18366Y8910D01*
X18402Y8846D01*
X18442Y8785D01*
X18485Y8726D01*
X18531Y8669D01*
X18580Y8614D01*
X18632Y8563D01*
X18687Y8514D01*
X18744Y8468D01*
X18803Y8426D01*
X18865Y8387D01*
X18929Y8351D01*
X18994Y8318D01*
X19062Y8290D01*
X19130Y8264D01*
X19200Y8243D01*
X19272Y8225D01*
X19343Y8212D01*
X19416Y8202D01*
X19489Y8196D01*
X19562Y8194D01*
X21029Y9662D02*
X18094Y13330D01*
X14081Y11863D02*
X11880Y11863D01*
X11806Y11861D01*
X11731Y11855D01*
X11658Y11846D01*
X11584Y11833D01*
X11512Y11816D01*
X11441Y11796D01*
X11370Y11772D01*
X11301Y11744D01*
X11234Y11713D01*
X11168Y11679D01*
X11103Y11641D01*
X11041Y11600D01*
X10981Y11556D01*
X10924Y11509D01*
X10869Y11459D01*
X10816Y11406D01*
X10766Y11351D01*
X10719Y11294D01*
X10675Y11234D01*
X10634Y11172D01*
X10596Y11107D01*
X10562Y11041D01*
X10531Y10974D01*
X10503Y10905D01*
X10479Y10834D01*
X10459Y10763D01*
X10442Y10691D01*
X10429Y10617D01*
X10420Y10544D01*
X10414Y10469D01*
X10412Y10395D01*
X10412Y10028D01*
X10414Y9943D01*
X10420Y9859D01*
X10430Y9775D01*
X10443Y9691D01*
X10461Y9608D01*
X10482Y9526D01*
X10507Y9445D01*
X10536Y9365D01*
X10568Y9287D01*
X10604Y9211D01*
X10644Y9136D01*
X10687Y9063D01*
X10733Y8992D01*
X10782Y8923D01*
X10835Y8856D01*
X10891Y8792D01*
X10949Y8731D01*
X11010Y8673D01*
X11074Y8617D01*
X11141Y8564D01*
X11210Y8515D01*
X11281Y8469D01*
X11354Y8426D01*
X11429Y8386D01*
X11505Y8350D01*
X11583Y8318D01*
X11663Y8289D01*
X11744Y8264D01*
X11826Y8243D01*
X11909Y8225D01*
X11993Y8212D01*
X12077Y8202D01*
X12161Y8196D01*
X12246Y8194D01*
X12331Y8196D01*
X12415Y8202D01*
X12499Y8212D01*
X12583Y8225D01*
X12666Y8243D01*
X12748Y8264D01*
X12829Y8289D01*
X12909Y8318D01*
X12987Y8350D01*
X13063Y8386D01*
X13138Y8426D01*
X13211Y8469D01*
X13282Y8515D01*
X13351Y8564D01*
X13418Y8617D01*
X13482Y8673D01*
X13543Y8731D01*
X13601Y8792D01*
X13657Y8856D01*
X13710Y8923D01*
X13759Y8992D01*
X13805Y9063D01*
X13848Y9136D01*
X13888Y9211D01*
X13924Y9287D01*
X13956Y9365D01*
X13985Y9445D01*
X14010Y9526D01*
X14031Y9608D01*
X14049Y9691D01*
X14062Y9775D01*
X14072Y9859D01*
X14078Y9943D01*
X14080Y10028D01*
X14081Y10028D02*
X14081Y11863D01*
X14079Y11970D01*
X14073Y12077D01*
X14063Y12184D01*
X14050Y12290D01*
X14032Y12396D01*
X14011Y12501D01*
X13986Y12605D01*
X13957Y12709D01*
X13924Y12811D01*
X13887Y12911D01*
X13847Y13011D01*
X13803Y13109D01*
X13756Y13205D01*
X13705Y13299D01*
X13651Y13392D01*
X13594Y13482D01*
X13533Y13571D01*
X13469Y13657D01*
X13402Y13740D01*
X13332Y13822D01*
X13259Y13900D01*
X13183Y13976D01*
X13105Y14049D01*
X13023Y14119D01*
X12940Y14186D01*
X12854Y14250D01*
X12765Y14311D01*
X12675Y14368D01*
X12582Y14422D01*
X12488Y14473D01*
X12392Y14520D01*
X12294Y14564D01*
X12195Y14604D01*
X12094Y14641D01*
X11992Y14674D01*
X11888Y14703D01*
X11784Y14728D01*
X11679Y14749D01*
X11573Y14767D01*
X11467Y14780D01*
X11360Y14790D01*
X11253Y14796D01*
X11146Y14798D01*
X153809Y13641D02*
X154910Y13641D01*
X153809Y13641D02*
X153809Y9972D01*
X156010Y9972D01*
X156084Y9974D01*
X156159Y9980D01*
X156232Y9989D01*
X156306Y10002D01*
X156378Y10019D01*
X156449Y10039D01*
X156520Y10063D01*
X156589Y10091D01*
X156657Y10122D01*
X156722Y10156D01*
X156787Y10194D01*
X156849Y10235D01*
X156909Y10279D01*
X156966Y10326D01*
X157021Y10376D01*
X157074Y10429D01*
X157124Y10484D01*
X157171Y10541D01*
X157215Y10601D01*
X157256Y10663D01*
X157294Y10728D01*
X157328Y10794D01*
X157359Y10861D01*
X157387Y10930D01*
X157411Y11001D01*
X157431Y11072D01*
X157448Y11145D01*
X157461Y11218D01*
X157470Y11292D01*
X157476Y11366D01*
X157478Y11440D01*
X157478Y15108D01*
X157476Y15182D01*
X157470Y15257D01*
X157461Y15330D01*
X157448Y15403D01*
X157431Y15476D01*
X157411Y15547D01*
X157387Y15618D01*
X157359Y15687D01*
X157328Y15754D01*
X157294Y15820D01*
X157256Y15885D01*
X157215Y15947D01*
X157171Y16007D01*
X157124Y16064D01*
X157074Y16119D01*
X157021Y16172D01*
X156966Y16222D01*
X156909Y16269D01*
X156849Y16313D01*
X156787Y16354D01*
X156722Y16392D01*
X156657Y16426D01*
X156589Y16457D01*
X156520Y16485D01*
X156450Y16509D01*
X156378Y16529D01*
X156306Y16546D01*
X156232Y16559D01*
X156159Y16568D01*
X156084Y16574D01*
X156010Y16576D01*
X153809Y16576D01*
X149675Y16576D02*
X149675Y9972D01*
X146006Y9972D02*
X149675Y16576D01*
X146006Y16576D02*
X146006Y9972D01*
X141872Y9972D02*
X141872Y16576D01*
X140038Y16576D01*
X139953Y16574D01*
X139869Y16568D01*
X139785Y16558D01*
X139701Y16545D01*
X139618Y16527D01*
X139536Y16506D01*
X139455Y16481D01*
X139375Y16452D01*
X139297Y16420D01*
X139221Y16384D01*
X139146Y16344D01*
X139073Y16301D01*
X139002Y16255D01*
X138933Y16206D01*
X138866Y16153D01*
X138802Y16097D01*
X138741Y16039D01*
X138683Y15978D01*
X138627Y15914D01*
X138574Y15847D01*
X138525Y15778D01*
X138479Y15707D01*
X138436Y15634D01*
X138396Y15559D01*
X138360Y15483D01*
X138328Y15405D01*
X138299Y15325D01*
X138274Y15244D01*
X138253Y15162D01*
X138235Y15079D01*
X138222Y14995D01*
X138212Y14911D01*
X138206Y14827D01*
X138204Y14742D01*
X138203Y14742D02*
X138203Y11806D01*
X138204Y11806D02*
X138206Y11721D01*
X138212Y11637D01*
X138222Y11553D01*
X138235Y11469D01*
X138253Y11386D01*
X138274Y11304D01*
X138299Y11223D01*
X138328Y11143D01*
X138360Y11065D01*
X138396Y10989D01*
X138436Y10914D01*
X138479Y10841D01*
X138525Y10770D01*
X138574Y10701D01*
X138627Y10634D01*
X138683Y10570D01*
X138741Y10509D01*
X138802Y10451D01*
X138866Y10395D01*
X138933Y10342D01*
X139002Y10293D01*
X139073Y10247D01*
X139146Y10204D01*
X139221Y10164D01*
X139297Y10128D01*
X139375Y10096D01*
X139455Y10067D01*
X139536Y10042D01*
X139618Y10021D01*
X139701Y10003D01*
X139785Y9990D01*
X139869Y9980D01*
X139953Y9974D01*
X140038Y9972D01*
X141872Y9972D01*
X155644Y22672D02*
X157478Y22672D01*
X155644Y22672D02*
X155559Y22674D01*
X155475Y22680D01*
X155391Y22690D01*
X155307Y22703D01*
X155224Y22721D01*
X155142Y22742D01*
X155061Y22767D01*
X154981Y22796D01*
X154903Y22828D01*
X154827Y22864D01*
X154752Y22904D01*
X154679Y22947D01*
X154608Y22993D01*
X154539Y23042D01*
X154472Y23095D01*
X154408Y23151D01*
X154347Y23209D01*
X154289Y23270D01*
X154233Y23334D01*
X154180Y23401D01*
X154131Y23470D01*
X154085Y23541D01*
X154042Y23614D01*
X154002Y23689D01*
X153966Y23765D01*
X153934Y23843D01*
X153905Y23923D01*
X153880Y24004D01*
X153859Y24086D01*
X153841Y24169D01*
X153828Y24253D01*
X153818Y24337D01*
X153812Y24421D01*
X153810Y24506D01*
X153812Y24591D01*
X153818Y24675D01*
X153828Y24759D01*
X153841Y24843D01*
X153859Y24926D01*
X153880Y25008D01*
X153905Y25089D01*
X153934Y25169D01*
X153966Y25247D01*
X154002Y25323D01*
X154042Y25398D01*
X154085Y25471D01*
X154131Y25542D01*
X154180Y25611D01*
X154233Y25678D01*
X154289Y25742D01*
X154347Y25803D01*
X154408Y25861D01*
X154472Y25917D01*
X154539Y25970D01*
X154608Y26019D01*
X154679Y26065D01*
X154752Y26108D01*
X154827Y26148D01*
X154903Y26184D01*
X154981Y26216D01*
X155061Y26245D01*
X155142Y26270D01*
X155224Y26291D01*
X155307Y26309D01*
X155391Y26322D01*
X155475Y26332D01*
X155559Y26338D01*
X155644Y26340D01*
X155277Y29276D02*
X157478Y29276D01*
X155277Y29276D02*
X155201Y29274D01*
X155126Y29268D01*
X155051Y29259D01*
X154977Y29245D01*
X154903Y29228D01*
X154831Y29206D01*
X154759Y29182D01*
X154689Y29153D01*
X154621Y29121D01*
X154554Y29086D01*
X154489Y29047D01*
X154426Y29004D01*
X154366Y28959D01*
X154308Y28911D01*
X154252Y28859D01*
X154200Y28805D01*
X154150Y28748D01*
X154103Y28689D01*
X154059Y28628D01*
X154018Y28564D01*
X153981Y28498D01*
X153947Y28430D01*
X153917Y28361D01*
X153890Y28290D01*
X153867Y28218D01*
X153848Y28145D01*
X153833Y28071D01*
X153821Y27996D01*
X153813Y27921D01*
X153809Y27846D01*
X153809Y27770D01*
X153813Y27695D01*
X153821Y27620D01*
X153833Y27545D01*
X153848Y27471D01*
X153867Y27398D01*
X153890Y27326D01*
X153917Y27255D01*
X153947Y27186D01*
X153981Y27118D01*
X154018Y27052D01*
X154059Y26988D01*
X154103Y26927D01*
X154150Y26868D01*
X154200Y26811D01*
X154252Y26757D01*
X154308Y26705D01*
X154366Y26657D01*
X154426Y26612D01*
X154489Y26569D01*
X154554Y26530D01*
X154621Y26495D01*
X154689Y26463D01*
X154759Y26434D01*
X154831Y26410D01*
X154903Y26388D01*
X154977Y26371D01*
X155051Y26357D01*
X155126Y26348D01*
X155201Y26342D01*
X155277Y26340D01*
X155277Y26341D02*
X156744Y26341D01*
X150530Y29276D02*
X148328Y22672D01*
X146127Y29276D01*
X142848Y22672D02*
X141013Y22672D01*
X140928Y22674D01*
X140844Y22680D01*
X140760Y22690D01*
X140676Y22703D01*
X140593Y22721D01*
X140511Y22742D01*
X140430Y22767D01*
X140350Y22796D01*
X140272Y22828D01*
X140196Y22864D01*
X140121Y22904D01*
X140048Y22947D01*
X139977Y22993D01*
X139908Y23042D01*
X139841Y23095D01*
X139777Y23151D01*
X139716Y23209D01*
X139658Y23270D01*
X139602Y23334D01*
X139549Y23401D01*
X139500Y23470D01*
X139454Y23541D01*
X139411Y23614D01*
X139371Y23689D01*
X139335Y23765D01*
X139303Y23843D01*
X139274Y23923D01*
X139249Y24004D01*
X139228Y24086D01*
X139210Y24169D01*
X139197Y24253D01*
X139187Y24337D01*
X139181Y24421D01*
X139179Y24506D01*
X139181Y24591D01*
X139187Y24675D01*
X139197Y24759D01*
X139210Y24843D01*
X139228Y24926D01*
X139249Y25008D01*
X139274Y25089D01*
X139303Y25169D01*
X139335Y25247D01*
X139371Y25323D01*
X139411Y25398D01*
X139454Y25471D01*
X139500Y25542D01*
X139549Y25611D01*
X139602Y25678D01*
X139658Y25742D01*
X139716Y25803D01*
X139777Y25861D01*
X139841Y25917D01*
X139908Y25970D01*
X139977Y26019D01*
X140048Y26065D01*
X140121Y26108D01*
X140196Y26148D01*
X140272Y26184D01*
X140350Y26216D01*
X140430Y26245D01*
X140511Y26270D01*
X140593Y26291D01*
X140676Y26309D01*
X140760Y26322D01*
X140844Y26332D01*
X140928Y26338D01*
X141013Y26340D01*
X140646Y29276D02*
X142848Y29276D01*
X140646Y29276D02*
X140570Y29274D01*
X140495Y29268D01*
X140420Y29259D01*
X140346Y29245D01*
X140272Y29228D01*
X140200Y29206D01*
X140128Y29182D01*
X140058Y29153D01*
X139990Y29121D01*
X139923Y29086D01*
X139858Y29047D01*
X139795Y29004D01*
X139735Y28959D01*
X139677Y28911D01*
X139621Y28859D01*
X139569Y28805D01*
X139519Y28748D01*
X139472Y28689D01*
X139428Y28628D01*
X139387Y28564D01*
X139350Y28498D01*
X139316Y28430D01*
X139286Y28361D01*
X139259Y28290D01*
X139236Y28218D01*
X139217Y28145D01*
X139202Y28071D01*
X139190Y27996D01*
X139182Y27921D01*
X139178Y27846D01*
X139178Y27770D01*
X139182Y27695D01*
X139190Y27620D01*
X139202Y27545D01*
X139217Y27471D01*
X139236Y27398D01*
X139259Y27326D01*
X139286Y27255D01*
X139316Y27186D01*
X139350Y27118D01*
X139387Y27052D01*
X139428Y26988D01*
X139472Y26927D01*
X139519Y26868D01*
X139569Y26811D01*
X139621Y26757D01*
X139677Y26705D01*
X139735Y26657D01*
X139795Y26612D01*
X139858Y26569D01*
X139923Y26530D01*
X139990Y26495D01*
X140058Y26463D01*
X140128Y26434D01*
X140200Y26410D01*
X140272Y26388D01*
X140346Y26371D01*
X140420Y26357D01*
X140495Y26348D01*
X140570Y26342D01*
X140646Y26340D01*
X140646Y26341D02*
X142114Y26341D01*
X153809Y39041D02*
X154910Y39041D01*
X153809Y39041D02*
X153809Y35372D01*
X156010Y35372D01*
X156084Y35374D01*
X156159Y35380D01*
X156232Y35389D01*
X156306Y35402D01*
X156378Y35419D01*
X156449Y35439D01*
X156520Y35463D01*
X156589Y35491D01*
X156657Y35522D01*
X156722Y35556D01*
X156787Y35594D01*
X156849Y35635D01*
X156909Y35679D01*
X156966Y35726D01*
X157021Y35776D01*
X157074Y35829D01*
X157124Y35884D01*
X157171Y35941D01*
X157215Y36001D01*
X157256Y36063D01*
X157294Y36128D01*
X157328Y36194D01*
X157359Y36261D01*
X157387Y36330D01*
X157411Y36401D01*
X157431Y36472D01*
X157448Y36545D01*
X157461Y36618D01*
X157470Y36692D01*
X157476Y36766D01*
X157478Y36840D01*
X157478Y40508D01*
X157476Y40582D01*
X157470Y40657D01*
X157461Y40730D01*
X157448Y40803D01*
X157431Y40876D01*
X157411Y40947D01*
X157387Y41018D01*
X157359Y41087D01*
X157328Y41154D01*
X157294Y41220D01*
X157256Y41285D01*
X157215Y41347D01*
X157171Y41407D01*
X157124Y41464D01*
X157074Y41519D01*
X157021Y41572D01*
X156966Y41622D01*
X156909Y41669D01*
X156849Y41713D01*
X156787Y41754D01*
X156722Y41792D01*
X156657Y41826D01*
X156589Y41857D01*
X156520Y41885D01*
X156450Y41909D01*
X156378Y41929D01*
X156306Y41946D01*
X156232Y41959D01*
X156159Y41968D01*
X156084Y41974D01*
X156010Y41976D01*
X153809Y41976D01*
X149675Y41976D02*
X149675Y35372D01*
X146006Y35372D02*
X149675Y41976D01*
X146006Y41976D02*
X146006Y35372D01*
X141872Y35372D02*
X141872Y41976D01*
X140038Y41976D01*
X139953Y41974D01*
X139869Y41968D01*
X139785Y41958D01*
X139701Y41945D01*
X139618Y41927D01*
X139536Y41906D01*
X139455Y41881D01*
X139375Y41852D01*
X139297Y41820D01*
X139221Y41784D01*
X139146Y41744D01*
X139073Y41701D01*
X139002Y41655D01*
X138933Y41606D01*
X138866Y41553D01*
X138802Y41497D01*
X138741Y41439D01*
X138683Y41378D01*
X138627Y41314D01*
X138574Y41247D01*
X138525Y41178D01*
X138479Y41107D01*
X138436Y41034D01*
X138396Y40959D01*
X138360Y40883D01*
X138328Y40805D01*
X138299Y40725D01*
X138274Y40644D01*
X138253Y40562D01*
X138235Y40479D01*
X138222Y40395D01*
X138212Y40311D01*
X138206Y40227D01*
X138204Y40142D01*
X138203Y40142D02*
X138203Y37206D01*
X138204Y37206D02*
X138206Y37121D01*
X138212Y37037D01*
X138222Y36953D01*
X138235Y36869D01*
X138253Y36786D01*
X138274Y36704D01*
X138299Y36623D01*
X138328Y36543D01*
X138360Y36465D01*
X138396Y36389D01*
X138436Y36314D01*
X138479Y36241D01*
X138525Y36170D01*
X138574Y36101D01*
X138627Y36034D01*
X138683Y35970D01*
X138741Y35909D01*
X138802Y35851D01*
X138866Y35795D01*
X138933Y35742D01*
X139002Y35693D01*
X139073Y35647D01*
X139146Y35604D01*
X139221Y35564D01*
X139297Y35528D01*
X139375Y35496D01*
X139455Y35467D01*
X139536Y35442D01*
X139618Y35421D01*
X139701Y35403D01*
X139785Y35390D01*
X139869Y35380D01*
X139953Y35374D01*
X140038Y35372D01*
X141872Y35372D01*
X154543Y48072D02*
X156010Y48072D01*
X156084Y48074D01*
X156159Y48080D01*
X156232Y48089D01*
X156306Y48102D01*
X156378Y48119D01*
X156449Y48139D01*
X156520Y48163D01*
X156589Y48191D01*
X156657Y48222D01*
X156722Y48256D01*
X156787Y48294D01*
X156849Y48335D01*
X156909Y48379D01*
X156966Y48426D01*
X157021Y48476D01*
X157074Y48529D01*
X157124Y48584D01*
X157171Y48641D01*
X157215Y48701D01*
X157256Y48763D01*
X157294Y48828D01*
X157328Y48894D01*
X157359Y48961D01*
X157387Y49030D01*
X157411Y49101D01*
X157431Y49172D01*
X157448Y49245D01*
X157461Y49318D01*
X157470Y49392D01*
X157476Y49466D01*
X157478Y49540D01*
X157478Y53208D01*
X157476Y53282D01*
X157470Y53357D01*
X157461Y53430D01*
X157448Y53503D01*
X157431Y53576D01*
X157411Y53647D01*
X157387Y53718D01*
X157359Y53787D01*
X157328Y53854D01*
X157294Y53920D01*
X157256Y53985D01*
X157215Y54047D01*
X157171Y54107D01*
X157124Y54164D01*
X157074Y54219D01*
X157021Y54272D01*
X156966Y54322D01*
X156909Y54369D01*
X156849Y54413D01*
X156787Y54454D01*
X156722Y54492D01*
X156657Y54526D01*
X156589Y54557D01*
X156520Y54585D01*
X156450Y54609D01*
X156378Y54629D01*
X156306Y54646D01*
X156232Y54659D01*
X156159Y54668D01*
X156084Y54674D01*
X156010Y54676D01*
X154543Y54676D01*
X150796Y53759D02*
X150858Y53627D01*
X150916Y53494D01*
X150971Y53360D01*
X151022Y53224D01*
X151069Y53087D01*
X151113Y52948D01*
X151153Y52809D01*
X151190Y52668D01*
X151222Y52527D01*
X151251Y52385D01*
X151276Y52241D01*
X151298Y52098D01*
X151315Y51954D01*
X151329Y51809D01*
X151338Y51664D01*
X151344Y51519D01*
X151346Y51374D01*
X150797Y53759D02*
X150771Y53828D01*
X150742Y53895D01*
X150709Y53961D01*
X150673Y54024D01*
X150633Y54086D01*
X150590Y54145D01*
X150544Y54202D01*
X150495Y54256D01*
X150443Y54308D01*
X150388Y54357D01*
X150331Y54402D01*
X150271Y54445D01*
X150209Y54484D01*
X150146Y54520D01*
X150080Y54553D01*
X150013Y54581D01*
X149944Y54607D01*
X149874Y54628D01*
X149803Y54646D01*
X149731Y54659D01*
X149658Y54669D01*
X149585Y54675D01*
X149512Y54677D01*
X149512Y54676D02*
X149439Y54674D01*
X149366Y54668D01*
X149293Y54658D01*
X149222Y54645D01*
X149150Y54627D01*
X149080Y54606D01*
X149012Y54580D01*
X148944Y54552D01*
X148879Y54519D01*
X148815Y54483D01*
X148753Y54444D01*
X148694Y54402D01*
X148637Y54356D01*
X148582Y54307D01*
X148530Y54256D01*
X148481Y54201D01*
X148435Y54144D01*
X148392Y54085D01*
X148352Y54024D01*
X148316Y53960D01*
X148283Y53895D01*
X148254Y53828D01*
X148228Y53759D01*
X148166Y53627D01*
X148108Y53494D01*
X148053Y53360D01*
X148002Y53224D01*
X147955Y53087D01*
X147911Y52948D01*
X147871Y52809D01*
X147834Y52668D01*
X147802Y52527D01*
X147773Y52385D01*
X147748Y52242D01*
X147726Y52098D01*
X147709Y51954D01*
X147695Y51809D01*
X147686Y51664D01*
X147680Y51519D01*
X147678Y51374D01*
X151346Y51374D02*
X151344Y51229D01*
X151338Y51084D01*
X151329Y50939D01*
X151315Y50794D01*
X151298Y50650D01*
X151276Y50507D01*
X151251Y50364D01*
X151223Y50221D01*
X151190Y50080D01*
X151153Y49939D01*
X151113Y49800D01*
X151069Y49661D01*
X151022Y49524D01*
X150971Y49388D01*
X150916Y49254D01*
X150858Y49121D01*
X150796Y48989D01*
X150797Y48990D02*
X150771Y48921D01*
X150742Y48854D01*
X150709Y48788D01*
X150673Y48725D01*
X150633Y48663D01*
X150590Y48604D01*
X150544Y48547D01*
X150495Y48493D01*
X150443Y48441D01*
X150388Y48392D01*
X150331Y48347D01*
X150271Y48304D01*
X150209Y48265D01*
X150146Y48229D01*
X150080Y48196D01*
X150013Y48168D01*
X149944Y48142D01*
X149874Y48121D01*
X149803Y48103D01*
X149731Y48090D01*
X149658Y48080D01*
X149585Y48074D01*
X149512Y48072D01*
X148228Y48989D02*
X148166Y49121D01*
X148108Y49254D01*
X148053Y49388D01*
X148002Y49524D01*
X147955Y49661D01*
X147911Y49800D01*
X147871Y49939D01*
X147834Y50080D01*
X147802Y50221D01*
X147773Y50363D01*
X147748Y50506D01*
X147726Y50650D01*
X147709Y50794D01*
X147695Y50939D01*
X147686Y51084D01*
X147680Y51229D01*
X147678Y51374D01*
X148228Y48989D02*
X148254Y48920D01*
X148283Y48853D01*
X148316Y48788D01*
X148352Y48724D01*
X148392Y48663D01*
X148435Y48604D01*
X148481Y48547D01*
X148530Y48492D01*
X148582Y48441D01*
X148637Y48392D01*
X148694Y48346D01*
X148753Y48304D01*
X148815Y48265D01*
X148879Y48229D01*
X148944Y48196D01*
X149012Y48168D01*
X149080Y48142D01*
X149150Y48121D01*
X149222Y48103D01*
X149293Y48090D01*
X149366Y48080D01*
X149439Y48074D01*
X149512Y48072D01*
X150980Y49540D02*
X148045Y53208D01*
X144031Y51374D02*
X144029Y51519D01*
X144023Y51664D01*
X144014Y51809D01*
X144000Y51954D01*
X143983Y52098D01*
X143961Y52241D01*
X143936Y52385D01*
X143907Y52527D01*
X143875Y52668D01*
X143838Y52809D01*
X143798Y52948D01*
X143754Y53087D01*
X143707Y53224D01*
X143656Y53360D01*
X143601Y53494D01*
X143543Y53627D01*
X143481Y53759D01*
X143482Y53759D02*
X143456Y53828D01*
X143427Y53895D01*
X143394Y53961D01*
X143358Y54024D01*
X143318Y54086D01*
X143275Y54145D01*
X143229Y54202D01*
X143180Y54256D01*
X143128Y54308D01*
X143073Y54357D01*
X143016Y54402D01*
X142956Y54445D01*
X142894Y54484D01*
X142831Y54520D01*
X142765Y54553D01*
X142698Y54581D01*
X142629Y54607D01*
X142559Y54628D01*
X142488Y54646D01*
X142416Y54659D01*
X142343Y54669D01*
X142270Y54675D01*
X142197Y54677D01*
X142197Y54676D02*
X142124Y54674D01*
X142051Y54668D01*
X141978Y54658D01*
X141907Y54645D01*
X141835Y54627D01*
X141765Y54606D01*
X141697Y54580D01*
X141629Y54552D01*
X141564Y54519D01*
X141500Y54483D01*
X141438Y54444D01*
X141379Y54402D01*
X141322Y54356D01*
X141267Y54307D01*
X141215Y54256D01*
X141166Y54201D01*
X141120Y54144D01*
X141077Y54085D01*
X141037Y54024D01*
X141001Y53960D01*
X140968Y53895D01*
X140939Y53828D01*
X140913Y53759D01*
X140912Y53759D02*
X140850Y53627D01*
X140792Y53494D01*
X140737Y53360D01*
X140686Y53224D01*
X140639Y53087D01*
X140595Y52948D01*
X140555Y52809D01*
X140518Y52668D01*
X140486Y52527D01*
X140457Y52385D01*
X140432Y52242D01*
X140410Y52098D01*
X140393Y51954D01*
X140379Y51809D01*
X140370Y51664D01*
X140364Y51519D01*
X140362Y51374D01*
X144031Y51374D02*
X144029Y51229D01*
X144023Y51084D01*
X144014Y50939D01*
X144000Y50794D01*
X143983Y50650D01*
X143961Y50507D01*
X143936Y50364D01*
X143908Y50221D01*
X143875Y50080D01*
X143838Y49939D01*
X143798Y49800D01*
X143754Y49661D01*
X143707Y49524D01*
X143656Y49388D01*
X143601Y49254D01*
X143543Y49121D01*
X143481Y48989D01*
X143482Y48990D02*
X143456Y48921D01*
X143427Y48854D01*
X143394Y48788D01*
X143358Y48725D01*
X143318Y48663D01*
X143275Y48604D01*
X143229Y48547D01*
X143180Y48493D01*
X143128Y48441D01*
X143073Y48392D01*
X143016Y48347D01*
X142956Y48304D01*
X142894Y48265D01*
X142831Y48229D01*
X142765Y48196D01*
X142698Y48168D01*
X142629Y48142D01*
X142559Y48121D01*
X142488Y48103D01*
X142416Y48090D01*
X142343Y48080D01*
X142270Y48074D01*
X142197Y48072D01*
X140913Y48989D02*
X140851Y49121D01*
X140793Y49254D01*
X140738Y49388D01*
X140687Y49524D01*
X140640Y49661D01*
X140596Y49800D01*
X140556Y49939D01*
X140519Y50080D01*
X140487Y50221D01*
X140458Y50363D01*
X140433Y50506D01*
X140411Y50650D01*
X140394Y50794D01*
X140380Y50939D01*
X140371Y51084D01*
X140365Y51229D01*
X140363Y51374D01*
X140913Y48989D02*
X140939Y48920D01*
X140968Y48853D01*
X141001Y48788D01*
X141037Y48724D01*
X141077Y48663D01*
X141120Y48604D01*
X141166Y48547D01*
X141215Y48492D01*
X141267Y48441D01*
X141322Y48392D01*
X141379Y48346D01*
X141438Y48304D01*
X141500Y48265D01*
X141564Y48229D01*
X141629Y48196D01*
X141697Y48168D01*
X141765Y48142D01*
X141835Y48121D01*
X141907Y48103D01*
X141978Y48090D01*
X142051Y48080D01*
X142124Y48074D01*
X142197Y48072D01*
X143664Y49540D02*
X140729Y53208D01*
X154543Y60772D02*
X156010Y60772D01*
X156084Y60774D01*
X156159Y60780D01*
X156232Y60789D01*
X156306Y60802D01*
X156378Y60819D01*
X156449Y60839D01*
X156520Y60863D01*
X156589Y60891D01*
X156657Y60922D01*
X156722Y60956D01*
X156787Y60994D01*
X156849Y61035D01*
X156909Y61079D01*
X156966Y61126D01*
X157021Y61176D01*
X157074Y61229D01*
X157124Y61284D01*
X157171Y61341D01*
X157215Y61401D01*
X157256Y61463D01*
X157294Y61528D01*
X157328Y61594D01*
X157359Y61661D01*
X157387Y61730D01*
X157411Y61801D01*
X157431Y61872D01*
X157448Y61945D01*
X157461Y62018D01*
X157470Y62092D01*
X157476Y62166D01*
X157478Y62240D01*
X157478Y65908D01*
X157476Y65982D01*
X157470Y66057D01*
X157461Y66130D01*
X157448Y66203D01*
X157431Y66276D01*
X157411Y66347D01*
X157387Y66418D01*
X157359Y66487D01*
X157328Y66554D01*
X157294Y66620D01*
X157256Y66685D01*
X157215Y66747D01*
X157171Y66807D01*
X157124Y66864D01*
X157074Y66919D01*
X157021Y66972D01*
X156966Y67022D01*
X156909Y67069D01*
X156849Y67113D01*
X156787Y67154D01*
X156722Y67192D01*
X156657Y67226D01*
X156589Y67257D01*
X156520Y67285D01*
X156450Y67309D01*
X156378Y67329D01*
X156306Y67346D01*
X156232Y67359D01*
X156159Y67368D01*
X156084Y67374D01*
X156010Y67376D01*
X154543Y67376D01*
X150796Y66459D02*
X150858Y66327D01*
X150916Y66194D01*
X150971Y66060D01*
X151022Y65924D01*
X151069Y65787D01*
X151113Y65648D01*
X151153Y65509D01*
X151190Y65368D01*
X151222Y65227D01*
X151251Y65085D01*
X151276Y64941D01*
X151298Y64798D01*
X151315Y64654D01*
X151329Y64509D01*
X151338Y64364D01*
X151344Y64219D01*
X151346Y64074D01*
X150797Y66459D02*
X150771Y66528D01*
X150742Y66595D01*
X150709Y66661D01*
X150673Y66724D01*
X150633Y66786D01*
X150590Y66845D01*
X150544Y66902D01*
X150495Y66956D01*
X150443Y67008D01*
X150388Y67057D01*
X150331Y67102D01*
X150271Y67145D01*
X150209Y67184D01*
X150146Y67220D01*
X150080Y67253D01*
X150013Y67281D01*
X149944Y67307D01*
X149874Y67328D01*
X149803Y67346D01*
X149731Y67359D01*
X149658Y67369D01*
X149585Y67375D01*
X149512Y67377D01*
X149512Y67376D02*
X149439Y67374D01*
X149366Y67368D01*
X149293Y67358D01*
X149222Y67345D01*
X149150Y67327D01*
X149080Y67306D01*
X149012Y67280D01*
X148944Y67252D01*
X148879Y67219D01*
X148815Y67183D01*
X148753Y67144D01*
X148694Y67102D01*
X148637Y67056D01*
X148582Y67007D01*
X148530Y66956D01*
X148481Y66901D01*
X148435Y66844D01*
X148392Y66785D01*
X148352Y66724D01*
X148316Y66660D01*
X148283Y66595D01*
X148254Y66528D01*
X148228Y66459D01*
X148166Y66327D01*
X148108Y66194D01*
X148053Y66060D01*
X148002Y65924D01*
X147955Y65787D01*
X147911Y65648D01*
X147871Y65509D01*
X147834Y65368D01*
X147802Y65227D01*
X147773Y65085D01*
X147748Y64942D01*
X147726Y64798D01*
X147709Y64654D01*
X147695Y64509D01*
X147686Y64364D01*
X147680Y64219D01*
X147678Y64074D01*
X151346Y64074D02*
X151344Y63929D01*
X151338Y63784D01*
X151329Y63639D01*
X151315Y63494D01*
X151298Y63350D01*
X151276Y63207D01*
X151251Y63064D01*
X151223Y62921D01*
X151190Y62780D01*
X151153Y62639D01*
X151113Y62500D01*
X151069Y62361D01*
X151022Y62224D01*
X150971Y62088D01*
X150916Y61954D01*
X150858Y61821D01*
X150796Y61689D01*
X150797Y61690D02*
X150771Y61621D01*
X150742Y61554D01*
X150709Y61488D01*
X150673Y61425D01*
X150633Y61363D01*
X150590Y61304D01*
X150544Y61247D01*
X150495Y61193D01*
X150443Y61141D01*
X150388Y61092D01*
X150331Y61047D01*
X150271Y61004D01*
X150209Y60965D01*
X150146Y60929D01*
X150080Y60896D01*
X150013Y60868D01*
X149944Y60842D01*
X149874Y60821D01*
X149803Y60803D01*
X149731Y60790D01*
X149658Y60780D01*
X149585Y60774D01*
X149512Y60772D01*
X148228Y61689D02*
X148166Y61821D01*
X148108Y61954D01*
X148053Y62088D01*
X148002Y62224D01*
X147955Y62361D01*
X147911Y62500D01*
X147871Y62639D01*
X147834Y62780D01*
X147802Y62921D01*
X147773Y63063D01*
X147748Y63206D01*
X147726Y63350D01*
X147709Y63494D01*
X147695Y63639D01*
X147686Y63784D01*
X147680Y63929D01*
X147678Y64074D01*
X148228Y61689D02*
X148254Y61620D01*
X148283Y61553D01*
X148316Y61488D01*
X148352Y61424D01*
X148392Y61363D01*
X148435Y61304D01*
X148481Y61247D01*
X148530Y61192D01*
X148582Y61141D01*
X148637Y61092D01*
X148694Y61046D01*
X148753Y61004D01*
X148815Y60965D01*
X148879Y60929D01*
X148944Y60896D01*
X149012Y60868D01*
X149080Y60842D01*
X149150Y60821D01*
X149222Y60803D01*
X149293Y60790D01*
X149366Y60780D01*
X149439Y60774D01*
X149512Y60772D01*
X150980Y62240D02*
X148045Y65908D01*
X144031Y65908D02*
X142197Y67376D01*
X142197Y60772D01*
X144031Y60772D02*
X140362Y60772D01*
X154543Y73472D02*
X156010Y73472D01*
X156084Y73474D01*
X156159Y73480D01*
X156232Y73489D01*
X156306Y73502D01*
X156378Y73519D01*
X156449Y73539D01*
X156520Y73563D01*
X156589Y73591D01*
X156657Y73622D01*
X156722Y73656D01*
X156787Y73694D01*
X156849Y73735D01*
X156909Y73779D01*
X156966Y73826D01*
X157021Y73876D01*
X157074Y73929D01*
X157124Y73984D01*
X157171Y74041D01*
X157215Y74101D01*
X157256Y74163D01*
X157294Y74228D01*
X157328Y74294D01*
X157359Y74361D01*
X157387Y74430D01*
X157411Y74501D01*
X157431Y74572D01*
X157448Y74645D01*
X157461Y74718D01*
X157470Y74792D01*
X157476Y74866D01*
X157478Y74940D01*
X157478Y78608D01*
X157476Y78682D01*
X157470Y78757D01*
X157461Y78830D01*
X157448Y78903D01*
X157431Y78976D01*
X157411Y79047D01*
X157387Y79118D01*
X157359Y79187D01*
X157328Y79254D01*
X157294Y79320D01*
X157256Y79385D01*
X157215Y79447D01*
X157171Y79507D01*
X157124Y79564D01*
X157074Y79619D01*
X157021Y79672D01*
X156966Y79722D01*
X156909Y79769D01*
X156849Y79813D01*
X156787Y79854D01*
X156722Y79892D01*
X156657Y79926D01*
X156589Y79957D01*
X156520Y79985D01*
X156450Y80009D01*
X156378Y80029D01*
X156306Y80046D01*
X156232Y80059D01*
X156159Y80068D01*
X156084Y80074D01*
X156010Y80076D01*
X154543Y80076D01*
X150796Y79159D02*
X150858Y79027D01*
X150916Y78894D01*
X150971Y78760D01*
X151022Y78624D01*
X151069Y78487D01*
X151113Y78348D01*
X151153Y78209D01*
X151190Y78068D01*
X151222Y77927D01*
X151251Y77785D01*
X151276Y77641D01*
X151298Y77498D01*
X151315Y77354D01*
X151329Y77209D01*
X151338Y77064D01*
X151344Y76919D01*
X151346Y76774D01*
X150797Y79159D02*
X150771Y79228D01*
X150742Y79295D01*
X150709Y79361D01*
X150673Y79424D01*
X150633Y79486D01*
X150590Y79545D01*
X150544Y79602D01*
X150495Y79656D01*
X150443Y79708D01*
X150388Y79757D01*
X150331Y79802D01*
X150271Y79845D01*
X150209Y79884D01*
X150146Y79920D01*
X150080Y79953D01*
X150013Y79981D01*
X149944Y80007D01*
X149874Y80028D01*
X149803Y80046D01*
X149731Y80059D01*
X149658Y80069D01*
X149585Y80075D01*
X149512Y80077D01*
X149512Y80076D02*
X149439Y80074D01*
X149366Y80068D01*
X149293Y80058D01*
X149222Y80045D01*
X149150Y80027D01*
X149080Y80006D01*
X149012Y79980D01*
X148944Y79952D01*
X148879Y79919D01*
X148815Y79883D01*
X148753Y79844D01*
X148694Y79802D01*
X148637Y79756D01*
X148582Y79707D01*
X148530Y79656D01*
X148481Y79601D01*
X148435Y79544D01*
X148392Y79485D01*
X148352Y79424D01*
X148316Y79360D01*
X148283Y79295D01*
X148254Y79228D01*
X148228Y79159D01*
X148166Y79027D01*
X148108Y78894D01*
X148053Y78760D01*
X148002Y78624D01*
X147955Y78487D01*
X147911Y78348D01*
X147871Y78209D01*
X147834Y78068D01*
X147802Y77927D01*
X147773Y77785D01*
X147748Y77642D01*
X147726Y77498D01*
X147709Y77354D01*
X147695Y77209D01*
X147686Y77064D01*
X147680Y76919D01*
X147678Y76774D01*
X151346Y76774D02*
X151344Y76629D01*
X151338Y76484D01*
X151329Y76339D01*
X151315Y76194D01*
X151298Y76050D01*
X151276Y75907D01*
X151251Y75764D01*
X151223Y75621D01*
X151190Y75480D01*
X151153Y75339D01*
X151113Y75200D01*
X151069Y75061D01*
X151022Y74924D01*
X150971Y74788D01*
X150916Y74654D01*
X150858Y74521D01*
X150796Y74389D01*
X150797Y74390D02*
X150771Y74321D01*
X150742Y74254D01*
X150709Y74188D01*
X150673Y74125D01*
X150633Y74063D01*
X150590Y74004D01*
X150544Y73947D01*
X150495Y73893D01*
X150443Y73841D01*
X150388Y73792D01*
X150331Y73747D01*
X150271Y73704D01*
X150209Y73665D01*
X150146Y73629D01*
X150080Y73596D01*
X150013Y73568D01*
X149944Y73542D01*
X149874Y73521D01*
X149803Y73503D01*
X149731Y73490D01*
X149658Y73480D01*
X149585Y73474D01*
X149512Y73472D01*
X148228Y74389D02*
X148166Y74521D01*
X148108Y74654D01*
X148053Y74788D01*
X148002Y74924D01*
X147955Y75061D01*
X147911Y75200D01*
X147871Y75339D01*
X147834Y75480D01*
X147802Y75621D01*
X147773Y75763D01*
X147748Y75906D01*
X147726Y76050D01*
X147709Y76194D01*
X147695Y76339D01*
X147686Y76484D01*
X147680Y76629D01*
X147678Y76774D01*
X148228Y74389D02*
X148254Y74320D01*
X148283Y74253D01*
X148316Y74188D01*
X148352Y74124D01*
X148392Y74063D01*
X148435Y74004D01*
X148481Y73947D01*
X148530Y73892D01*
X148582Y73841D01*
X148637Y73792D01*
X148694Y73746D01*
X148753Y73704D01*
X148815Y73665D01*
X148879Y73629D01*
X148944Y73596D01*
X149012Y73568D01*
X149080Y73542D01*
X149150Y73521D01*
X149222Y73503D01*
X149293Y73490D01*
X149366Y73480D01*
X149439Y73474D01*
X149512Y73472D01*
X150980Y74940D02*
X148045Y78608D01*
X142013Y80076D02*
X141934Y80074D01*
X141856Y80069D01*
X141778Y80059D01*
X141701Y80046D01*
X141624Y80029D01*
X141548Y80009D01*
X141473Y79985D01*
X141399Y79958D01*
X141327Y79927D01*
X141256Y79892D01*
X141188Y79855D01*
X141120Y79814D01*
X141055Y79770D01*
X140992Y79723D01*
X140932Y79673D01*
X140874Y79620D01*
X140818Y79564D01*
X140765Y79506D01*
X140715Y79446D01*
X140668Y79383D01*
X140624Y79318D01*
X140583Y79251D01*
X140546Y79182D01*
X140511Y79111D01*
X140480Y79039D01*
X140453Y78965D01*
X140429Y78890D01*
X140409Y78814D01*
X140392Y78737D01*
X140379Y78660D01*
X140369Y78582D01*
X140364Y78504D01*
X140362Y78425D01*
X142013Y80076D02*
X142102Y80074D01*
X142191Y80069D01*
X142279Y80059D01*
X142367Y80046D01*
X142454Y80030D01*
X142541Y80009D01*
X142626Y79985D01*
X142711Y79958D01*
X142794Y79927D01*
X142876Y79892D01*
X142957Y79854D01*
X143036Y79813D01*
X143112Y79769D01*
X143188Y79721D01*
X143261Y79670D01*
X143331Y79617D01*
X143400Y79560D01*
X143466Y79500D01*
X143529Y79438D01*
X143590Y79373D01*
X143648Y79306D01*
X143703Y79236D01*
X143756Y79164D01*
X143805Y79090D01*
X143851Y79014D01*
X143893Y78936D01*
X143933Y78856D01*
X143969Y78775D01*
X144002Y78692D01*
X144031Y78608D01*
X140913Y77141D02*
X140857Y77197D01*
X140803Y77256D01*
X140752Y77317D01*
X140703Y77381D01*
X140658Y77446D01*
X140615Y77514D01*
X140576Y77583D01*
X140539Y77654D01*
X140506Y77727D01*
X140477Y77801D01*
X140450Y77876D01*
X140427Y77952D01*
X140408Y78030D01*
X140392Y78108D01*
X140379Y78186D01*
X140370Y78266D01*
X140365Y78345D01*
X140363Y78425D01*
X140913Y77141D02*
X144031Y73472D01*
X140362Y73472D01*
X154543Y86172D02*
X156010Y86172D01*
X156084Y86174D01*
X156159Y86180D01*
X156232Y86189D01*
X156306Y86202D01*
X156378Y86219D01*
X156449Y86239D01*
X156520Y86263D01*
X156589Y86291D01*
X156657Y86322D01*
X156722Y86356D01*
X156787Y86394D01*
X156849Y86435D01*
X156909Y86479D01*
X156966Y86526D01*
X157021Y86576D01*
X157074Y86629D01*
X157124Y86684D01*
X157171Y86741D01*
X157215Y86801D01*
X157256Y86863D01*
X157294Y86928D01*
X157328Y86994D01*
X157359Y87061D01*
X157387Y87130D01*
X157411Y87201D01*
X157431Y87272D01*
X157448Y87345D01*
X157461Y87418D01*
X157470Y87492D01*
X157476Y87566D01*
X157478Y87640D01*
X157478Y91308D01*
X157476Y91382D01*
X157470Y91457D01*
X157461Y91530D01*
X157448Y91603D01*
X157431Y91676D01*
X157411Y91747D01*
X157387Y91818D01*
X157359Y91887D01*
X157328Y91954D01*
X157294Y92020D01*
X157256Y92085D01*
X157215Y92147D01*
X157171Y92207D01*
X157124Y92264D01*
X157074Y92319D01*
X157021Y92372D01*
X156966Y92422D01*
X156909Y92469D01*
X156849Y92513D01*
X156787Y92554D01*
X156722Y92592D01*
X156657Y92626D01*
X156589Y92657D01*
X156520Y92685D01*
X156450Y92709D01*
X156378Y92729D01*
X156306Y92746D01*
X156232Y92759D01*
X156159Y92768D01*
X156084Y92774D01*
X156010Y92776D01*
X154543Y92776D01*
X150796Y91859D02*
X150858Y91727D01*
X150916Y91594D01*
X150971Y91460D01*
X151022Y91324D01*
X151069Y91187D01*
X151113Y91048D01*
X151153Y90909D01*
X151190Y90768D01*
X151222Y90627D01*
X151251Y90485D01*
X151276Y90341D01*
X151298Y90198D01*
X151315Y90054D01*
X151329Y89909D01*
X151338Y89764D01*
X151344Y89619D01*
X151346Y89474D01*
X150797Y91859D02*
X150771Y91928D01*
X150742Y91995D01*
X150709Y92061D01*
X150673Y92124D01*
X150633Y92186D01*
X150590Y92245D01*
X150544Y92302D01*
X150495Y92356D01*
X150443Y92408D01*
X150388Y92457D01*
X150331Y92502D01*
X150271Y92545D01*
X150209Y92584D01*
X150146Y92620D01*
X150080Y92653D01*
X150013Y92681D01*
X149944Y92707D01*
X149874Y92728D01*
X149803Y92746D01*
X149731Y92759D01*
X149658Y92769D01*
X149585Y92775D01*
X149512Y92777D01*
X149512Y92776D02*
X149439Y92774D01*
X149366Y92768D01*
X149293Y92758D01*
X149222Y92745D01*
X149150Y92727D01*
X149080Y92706D01*
X149012Y92680D01*
X148944Y92652D01*
X148879Y92619D01*
X148815Y92583D01*
X148753Y92544D01*
X148694Y92502D01*
X148637Y92456D01*
X148582Y92407D01*
X148530Y92356D01*
X148481Y92301D01*
X148435Y92244D01*
X148392Y92185D01*
X148352Y92124D01*
X148316Y92060D01*
X148283Y91995D01*
X148254Y91928D01*
X148228Y91859D01*
X148166Y91727D01*
X148108Y91594D01*
X148053Y91460D01*
X148002Y91324D01*
X147955Y91187D01*
X147911Y91048D01*
X147871Y90909D01*
X147834Y90768D01*
X147802Y90627D01*
X147773Y90485D01*
X147748Y90342D01*
X147726Y90198D01*
X147709Y90054D01*
X147695Y89909D01*
X147686Y89764D01*
X147680Y89619D01*
X147678Y89474D01*
X151346Y89474D02*
X151344Y89329D01*
X151338Y89184D01*
X151329Y89039D01*
X151315Y88894D01*
X151298Y88750D01*
X151276Y88607D01*
X151251Y88464D01*
X151223Y88321D01*
X151190Y88180D01*
X151153Y88039D01*
X151113Y87900D01*
X151069Y87761D01*
X151022Y87624D01*
X150971Y87488D01*
X150916Y87354D01*
X150858Y87221D01*
X150796Y87089D01*
X150797Y87090D02*
X150771Y87021D01*
X150742Y86954D01*
X150709Y86888D01*
X150673Y86825D01*
X150633Y86763D01*
X150590Y86704D01*
X150544Y86647D01*
X150495Y86593D01*
X150443Y86541D01*
X150388Y86492D01*
X150331Y86447D01*
X150271Y86404D01*
X150209Y86365D01*
X150146Y86329D01*
X150080Y86296D01*
X150013Y86268D01*
X149944Y86242D01*
X149874Y86221D01*
X149803Y86203D01*
X149731Y86190D01*
X149658Y86180D01*
X149585Y86174D01*
X149512Y86172D01*
X148228Y87089D02*
X148166Y87221D01*
X148108Y87354D01*
X148053Y87488D01*
X148002Y87624D01*
X147955Y87761D01*
X147911Y87900D01*
X147871Y88039D01*
X147834Y88180D01*
X147802Y88321D01*
X147773Y88463D01*
X147748Y88606D01*
X147726Y88750D01*
X147709Y88894D01*
X147695Y89039D01*
X147686Y89184D01*
X147680Y89329D01*
X147678Y89474D01*
X148228Y87089D02*
X148254Y87020D01*
X148283Y86953D01*
X148316Y86888D01*
X148352Y86824D01*
X148392Y86763D01*
X148435Y86704D01*
X148481Y86647D01*
X148530Y86592D01*
X148582Y86541D01*
X148637Y86492D01*
X148694Y86446D01*
X148753Y86404D01*
X148815Y86365D01*
X148879Y86329D01*
X148944Y86296D01*
X149012Y86268D01*
X149080Y86242D01*
X149150Y86221D01*
X149222Y86203D01*
X149293Y86190D01*
X149366Y86180D01*
X149439Y86174D01*
X149512Y86172D01*
X150980Y87640D02*
X148045Y91308D01*
X144031Y86172D02*
X142197Y86172D01*
X142112Y86174D01*
X142028Y86180D01*
X141944Y86190D01*
X141860Y86203D01*
X141777Y86221D01*
X141695Y86242D01*
X141614Y86267D01*
X141534Y86296D01*
X141456Y86328D01*
X141380Y86364D01*
X141305Y86404D01*
X141232Y86447D01*
X141161Y86493D01*
X141092Y86542D01*
X141025Y86595D01*
X140961Y86651D01*
X140900Y86709D01*
X140842Y86770D01*
X140786Y86834D01*
X140733Y86901D01*
X140684Y86970D01*
X140638Y87041D01*
X140595Y87114D01*
X140555Y87189D01*
X140519Y87265D01*
X140487Y87343D01*
X140458Y87423D01*
X140433Y87504D01*
X140412Y87586D01*
X140394Y87669D01*
X140381Y87753D01*
X140371Y87837D01*
X140365Y87921D01*
X140363Y88006D01*
X140365Y88091D01*
X140371Y88175D01*
X140381Y88259D01*
X140394Y88343D01*
X140412Y88426D01*
X140433Y88508D01*
X140458Y88589D01*
X140487Y88669D01*
X140519Y88747D01*
X140555Y88823D01*
X140595Y88898D01*
X140638Y88971D01*
X140684Y89042D01*
X140733Y89111D01*
X140786Y89178D01*
X140842Y89242D01*
X140900Y89303D01*
X140961Y89361D01*
X141025Y89417D01*
X141092Y89470D01*
X141161Y89519D01*
X141232Y89565D01*
X141305Y89608D01*
X141380Y89648D01*
X141456Y89684D01*
X141534Y89716D01*
X141614Y89745D01*
X141695Y89770D01*
X141777Y89791D01*
X141860Y89809D01*
X141944Y89822D01*
X142028Y89832D01*
X142112Y89838D01*
X142197Y89840D01*
X141830Y92776D02*
X144031Y92776D01*
X141830Y92776D02*
X141754Y92774D01*
X141679Y92768D01*
X141604Y92759D01*
X141530Y92745D01*
X141456Y92728D01*
X141384Y92706D01*
X141312Y92682D01*
X141242Y92653D01*
X141174Y92621D01*
X141107Y92586D01*
X141042Y92547D01*
X140979Y92504D01*
X140919Y92459D01*
X140861Y92411D01*
X140805Y92359D01*
X140753Y92305D01*
X140703Y92248D01*
X140656Y92189D01*
X140612Y92128D01*
X140571Y92064D01*
X140534Y91998D01*
X140500Y91930D01*
X140470Y91861D01*
X140443Y91790D01*
X140420Y91718D01*
X140401Y91645D01*
X140386Y91571D01*
X140374Y91496D01*
X140366Y91421D01*
X140362Y91346D01*
X140362Y91270D01*
X140366Y91195D01*
X140374Y91120D01*
X140386Y91045D01*
X140401Y90971D01*
X140420Y90898D01*
X140443Y90826D01*
X140470Y90755D01*
X140500Y90686D01*
X140534Y90618D01*
X140571Y90552D01*
X140612Y90488D01*
X140656Y90427D01*
X140703Y90368D01*
X140753Y90311D01*
X140805Y90257D01*
X140861Y90205D01*
X140919Y90157D01*
X140979Y90112D01*
X141042Y90069D01*
X141107Y90030D01*
X141174Y89995D01*
X141242Y89963D01*
X141312Y89934D01*
X141384Y89910D01*
X141456Y89888D01*
X141530Y89871D01*
X141604Y89857D01*
X141679Y89848D01*
X141754Y89842D01*
X141830Y89840D01*
X141830Y89841D02*
X143298Y89841D01*
X154543Y98872D02*
X156010Y98872D01*
X156084Y98874D01*
X156159Y98880D01*
X156232Y98889D01*
X156306Y98902D01*
X156378Y98919D01*
X156449Y98939D01*
X156520Y98963D01*
X156589Y98991D01*
X156657Y99022D01*
X156722Y99056D01*
X156787Y99094D01*
X156849Y99135D01*
X156909Y99179D01*
X156966Y99226D01*
X157021Y99276D01*
X157074Y99329D01*
X157124Y99384D01*
X157171Y99441D01*
X157215Y99501D01*
X157256Y99563D01*
X157294Y99628D01*
X157328Y99694D01*
X157359Y99761D01*
X157387Y99830D01*
X157411Y99901D01*
X157431Y99972D01*
X157448Y100045D01*
X157461Y100118D01*
X157470Y100192D01*
X157476Y100266D01*
X157478Y100340D01*
X157478Y104008D01*
X157476Y104082D01*
X157470Y104157D01*
X157461Y104230D01*
X157448Y104303D01*
X157431Y104376D01*
X157411Y104447D01*
X157387Y104518D01*
X157359Y104587D01*
X157328Y104654D01*
X157294Y104720D01*
X157256Y104785D01*
X157215Y104847D01*
X157171Y104907D01*
X157124Y104964D01*
X157074Y105019D01*
X157021Y105072D01*
X156966Y105122D01*
X156909Y105169D01*
X156849Y105213D01*
X156787Y105254D01*
X156722Y105292D01*
X156657Y105326D01*
X156589Y105357D01*
X156520Y105385D01*
X156450Y105409D01*
X156378Y105429D01*
X156306Y105446D01*
X156232Y105459D01*
X156159Y105468D01*
X156084Y105474D01*
X156010Y105476D01*
X154543Y105476D01*
X150796Y104559D02*
X150858Y104427D01*
X150916Y104294D01*
X150971Y104160D01*
X151022Y104024D01*
X151069Y103887D01*
X151113Y103748D01*
X151153Y103609D01*
X151190Y103468D01*
X151222Y103327D01*
X151251Y103185D01*
X151276Y103041D01*
X151298Y102898D01*
X151315Y102754D01*
X151329Y102609D01*
X151338Y102464D01*
X151344Y102319D01*
X151346Y102174D01*
X150797Y104559D02*
X150771Y104628D01*
X150742Y104695D01*
X150709Y104761D01*
X150673Y104824D01*
X150633Y104886D01*
X150590Y104945D01*
X150544Y105002D01*
X150495Y105056D01*
X150443Y105108D01*
X150388Y105157D01*
X150331Y105202D01*
X150271Y105245D01*
X150209Y105284D01*
X150146Y105320D01*
X150080Y105353D01*
X150013Y105381D01*
X149944Y105407D01*
X149874Y105428D01*
X149803Y105446D01*
X149731Y105459D01*
X149658Y105469D01*
X149585Y105475D01*
X149512Y105477D01*
X149512Y105476D02*
X149439Y105474D01*
X149366Y105468D01*
X149293Y105458D01*
X149222Y105445D01*
X149150Y105427D01*
X149080Y105406D01*
X149012Y105380D01*
X148944Y105352D01*
X148879Y105319D01*
X148815Y105283D01*
X148753Y105244D01*
X148694Y105202D01*
X148637Y105156D01*
X148582Y105107D01*
X148530Y105056D01*
X148481Y105001D01*
X148435Y104944D01*
X148392Y104885D01*
X148352Y104824D01*
X148316Y104760D01*
X148283Y104695D01*
X148254Y104628D01*
X148228Y104559D01*
X148166Y104427D01*
X148108Y104294D01*
X148053Y104160D01*
X148002Y104024D01*
X147955Y103887D01*
X147911Y103748D01*
X147871Y103609D01*
X147834Y103468D01*
X147802Y103327D01*
X147773Y103185D01*
X147748Y103042D01*
X147726Y102898D01*
X147709Y102754D01*
X147695Y102609D01*
X147686Y102464D01*
X147680Y102319D01*
X147678Y102174D01*
X151346Y102174D02*
X151344Y102029D01*
X151338Y101884D01*
X151329Y101739D01*
X151315Y101594D01*
X151298Y101450D01*
X151276Y101307D01*
X151251Y101164D01*
X151223Y101021D01*
X151190Y100880D01*
X151153Y100739D01*
X151113Y100600D01*
X151069Y100461D01*
X151022Y100324D01*
X150971Y100188D01*
X150916Y100054D01*
X150858Y99921D01*
X150796Y99789D01*
X150797Y99790D02*
X150771Y99721D01*
X150742Y99654D01*
X150709Y99588D01*
X150673Y99525D01*
X150633Y99463D01*
X150590Y99404D01*
X150544Y99347D01*
X150495Y99293D01*
X150443Y99241D01*
X150388Y99192D01*
X150331Y99147D01*
X150271Y99104D01*
X150209Y99065D01*
X150146Y99029D01*
X150080Y98996D01*
X150013Y98968D01*
X149944Y98942D01*
X149874Y98921D01*
X149803Y98903D01*
X149731Y98890D01*
X149658Y98880D01*
X149585Y98874D01*
X149512Y98872D01*
X148228Y99789D02*
X148166Y99921D01*
X148108Y100054D01*
X148053Y100188D01*
X148002Y100324D01*
X147955Y100461D01*
X147911Y100600D01*
X147871Y100739D01*
X147834Y100880D01*
X147802Y101021D01*
X147773Y101163D01*
X147748Y101306D01*
X147726Y101450D01*
X147709Y101594D01*
X147695Y101739D01*
X147686Y101884D01*
X147680Y102029D01*
X147678Y102174D01*
X148228Y99789D02*
X148254Y99720D01*
X148283Y99653D01*
X148316Y99588D01*
X148352Y99524D01*
X148392Y99463D01*
X148435Y99404D01*
X148481Y99347D01*
X148530Y99292D01*
X148582Y99241D01*
X148637Y99192D01*
X148694Y99146D01*
X148753Y99104D01*
X148815Y99065D01*
X148879Y99029D01*
X148944Y98996D01*
X149012Y98968D01*
X149080Y98942D01*
X149150Y98921D01*
X149222Y98903D01*
X149293Y98890D01*
X149366Y98880D01*
X149439Y98874D01*
X149512Y98872D01*
X150980Y100340D02*
X148045Y104008D01*
X144031Y100340D02*
X142564Y105476D01*
X144031Y100340D02*
X140362Y100340D01*
X141463Y101807D02*
X141463Y98872D01*
X154543Y111572D02*
X156010Y111572D01*
X156084Y111574D01*
X156159Y111580D01*
X156232Y111589D01*
X156306Y111602D01*
X156378Y111619D01*
X156449Y111639D01*
X156520Y111663D01*
X156589Y111691D01*
X156657Y111722D01*
X156722Y111756D01*
X156787Y111794D01*
X156849Y111835D01*
X156909Y111879D01*
X156966Y111926D01*
X157021Y111976D01*
X157074Y112029D01*
X157124Y112084D01*
X157171Y112141D01*
X157215Y112201D01*
X157256Y112263D01*
X157294Y112328D01*
X157328Y112394D01*
X157359Y112461D01*
X157387Y112530D01*
X157411Y112601D01*
X157431Y112672D01*
X157448Y112745D01*
X157461Y112818D01*
X157470Y112892D01*
X157476Y112966D01*
X157478Y113040D01*
X157478Y116708D01*
X157476Y116782D01*
X157470Y116857D01*
X157461Y116930D01*
X157448Y117003D01*
X157431Y117076D01*
X157411Y117147D01*
X157387Y117218D01*
X157359Y117287D01*
X157328Y117354D01*
X157294Y117420D01*
X157256Y117485D01*
X157215Y117547D01*
X157171Y117607D01*
X157124Y117664D01*
X157074Y117719D01*
X157021Y117772D01*
X156966Y117822D01*
X156909Y117869D01*
X156849Y117913D01*
X156787Y117954D01*
X156722Y117992D01*
X156657Y118026D01*
X156589Y118057D01*
X156520Y118085D01*
X156450Y118109D01*
X156378Y118129D01*
X156306Y118146D01*
X156232Y118159D01*
X156159Y118168D01*
X156084Y118174D01*
X156010Y118176D01*
X154543Y118176D01*
X150796Y117259D02*
X150858Y117127D01*
X150916Y116994D01*
X150971Y116860D01*
X151022Y116724D01*
X151069Y116587D01*
X151113Y116448D01*
X151153Y116309D01*
X151190Y116168D01*
X151222Y116027D01*
X151251Y115885D01*
X151276Y115741D01*
X151298Y115598D01*
X151315Y115454D01*
X151329Y115309D01*
X151338Y115164D01*
X151344Y115019D01*
X151346Y114874D01*
X150797Y117259D02*
X150771Y117328D01*
X150742Y117395D01*
X150709Y117461D01*
X150673Y117524D01*
X150633Y117586D01*
X150590Y117645D01*
X150544Y117702D01*
X150495Y117756D01*
X150443Y117808D01*
X150388Y117857D01*
X150331Y117902D01*
X150271Y117945D01*
X150209Y117984D01*
X150146Y118020D01*
X150080Y118053D01*
X150013Y118081D01*
X149944Y118107D01*
X149874Y118128D01*
X149803Y118146D01*
X149731Y118159D01*
X149658Y118169D01*
X149585Y118175D01*
X149512Y118177D01*
X149512Y118176D02*
X149439Y118174D01*
X149366Y118168D01*
X149293Y118158D01*
X149222Y118145D01*
X149150Y118127D01*
X149080Y118106D01*
X149012Y118080D01*
X148944Y118052D01*
X148879Y118019D01*
X148815Y117983D01*
X148753Y117944D01*
X148694Y117902D01*
X148637Y117856D01*
X148582Y117807D01*
X148530Y117756D01*
X148481Y117701D01*
X148435Y117644D01*
X148392Y117585D01*
X148352Y117524D01*
X148316Y117460D01*
X148283Y117395D01*
X148254Y117328D01*
X148228Y117259D01*
X148166Y117127D01*
X148108Y116994D01*
X148053Y116860D01*
X148002Y116724D01*
X147955Y116587D01*
X147911Y116448D01*
X147871Y116309D01*
X147834Y116168D01*
X147802Y116027D01*
X147773Y115885D01*
X147748Y115742D01*
X147726Y115598D01*
X147709Y115454D01*
X147695Y115309D01*
X147686Y115164D01*
X147680Y115019D01*
X147678Y114874D01*
X151346Y114874D02*
X151344Y114729D01*
X151338Y114584D01*
X151329Y114439D01*
X151315Y114294D01*
X151298Y114150D01*
X151276Y114007D01*
X151251Y113864D01*
X151223Y113721D01*
X151190Y113580D01*
X151153Y113439D01*
X151113Y113300D01*
X151069Y113161D01*
X151022Y113024D01*
X150971Y112888D01*
X150916Y112754D01*
X150858Y112621D01*
X150796Y112489D01*
X150797Y112490D02*
X150771Y112421D01*
X150742Y112354D01*
X150709Y112288D01*
X150673Y112225D01*
X150633Y112163D01*
X150590Y112104D01*
X150544Y112047D01*
X150495Y111993D01*
X150443Y111941D01*
X150388Y111892D01*
X150331Y111847D01*
X150271Y111804D01*
X150209Y111765D01*
X150146Y111729D01*
X150080Y111696D01*
X150013Y111668D01*
X149944Y111642D01*
X149874Y111621D01*
X149803Y111603D01*
X149731Y111590D01*
X149658Y111580D01*
X149585Y111574D01*
X149512Y111572D01*
X148228Y112489D02*
X148166Y112621D01*
X148108Y112754D01*
X148053Y112888D01*
X148002Y113024D01*
X147955Y113161D01*
X147911Y113300D01*
X147871Y113439D01*
X147834Y113580D01*
X147802Y113721D01*
X147773Y113863D01*
X147748Y114006D01*
X147726Y114150D01*
X147709Y114294D01*
X147695Y114439D01*
X147686Y114584D01*
X147680Y114729D01*
X147678Y114874D01*
X148228Y112489D02*
X148254Y112420D01*
X148283Y112353D01*
X148316Y112288D01*
X148352Y112224D01*
X148392Y112163D01*
X148435Y112104D01*
X148481Y112047D01*
X148530Y111992D01*
X148582Y111941D01*
X148637Y111892D01*
X148694Y111846D01*
X148753Y111804D01*
X148815Y111765D01*
X148879Y111729D01*
X148944Y111696D01*
X149012Y111668D01*
X149080Y111642D01*
X149150Y111621D01*
X149222Y111603D01*
X149293Y111590D01*
X149366Y111580D01*
X149439Y111574D01*
X149512Y111572D01*
X150980Y113040D02*
X148045Y116708D01*
X144031Y111572D02*
X141830Y111572D01*
X141756Y111574D01*
X141681Y111580D01*
X141608Y111589D01*
X141534Y111602D01*
X141462Y111619D01*
X141391Y111639D01*
X141320Y111663D01*
X141251Y111691D01*
X141184Y111722D01*
X141118Y111756D01*
X141053Y111794D01*
X140991Y111835D01*
X140931Y111879D01*
X140874Y111926D01*
X140819Y111976D01*
X140766Y112029D01*
X140716Y112084D01*
X140669Y112141D01*
X140625Y112201D01*
X140584Y112263D01*
X140546Y112328D01*
X140512Y112393D01*
X140481Y112461D01*
X140453Y112530D01*
X140429Y112601D01*
X140409Y112672D01*
X140392Y112744D01*
X140379Y112818D01*
X140370Y112891D01*
X140364Y112966D01*
X140362Y113040D01*
X140362Y113773D01*
X140364Y113847D01*
X140370Y113922D01*
X140379Y113995D01*
X140392Y114069D01*
X140409Y114141D01*
X140429Y114212D01*
X140453Y114283D01*
X140481Y114352D01*
X140512Y114419D01*
X140546Y114485D01*
X140584Y114550D01*
X140625Y114612D01*
X140669Y114672D01*
X140716Y114729D01*
X140766Y114784D01*
X140819Y114837D01*
X140874Y114887D01*
X140931Y114934D01*
X140991Y114978D01*
X141053Y115019D01*
X141118Y115057D01*
X141184Y115091D01*
X141251Y115122D01*
X141320Y115150D01*
X141391Y115174D01*
X141462Y115194D01*
X141534Y115211D01*
X141608Y115224D01*
X141681Y115233D01*
X141756Y115239D01*
X141830Y115241D01*
X144031Y115241D01*
X144031Y118176D01*
X140362Y118176D01*
X157478Y124272D02*
X157478Y130876D01*
X155644Y130876D01*
X155559Y130874D01*
X155475Y130868D01*
X155391Y130858D01*
X155307Y130845D01*
X155224Y130827D01*
X155142Y130806D01*
X155061Y130781D01*
X154981Y130752D01*
X154903Y130720D01*
X154827Y130684D01*
X154752Y130644D01*
X154679Y130601D01*
X154608Y130555D01*
X154539Y130506D01*
X154472Y130453D01*
X154408Y130397D01*
X154347Y130339D01*
X154289Y130278D01*
X154233Y130214D01*
X154180Y130147D01*
X154131Y130078D01*
X154085Y130007D01*
X154042Y129934D01*
X154002Y129859D01*
X153966Y129783D01*
X153934Y129705D01*
X153905Y129625D01*
X153880Y129544D01*
X153859Y129462D01*
X153841Y129379D01*
X153828Y129295D01*
X153818Y129211D01*
X153812Y129127D01*
X153810Y129042D01*
X153812Y128957D01*
X153818Y128873D01*
X153828Y128789D01*
X153841Y128705D01*
X153859Y128622D01*
X153880Y128540D01*
X153905Y128459D01*
X153934Y128379D01*
X153966Y128301D01*
X154002Y128225D01*
X154042Y128150D01*
X154085Y128077D01*
X154131Y128006D01*
X154180Y127937D01*
X154233Y127870D01*
X154289Y127806D01*
X154347Y127745D01*
X154408Y127687D01*
X154472Y127631D01*
X154539Y127578D01*
X154608Y127529D01*
X154679Y127483D01*
X154752Y127440D01*
X154827Y127400D01*
X154903Y127364D01*
X154981Y127332D01*
X155061Y127303D01*
X155142Y127278D01*
X155224Y127257D01*
X155307Y127239D01*
X155391Y127226D01*
X155475Y127216D01*
X155559Y127210D01*
X155644Y127208D01*
X155644Y127207D02*
X157478Y127207D01*
X155277Y127207D02*
X153809Y124272D01*
X148284Y124272D02*
X148210Y124274D01*
X148135Y124280D01*
X148062Y124289D01*
X147988Y124302D01*
X147916Y124319D01*
X147845Y124339D01*
X147774Y124363D01*
X147705Y124391D01*
X147638Y124422D01*
X147572Y124456D01*
X147507Y124494D01*
X147445Y124535D01*
X147385Y124579D01*
X147328Y124626D01*
X147273Y124676D01*
X147220Y124729D01*
X147170Y124784D01*
X147123Y124841D01*
X147079Y124901D01*
X147038Y124963D01*
X147000Y125028D01*
X146966Y125094D01*
X146935Y125161D01*
X146907Y125230D01*
X146883Y125301D01*
X146863Y125372D01*
X146846Y125444D01*
X146833Y125518D01*
X146824Y125591D01*
X146818Y125666D01*
X146816Y125740D01*
X148284Y124272D02*
X148395Y124274D01*
X148506Y124280D01*
X148617Y124290D01*
X148728Y124304D01*
X148837Y124322D01*
X148946Y124344D01*
X149055Y124369D01*
X149162Y124399D01*
X149268Y124432D01*
X149373Y124470D01*
X149476Y124510D01*
X149578Y124555D01*
X149678Y124603D01*
X149777Y124655D01*
X149873Y124710D01*
X149968Y124769D01*
X150060Y124831D01*
X150150Y124897D01*
X150238Y124965D01*
X150323Y125037D01*
X150405Y125112D01*
X150485Y125189D01*
X150302Y129408D02*
X150300Y129482D01*
X150294Y129557D01*
X150285Y129630D01*
X150272Y129704D01*
X150255Y129776D01*
X150235Y129847D01*
X150211Y129918D01*
X150183Y129987D01*
X150152Y130054D01*
X150118Y130120D01*
X150080Y130185D01*
X150039Y130247D01*
X149995Y130307D01*
X149948Y130364D01*
X149898Y130419D01*
X149845Y130472D01*
X149790Y130522D01*
X149733Y130569D01*
X149673Y130613D01*
X149611Y130654D01*
X149546Y130692D01*
X149480Y130726D01*
X149413Y130757D01*
X149344Y130785D01*
X149273Y130809D01*
X149202Y130829D01*
X149130Y130846D01*
X149056Y130859D01*
X148983Y130868D01*
X148908Y130874D01*
X148834Y130876D01*
X148730Y130874D01*
X148626Y130868D01*
X148522Y130858D01*
X148419Y130845D01*
X148316Y130827D01*
X148214Y130805D01*
X148113Y130780D01*
X148013Y130751D01*
X147914Y130718D01*
X147817Y130681D01*
X147721Y130641D01*
X147626Y130597D01*
X147534Y130549D01*
X147443Y130499D01*
X147354Y130444D01*
X147267Y130387D01*
X147183Y130326D01*
X149568Y128123D02*
X149631Y128162D01*
X149691Y128204D01*
X149750Y128249D01*
X149806Y128297D01*
X149859Y128348D01*
X149910Y128401D01*
X149959Y128456D01*
X150004Y128514D01*
X150047Y128574D01*
X150087Y128636D01*
X150123Y128700D01*
X150157Y128766D01*
X150187Y128834D01*
X150214Y128902D01*
X150237Y128972D01*
X150257Y129043D01*
X150273Y129115D01*
X150286Y129188D01*
X150295Y129261D01*
X150300Y129334D01*
X150302Y129408D01*
X147550Y127025D02*
X147487Y126986D01*
X147427Y126944D01*
X147369Y126899D01*
X147312Y126851D01*
X147259Y126800D01*
X147208Y126747D01*
X147159Y126692D01*
X147114Y126634D01*
X147071Y126574D01*
X147031Y126512D01*
X146995Y126448D01*
X146961Y126382D01*
X146931Y126314D01*
X146904Y126246D01*
X146881Y126176D01*
X146861Y126105D01*
X146845Y126033D01*
X146832Y125960D01*
X146823Y125887D01*
X146818Y125814D01*
X146816Y125740D01*
X147550Y127024D02*
X149568Y128124D01*
X142067Y130876D02*
X142067Y124272D01*
X140233Y130876D02*
X143902Y130876D01*
X26877Y27498D02*
X29078Y20894D01*
X24675Y20894D02*
X26877Y27498D01*
X25226Y22545D02*
X28528Y22545D01*
X21396Y24196D02*
X21394Y24341D01*
X21388Y24486D01*
X21379Y24631D01*
X21365Y24776D01*
X21348Y24920D01*
X21326Y25063D01*
X21301Y25207D01*
X21272Y25349D01*
X21240Y25490D01*
X21203Y25631D01*
X21163Y25770D01*
X21119Y25909D01*
X21072Y26046D01*
X21021Y26182D01*
X20966Y26316D01*
X20908Y26449D01*
X20846Y26581D01*
X20847Y26581D02*
X20821Y26650D01*
X20792Y26717D01*
X20759Y26783D01*
X20723Y26846D01*
X20683Y26908D01*
X20640Y26967D01*
X20594Y27024D01*
X20545Y27078D01*
X20493Y27130D01*
X20438Y27179D01*
X20381Y27224D01*
X20321Y27267D01*
X20259Y27306D01*
X20196Y27342D01*
X20130Y27375D01*
X20063Y27403D01*
X19994Y27429D01*
X19924Y27450D01*
X19853Y27468D01*
X19781Y27481D01*
X19708Y27491D01*
X19635Y27497D01*
X19562Y27499D01*
X19562Y27498D02*
X19489Y27496D01*
X19416Y27490D01*
X19343Y27480D01*
X19272Y27467D01*
X19200Y27449D01*
X19130Y27428D01*
X19062Y27402D01*
X18994Y27374D01*
X18929Y27341D01*
X18865Y27305D01*
X18803Y27266D01*
X18744Y27224D01*
X18687Y27178D01*
X18632Y27129D01*
X18580Y27078D01*
X18531Y27023D01*
X18485Y26966D01*
X18442Y26907D01*
X18402Y26846D01*
X18366Y26782D01*
X18333Y26717D01*
X18304Y26650D01*
X18278Y26581D01*
X18277Y26581D02*
X18215Y26449D01*
X18157Y26316D01*
X18102Y26182D01*
X18051Y26046D01*
X18004Y25909D01*
X17960Y25770D01*
X17920Y25631D01*
X17883Y25490D01*
X17851Y25349D01*
X17822Y25207D01*
X17797Y25064D01*
X17775Y24920D01*
X17758Y24776D01*
X17744Y24631D01*
X17735Y24486D01*
X17729Y24341D01*
X17727Y24196D01*
X21396Y24196D02*
X21394Y24051D01*
X21388Y23906D01*
X21379Y23761D01*
X21365Y23616D01*
X21348Y23472D01*
X21326Y23329D01*
X21301Y23186D01*
X21273Y23043D01*
X21240Y22902D01*
X21203Y22761D01*
X21163Y22622D01*
X21119Y22483D01*
X21072Y22346D01*
X21021Y22210D01*
X20966Y22076D01*
X20908Y21943D01*
X20846Y21811D01*
X20847Y21812D02*
X20821Y21743D01*
X20792Y21676D01*
X20759Y21610D01*
X20723Y21547D01*
X20683Y21485D01*
X20640Y21426D01*
X20594Y21369D01*
X20545Y21315D01*
X20493Y21263D01*
X20438Y21214D01*
X20381Y21169D01*
X20321Y21126D01*
X20259Y21087D01*
X20196Y21051D01*
X20130Y21018D01*
X20063Y20990D01*
X19994Y20964D01*
X19924Y20943D01*
X19853Y20925D01*
X19781Y20912D01*
X19708Y20902D01*
X19635Y20896D01*
X19562Y20894D01*
X18277Y21811D02*
X18215Y21943D01*
X18157Y22076D01*
X18102Y22210D01*
X18051Y22346D01*
X18004Y22483D01*
X17960Y22622D01*
X17920Y22761D01*
X17883Y22902D01*
X17851Y23043D01*
X17822Y23185D01*
X17797Y23328D01*
X17775Y23472D01*
X17758Y23616D01*
X17744Y23761D01*
X17735Y23906D01*
X17729Y24051D01*
X17727Y24196D01*
X18278Y21811D02*
X18304Y21742D01*
X18333Y21675D01*
X18366Y21610D01*
X18402Y21546D01*
X18442Y21485D01*
X18485Y21426D01*
X18531Y21369D01*
X18580Y21314D01*
X18632Y21263D01*
X18687Y21214D01*
X18744Y21168D01*
X18803Y21126D01*
X18865Y21087D01*
X18929Y21051D01*
X18994Y21018D01*
X19062Y20990D01*
X19130Y20964D01*
X19200Y20943D01*
X19272Y20925D01*
X19343Y20912D01*
X19416Y20902D01*
X19489Y20896D01*
X19562Y20894D01*
X21029Y22362D02*
X18094Y26030D01*
X14081Y20894D02*
X11880Y20894D01*
X11806Y20896D01*
X11731Y20902D01*
X11658Y20911D01*
X11584Y20924D01*
X11512Y20941D01*
X11441Y20961D01*
X11370Y20985D01*
X11301Y21013D01*
X11234Y21044D01*
X11168Y21078D01*
X11103Y21116D01*
X11041Y21157D01*
X10981Y21201D01*
X10924Y21248D01*
X10869Y21298D01*
X10816Y21351D01*
X10766Y21406D01*
X10719Y21463D01*
X10675Y21523D01*
X10634Y21585D01*
X10596Y21650D01*
X10562Y21715D01*
X10531Y21783D01*
X10503Y21852D01*
X10479Y21923D01*
X10459Y21994D01*
X10442Y22066D01*
X10429Y22140D01*
X10420Y22213D01*
X10414Y22288D01*
X10412Y22362D01*
X10412Y23095D01*
X10414Y23169D01*
X10420Y23244D01*
X10429Y23317D01*
X10442Y23391D01*
X10459Y23463D01*
X10479Y23534D01*
X10503Y23605D01*
X10531Y23674D01*
X10562Y23741D01*
X10596Y23807D01*
X10634Y23872D01*
X10675Y23934D01*
X10719Y23994D01*
X10766Y24051D01*
X10816Y24106D01*
X10869Y24159D01*
X10924Y24209D01*
X10981Y24256D01*
X11041Y24300D01*
X11103Y24341D01*
X11168Y24379D01*
X11234Y24413D01*
X11301Y24444D01*
X11370Y24472D01*
X11441Y24496D01*
X11512Y24516D01*
X11584Y24533D01*
X11658Y24546D01*
X11731Y24555D01*
X11806Y24561D01*
X11880Y24563D01*
X14081Y24563D01*
X14081Y27498D01*
X10412Y27498D01*
X51748Y33594D02*
X51748Y40198D01*
X49914Y40198D02*
X53583Y40198D01*
X46512Y40198D02*
X46512Y33594D01*
X46512Y40198D02*
X44677Y40198D01*
X44592Y40196D01*
X44508Y40190D01*
X44424Y40180D01*
X44340Y40167D01*
X44257Y40149D01*
X44175Y40128D01*
X44094Y40103D01*
X44014Y40074D01*
X43936Y40042D01*
X43860Y40006D01*
X43785Y39966D01*
X43712Y39923D01*
X43641Y39877D01*
X43572Y39828D01*
X43505Y39775D01*
X43441Y39719D01*
X43380Y39661D01*
X43322Y39600D01*
X43266Y39536D01*
X43213Y39469D01*
X43164Y39400D01*
X43118Y39329D01*
X43075Y39256D01*
X43035Y39181D01*
X42999Y39105D01*
X42967Y39027D01*
X42938Y38947D01*
X42913Y38866D01*
X42892Y38784D01*
X42874Y38701D01*
X42861Y38617D01*
X42851Y38533D01*
X42845Y38449D01*
X42843Y38364D01*
X42843Y35428D01*
X42845Y35343D01*
X42851Y35259D01*
X42861Y35175D01*
X42874Y35091D01*
X42892Y35008D01*
X42913Y34926D01*
X42938Y34845D01*
X42967Y34765D01*
X42999Y34687D01*
X43035Y34611D01*
X43075Y34536D01*
X43118Y34463D01*
X43164Y34392D01*
X43213Y34323D01*
X43266Y34256D01*
X43322Y34192D01*
X43380Y34131D01*
X43441Y34073D01*
X43505Y34017D01*
X43572Y33964D01*
X43641Y33915D01*
X43712Y33869D01*
X43785Y33826D01*
X43860Y33786D01*
X43936Y33750D01*
X44014Y33718D01*
X44094Y33689D01*
X44175Y33664D01*
X44257Y33643D01*
X44340Y33625D01*
X44424Y33612D01*
X44508Y33602D01*
X44592Y33596D01*
X44677Y33594D01*
X46512Y33594D01*
X38581Y33594D02*
X38581Y40198D01*
X39315Y33594D02*
X37847Y33594D01*
X37847Y40198D02*
X39315Y40198D01*
X31993Y40932D02*
X34928Y32860D01*
X29078Y33594D02*
X26877Y40198D01*
X24675Y33594D01*
X25226Y35245D02*
X28528Y35245D01*
X21396Y36896D02*
X21394Y37041D01*
X21388Y37186D01*
X21379Y37331D01*
X21365Y37476D01*
X21348Y37620D01*
X21326Y37763D01*
X21301Y37907D01*
X21272Y38049D01*
X21240Y38190D01*
X21203Y38331D01*
X21163Y38470D01*
X21119Y38609D01*
X21072Y38746D01*
X21021Y38882D01*
X20966Y39016D01*
X20908Y39149D01*
X20846Y39281D01*
X20847Y39281D02*
X20821Y39350D01*
X20792Y39417D01*
X20759Y39483D01*
X20723Y39546D01*
X20683Y39608D01*
X20640Y39667D01*
X20594Y39724D01*
X20545Y39778D01*
X20493Y39830D01*
X20438Y39879D01*
X20381Y39924D01*
X20321Y39967D01*
X20259Y40006D01*
X20196Y40042D01*
X20130Y40075D01*
X20063Y40103D01*
X19994Y40129D01*
X19924Y40150D01*
X19853Y40168D01*
X19781Y40181D01*
X19708Y40191D01*
X19635Y40197D01*
X19562Y40199D01*
X19562Y40198D02*
X19489Y40196D01*
X19416Y40190D01*
X19343Y40180D01*
X19272Y40167D01*
X19200Y40149D01*
X19130Y40128D01*
X19062Y40102D01*
X18994Y40074D01*
X18929Y40041D01*
X18865Y40005D01*
X18803Y39966D01*
X18744Y39924D01*
X18687Y39878D01*
X18632Y39829D01*
X18580Y39778D01*
X18531Y39723D01*
X18485Y39666D01*
X18442Y39607D01*
X18402Y39546D01*
X18366Y39482D01*
X18333Y39417D01*
X18304Y39350D01*
X18278Y39281D01*
X18277Y39281D02*
X18215Y39149D01*
X18157Y39016D01*
X18102Y38882D01*
X18051Y38746D01*
X18004Y38609D01*
X17960Y38470D01*
X17920Y38331D01*
X17883Y38190D01*
X17851Y38049D01*
X17822Y37907D01*
X17797Y37764D01*
X17775Y37620D01*
X17758Y37476D01*
X17744Y37331D01*
X17735Y37186D01*
X17729Y37041D01*
X17727Y36896D01*
X21396Y36896D02*
X21394Y36751D01*
X21388Y36606D01*
X21379Y36461D01*
X21365Y36316D01*
X21348Y36172D01*
X21326Y36029D01*
X21301Y35886D01*
X21273Y35743D01*
X21240Y35602D01*
X21203Y35461D01*
X21163Y35322D01*
X21119Y35183D01*
X21072Y35046D01*
X21021Y34910D01*
X20966Y34776D01*
X20908Y34643D01*
X20846Y34511D01*
X20847Y34512D02*
X20821Y34443D01*
X20792Y34376D01*
X20759Y34310D01*
X20723Y34247D01*
X20683Y34185D01*
X20640Y34126D01*
X20594Y34069D01*
X20545Y34015D01*
X20493Y33963D01*
X20438Y33914D01*
X20381Y33869D01*
X20321Y33826D01*
X20259Y33787D01*
X20196Y33751D01*
X20130Y33718D01*
X20063Y33690D01*
X19994Y33664D01*
X19924Y33643D01*
X19853Y33625D01*
X19781Y33612D01*
X19708Y33602D01*
X19635Y33596D01*
X19562Y33594D01*
X18277Y34511D02*
X18215Y34643D01*
X18157Y34776D01*
X18102Y34910D01*
X18051Y35046D01*
X18004Y35183D01*
X17960Y35322D01*
X17920Y35461D01*
X17883Y35602D01*
X17851Y35743D01*
X17822Y35885D01*
X17797Y36028D01*
X17775Y36172D01*
X17758Y36316D01*
X17744Y36461D01*
X17735Y36606D01*
X17729Y36751D01*
X17727Y36896D01*
X18278Y34511D02*
X18304Y34442D01*
X18333Y34375D01*
X18366Y34310D01*
X18402Y34246D01*
X18442Y34185D01*
X18485Y34126D01*
X18531Y34069D01*
X18580Y34014D01*
X18632Y33963D01*
X18687Y33914D01*
X18744Y33868D01*
X18803Y33826D01*
X18865Y33787D01*
X18929Y33751D01*
X18994Y33718D01*
X19062Y33690D01*
X19130Y33664D01*
X19200Y33643D01*
X19272Y33625D01*
X19343Y33612D01*
X19416Y33602D01*
X19489Y33596D01*
X19562Y33594D01*
X21029Y35062D02*
X18094Y38730D01*
X14081Y35062D02*
X12613Y40198D01*
X14081Y35062D02*
X10412Y35062D01*
X11513Y36529D02*
X11513Y33594D01*
X54675Y46294D02*
X54675Y52898D01*
X56509Y52898D02*
X52840Y52898D01*
X49438Y52898D02*
X49438Y46294D01*
X49438Y52898D02*
X47603Y52898D01*
X47518Y52896D01*
X47434Y52890D01*
X47350Y52880D01*
X47266Y52867D01*
X47183Y52849D01*
X47101Y52828D01*
X47020Y52803D01*
X46940Y52774D01*
X46862Y52742D01*
X46786Y52706D01*
X46711Y52666D01*
X46638Y52623D01*
X46567Y52577D01*
X46498Y52528D01*
X46431Y52475D01*
X46367Y52419D01*
X46306Y52361D01*
X46248Y52300D01*
X46192Y52236D01*
X46139Y52169D01*
X46090Y52100D01*
X46044Y52029D01*
X46001Y51956D01*
X45961Y51881D01*
X45925Y51805D01*
X45893Y51727D01*
X45864Y51647D01*
X45839Y51566D01*
X45818Y51484D01*
X45800Y51401D01*
X45787Y51317D01*
X45777Y51233D01*
X45771Y51149D01*
X45769Y51064D01*
X45769Y48128D01*
X45771Y48043D01*
X45777Y47959D01*
X45787Y47875D01*
X45800Y47791D01*
X45818Y47708D01*
X45839Y47626D01*
X45864Y47545D01*
X45893Y47465D01*
X45925Y47387D01*
X45961Y47311D01*
X46001Y47236D01*
X46044Y47163D01*
X46090Y47092D01*
X46139Y47023D01*
X46192Y46956D01*
X46248Y46892D01*
X46306Y46831D01*
X46367Y46773D01*
X46431Y46717D01*
X46498Y46664D01*
X46567Y46615D01*
X46638Y46569D01*
X46711Y46526D01*
X46786Y46486D01*
X46862Y46450D01*
X46940Y46418D01*
X47020Y46389D01*
X47101Y46364D01*
X47183Y46343D01*
X47266Y46325D01*
X47350Y46312D01*
X47434Y46302D01*
X47518Y46296D01*
X47603Y46294D01*
X49438Y46294D01*
X41879Y48128D02*
X41879Y51064D01*
X41878Y51064D02*
X41876Y51149D01*
X41870Y51233D01*
X41860Y51317D01*
X41847Y51401D01*
X41829Y51484D01*
X41808Y51566D01*
X41783Y51647D01*
X41754Y51727D01*
X41722Y51805D01*
X41686Y51881D01*
X41646Y51956D01*
X41603Y52029D01*
X41557Y52100D01*
X41508Y52169D01*
X41455Y52236D01*
X41399Y52300D01*
X41341Y52361D01*
X41280Y52419D01*
X41216Y52475D01*
X41149Y52528D01*
X41080Y52577D01*
X41009Y52623D01*
X40936Y52666D01*
X40861Y52706D01*
X40785Y52742D01*
X40707Y52774D01*
X40627Y52803D01*
X40546Y52828D01*
X40464Y52849D01*
X40381Y52867D01*
X40297Y52880D01*
X40213Y52890D01*
X40129Y52896D01*
X40044Y52898D01*
X39959Y52896D01*
X39875Y52890D01*
X39791Y52880D01*
X39707Y52867D01*
X39624Y52849D01*
X39542Y52828D01*
X39461Y52803D01*
X39381Y52774D01*
X39303Y52742D01*
X39227Y52706D01*
X39152Y52666D01*
X39079Y52623D01*
X39008Y52577D01*
X38939Y52528D01*
X38872Y52475D01*
X38808Y52419D01*
X38747Y52361D01*
X38689Y52300D01*
X38633Y52236D01*
X38580Y52169D01*
X38531Y52100D01*
X38485Y52029D01*
X38442Y51956D01*
X38402Y51881D01*
X38366Y51805D01*
X38334Y51727D01*
X38305Y51647D01*
X38280Y51566D01*
X38259Y51484D01*
X38241Y51401D01*
X38228Y51317D01*
X38218Y51233D01*
X38212Y51149D01*
X38210Y51064D01*
X38210Y48128D01*
X38212Y48043D01*
X38218Y47959D01*
X38228Y47875D01*
X38241Y47791D01*
X38259Y47708D01*
X38280Y47626D01*
X38305Y47545D01*
X38334Y47465D01*
X38366Y47387D01*
X38402Y47311D01*
X38442Y47236D01*
X38485Y47163D01*
X38531Y47092D01*
X38580Y47023D01*
X38633Y46956D01*
X38689Y46892D01*
X38747Y46831D01*
X38808Y46773D01*
X38872Y46717D01*
X38939Y46664D01*
X39008Y46615D01*
X39079Y46569D01*
X39152Y46526D01*
X39227Y46486D01*
X39303Y46450D01*
X39381Y46418D01*
X39461Y46389D01*
X39542Y46364D01*
X39624Y46343D01*
X39707Y46325D01*
X39791Y46312D01*
X39875Y46302D01*
X39959Y46296D01*
X40044Y46294D01*
X40129Y46296D01*
X40213Y46302D01*
X40297Y46312D01*
X40381Y46325D01*
X40464Y46343D01*
X40546Y46364D01*
X40627Y46389D01*
X40707Y46418D01*
X40785Y46450D01*
X40861Y46486D01*
X40936Y46526D01*
X41009Y46569D01*
X41080Y46615D01*
X41149Y46664D01*
X41216Y46717D01*
X41280Y46773D01*
X41341Y46831D01*
X41399Y46892D01*
X41455Y46956D01*
X41508Y47023D01*
X41557Y47092D01*
X41603Y47163D01*
X41646Y47236D01*
X41686Y47311D01*
X41722Y47387D01*
X41754Y47465D01*
X41783Y47545D01*
X41808Y47626D01*
X41829Y47708D01*
X41847Y47791D01*
X41860Y47875D01*
X41870Y47959D01*
X41876Y48043D01*
X41878Y48128D01*
X34928Y45560D02*
X31993Y53632D01*
X26877Y52898D02*
X29078Y46294D01*
X24675Y46294D02*
X26877Y52898D01*
X25226Y47945D02*
X28528Y47945D01*
X21396Y49596D02*
X21394Y49741D01*
X21388Y49886D01*
X21379Y50031D01*
X21365Y50176D01*
X21348Y50320D01*
X21326Y50463D01*
X21301Y50607D01*
X21272Y50749D01*
X21240Y50890D01*
X21203Y51031D01*
X21163Y51170D01*
X21119Y51309D01*
X21072Y51446D01*
X21021Y51582D01*
X20966Y51716D01*
X20908Y51849D01*
X20846Y51981D01*
X20847Y51981D02*
X20821Y52050D01*
X20792Y52117D01*
X20759Y52183D01*
X20723Y52246D01*
X20683Y52308D01*
X20640Y52367D01*
X20594Y52424D01*
X20545Y52478D01*
X20493Y52530D01*
X20438Y52579D01*
X20381Y52624D01*
X20321Y52667D01*
X20259Y52706D01*
X20196Y52742D01*
X20130Y52775D01*
X20063Y52803D01*
X19994Y52829D01*
X19924Y52850D01*
X19853Y52868D01*
X19781Y52881D01*
X19708Y52891D01*
X19635Y52897D01*
X19562Y52899D01*
X19562Y52898D02*
X19489Y52896D01*
X19416Y52890D01*
X19343Y52880D01*
X19272Y52867D01*
X19200Y52849D01*
X19130Y52828D01*
X19062Y52802D01*
X18994Y52774D01*
X18929Y52741D01*
X18865Y52705D01*
X18803Y52666D01*
X18744Y52624D01*
X18687Y52578D01*
X18632Y52529D01*
X18580Y52478D01*
X18531Y52423D01*
X18485Y52366D01*
X18442Y52307D01*
X18402Y52246D01*
X18366Y52182D01*
X18333Y52117D01*
X18304Y52050D01*
X18278Y51981D01*
X18277Y51981D02*
X18215Y51849D01*
X18157Y51716D01*
X18102Y51582D01*
X18051Y51446D01*
X18004Y51309D01*
X17960Y51170D01*
X17920Y51031D01*
X17883Y50890D01*
X17851Y50749D01*
X17822Y50607D01*
X17797Y50464D01*
X17775Y50320D01*
X17758Y50176D01*
X17744Y50031D01*
X17735Y49886D01*
X17729Y49741D01*
X17727Y49596D01*
X21396Y49596D02*
X21394Y49451D01*
X21388Y49306D01*
X21379Y49161D01*
X21365Y49016D01*
X21348Y48872D01*
X21326Y48729D01*
X21301Y48586D01*
X21273Y48443D01*
X21240Y48302D01*
X21203Y48161D01*
X21163Y48022D01*
X21119Y47883D01*
X21072Y47746D01*
X21021Y47610D01*
X20966Y47476D01*
X20908Y47343D01*
X20846Y47211D01*
X20847Y47212D02*
X20821Y47143D01*
X20792Y47076D01*
X20759Y47010D01*
X20723Y46947D01*
X20683Y46885D01*
X20640Y46826D01*
X20594Y46769D01*
X20545Y46715D01*
X20493Y46663D01*
X20438Y46614D01*
X20381Y46569D01*
X20321Y46526D01*
X20259Y46487D01*
X20196Y46451D01*
X20130Y46418D01*
X20063Y46390D01*
X19994Y46364D01*
X19924Y46343D01*
X19853Y46325D01*
X19781Y46312D01*
X19708Y46302D01*
X19635Y46296D01*
X19562Y46294D01*
X18277Y47211D02*
X18215Y47343D01*
X18157Y47476D01*
X18102Y47610D01*
X18051Y47746D01*
X18004Y47883D01*
X17960Y48022D01*
X17920Y48161D01*
X17883Y48302D01*
X17851Y48443D01*
X17822Y48585D01*
X17797Y48728D01*
X17775Y48872D01*
X17758Y49016D01*
X17744Y49161D01*
X17735Y49306D01*
X17729Y49451D01*
X17727Y49596D01*
X18278Y47211D02*
X18304Y47142D01*
X18333Y47075D01*
X18366Y47010D01*
X18402Y46946D01*
X18442Y46885D01*
X18485Y46826D01*
X18531Y46769D01*
X18580Y46714D01*
X18632Y46663D01*
X18687Y46614D01*
X18744Y46568D01*
X18803Y46526D01*
X18865Y46487D01*
X18929Y46451D01*
X18994Y46418D01*
X19062Y46390D01*
X19130Y46364D01*
X19200Y46343D01*
X19272Y46325D01*
X19343Y46312D01*
X19416Y46302D01*
X19489Y46296D01*
X19562Y46294D01*
X21029Y47762D02*
X18094Y51430D01*
X14081Y46294D02*
X12246Y46294D01*
X12161Y46296D01*
X12077Y46302D01*
X11993Y46312D01*
X11909Y46325D01*
X11826Y46343D01*
X11744Y46364D01*
X11663Y46389D01*
X11583Y46418D01*
X11505Y46450D01*
X11429Y46486D01*
X11354Y46526D01*
X11281Y46569D01*
X11210Y46615D01*
X11141Y46664D01*
X11074Y46717D01*
X11010Y46773D01*
X10949Y46831D01*
X10891Y46892D01*
X10835Y46956D01*
X10782Y47023D01*
X10733Y47092D01*
X10687Y47163D01*
X10644Y47236D01*
X10604Y47311D01*
X10568Y47387D01*
X10536Y47465D01*
X10507Y47545D01*
X10482Y47626D01*
X10461Y47708D01*
X10443Y47791D01*
X10430Y47875D01*
X10420Y47959D01*
X10414Y48043D01*
X10412Y48128D01*
X10414Y48213D01*
X10420Y48297D01*
X10430Y48381D01*
X10443Y48465D01*
X10461Y48548D01*
X10482Y48630D01*
X10507Y48711D01*
X10536Y48791D01*
X10568Y48869D01*
X10604Y48945D01*
X10644Y49020D01*
X10687Y49093D01*
X10733Y49164D01*
X10782Y49233D01*
X10835Y49300D01*
X10891Y49364D01*
X10949Y49425D01*
X11010Y49483D01*
X11074Y49539D01*
X11141Y49592D01*
X11210Y49641D01*
X11281Y49687D01*
X11354Y49730D01*
X11429Y49770D01*
X11505Y49806D01*
X11583Y49838D01*
X11663Y49867D01*
X11744Y49892D01*
X11826Y49913D01*
X11909Y49931D01*
X11993Y49944D01*
X12077Y49954D01*
X12161Y49960D01*
X12246Y49962D01*
X11880Y52898D02*
X14081Y52898D01*
X11880Y52898D02*
X11804Y52896D01*
X11729Y52890D01*
X11654Y52881D01*
X11580Y52867D01*
X11506Y52850D01*
X11434Y52828D01*
X11362Y52804D01*
X11292Y52775D01*
X11224Y52743D01*
X11157Y52708D01*
X11092Y52669D01*
X11029Y52626D01*
X10969Y52581D01*
X10911Y52533D01*
X10855Y52481D01*
X10803Y52427D01*
X10753Y52370D01*
X10706Y52311D01*
X10662Y52250D01*
X10621Y52186D01*
X10584Y52120D01*
X10550Y52052D01*
X10520Y51983D01*
X10493Y51912D01*
X10470Y51840D01*
X10451Y51767D01*
X10436Y51693D01*
X10424Y51618D01*
X10416Y51543D01*
X10412Y51468D01*
X10412Y51392D01*
X10416Y51317D01*
X10424Y51242D01*
X10436Y51167D01*
X10451Y51093D01*
X10470Y51020D01*
X10493Y50948D01*
X10520Y50877D01*
X10550Y50808D01*
X10584Y50740D01*
X10621Y50674D01*
X10662Y50610D01*
X10706Y50549D01*
X10753Y50490D01*
X10803Y50433D01*
X10855Y50379D01*
X10911Y50327D01*
X10969Y50279D01*
X11029Y50234D01*
X11092Y50191D01*
X11157Y50152D01*
X11224Y50117D01*
X11292Y50085D01*
X11362Y50056D01*
X11434Y50032D01*
X11506Y50010D01*
X11580Y49993D01*
X11654Y49979D01*
X11729Y49970D01*
X11804Y49964D01*
X11880Y49962D01*
X11880Y49963D02*
X13347Y49963D01*
X55162Y58994D02*
X55162Y65598D01*
X53328Y65598D02*
X56997Y65598D01*
X49804Y65598D02*
X49804Y58994D01*
X47603Y61929D02*
X49804Y65598D01*
X47603Y61929D02*
X45402Y65598D01*
X45402Y58994D01*
X39433Y58994D02*
X39359Y58996D01*
X39284Y59002D01*
X39211Y59011D01*
X39137Y59024D01*
X39065Y59041D01*
X38994Y59061D01*
X38923Y59085D01*
X38854Y59113D01*
X38787Y59144D01*
X38721Y59178D01*
X38656Y59216D01*
X38594Y59257D01*
X38534Y59301D01*
X38477Y59348D01*
X38422Y59398D01*
X38369Y59451D01*
X38319Y59506D01*
X38272Y59563D01*
X38228Y59623D01*
X38187Y59685D01*
X38149Y59750D01*
X38115Y59816D01*
X38084Y59883D01*
X38056Y59952D01*
X38032Y60023D01*
X38012Y60094D01*
X37995Y60166D01*
X37982Y60240D01*
X37973Y60313D01*
X37967Y60388D01*
X37965Y60462D01*
X39433Y58994D02*
X39544Y58996D01*
X39655Y59002D01*
X39766Y59012D01*
X39877Y59026D01*
X39986Y59044D01*
X40095Y59066D01*
X40204Y59091D01*
X40311Y59121D01*
X40417Y59154D01*
X40522Y59192D01*
X40625Y59232D01*
X40727Y59277D01*
X40827Y59325D01*
X40926Y59377D01*
X41022Y59432D01*
X41117Y59491D01*
X41209Y59553D01*
X41299Y59619D01*
X41387Y59687D01*
X41472Y59759D01*
X41554Y59834D01*
X41634Y59911D01*
X41452Y64130D02*
X41450Y64204D01*
X41444Y64279D01*
X41435Y64352D01*
X41422Y64426D01*
X41405Y64498D01*
X41385Y64569D01*
X41361Y64640D01*
X41333Y64709D01*
X41302Y64776D01*
X41268Y64842D01*
X41230Y64907D01*
X41189Y64969D01*
X41145Y65029D01*
X41098Y65086D01*
X41048Y65141D01*
X40995Y65194D01*
X40940Y65244D01*
X40883Y65291D01*
X40823Y65335D01*
X40761Y65376D01*
X40696Y65414D01*
X40630Y65448D01*
X40563Y65479D01*
X40494Y65507D01*
X40423Y65531D01*
X40352Y65551D01*
X40280Y65568D01*
X40206Y65581D01*
X40133Y65590D01*
X40058Y65596D01*
X39984Y65598D01*
X39880Y65596D01*
X39776Y65590D01*
X39672Y65580D01*
X39569Y65567D01*
X39466Y65549D01*
X39364Y65527D01*
X39263Y65502D01*
X39163Y65473D01*
X39064Y65440D01*
X38967Y65403D01*
X38871Y65363D01*
X38776Y65319D01*
X38684Y65271D01*
X38593Y65221D01*
X38504Y65166D01*
X38417Y65109D01*
X38333Y65048D01*
X40718Y62845D02*
X40781Y62884D01*
X40841Y62926D01*
X40900Y62971D01*
X40956Y63019D01*
X41009Y63070D01*
X41060Y63123D01*
X41109Y63178D01*
X41154Y63236D01*
X41197Y63296D01*
X41237Y63358D01*
X41273Y63422D01*
X41307Y63488D01*
X41337Y63556D01*
X41364Y63624D01*
X41387Y63694D01*
X41407Y63765D01*
X41423Y63837D01*
X41436Y63910D01*
X41445Y63983D01*
X41450Y64056D01*
X41452Y64130D01*
X38699Y61747D02*
X38636Y61708D01*
X38576Y61666D01*
X38518Y61621D01*
X38461Y61573D01*
X38408Y61522D01*
X38357Y61469D01*
X38308Y61414D01*
X38263Y61356D01*
X38220Y61296D01*
X38180Y61234D01*
X38144Y61170D01*
X38110Y61104D01*
X38080Y61036D01*
X38053Y60968D01*
X38030Y60898D01*
X38010Y60827D01*
X37994Y60755D01*
X37981Y60682D01*
X37972Y60609D01*
X37967Y60536D01*
X37965Y60462D01*
X38700Y61746D02*
X40718Y62846D01*
X34928Y58260D02*
X31993Y66332D01*
X26877Y65598D02*
X29078Y58994D01*
X24675Y58994D02*
X26877Y65598D01*
X25226Y60645D02*
X28528Y60645D01*
X21396Y62296D02*
X21394Y62441D01*
X21388Y62586D01*
X21379Y62731D01*
X21365Y62876D01*
X21348Y63020D01*
X21326Y63163D01*
X21301Y63307D01*
X21272Y63449D01*
X21240Y63590D01*
X21203Y63731D01*
X21163Y63870D01*
X21119Y64009D01*
X21072Y64146D01*
X21021Y64282D01*
X20966Y64416D01*
X20908Y64549D01*
X20846Y64681D01*
X20847Y64681D02*
X20821Y64750D01*
X20792Y64817D01*
X20759Y64883D01*
X20723Y64946D01*
X20683Y65008D01*
X20640Y65067D01*
X20594Y65124D01*
X20545Y65178D01*
X20493Y65230D01*
X20438Y65279D01*
X20381Y65324D01*
X20321Y65367D01*
X20259Y65406D01*
X20196Y65442D01*
X20130Y65475D01*
X20063Y65503D01*
X19994Y65529D01*
X19924Y65550D01*
X19853Y65568D01*
X19781Y65581D01*
X19708Y65591D01*
X19635Y65597D01*
X19562Y65599D01*
X19562Y65598D02*
X19489Y65596D01*
X19416Y65590D01*
X19343Y65580D01*
X19272Y65567D01*
X19200Y65549D01*
X19130Y65528D01*
X19062Y65502D01*
X18994Y65474D01*
X18929Y65441D01*
X18865Y65405D01*
X18803Y65366D01*
X18744Y65324D01*
X18687Y65278D01*
X18632Y65229D01*
X18580Y65178D01*
X18531Y65123D01*
X18485Y65066D01*
X18442Y65007D01*
X18402Y64946D01*
X18366Y64882D01*
X18333Y64817D01*
X18304Y64750D01*
X18278Y64681D01*
X18277Y64681D02*
X18215Y64549D01*
X18157Y64416D01*
X18102Y64282D01*
X18051Y64146D01*
X18004Y64009D01*
X17960Y63870D01*
X17920Y63731D01*
X17883Y63590D01*
X17851Y63449D01*
X17822Y63307D01*
X17797Y63164D01*
X17775Y63020D01*
X17758Y62876D01*
X17744Y62731D01*
X17735Y62586D01*
X17729Y62441D01*
X17727Y62296D01*
X21396Y62296D02*
X21394Y62151D01*
X21388Y62006D01*
X21379Y61861D01*
X21365Y61716D01*
X21348Y61572D01*
X21326Y61429D01*
X21301Y61286D01*
X21273Y61143D01*
X21240Y61002D01*
X21203Y60861D01*
X21163Y60722D01*
X21119Y60583D01*
X21072Y60446D01*
X21021Y60310D01*
X20966Y60176D01*
X20908Y60043D01*
X20846Y59911D01*
X20847Y59912D02*
X20821Y59843D01*
X20792Y59776D01*
X20759Y59710D01*
X20723Y59647D01*
X20683Y59585D01*
X20640Y59526D01*
X20594Y59469D01*
X20545Y59415D01*
X20493Y59363D01*
X20438Y59314D01*
X20381Y59269D01*
X20321Y59226D01*
X20259Y59187D01*
X20196Y59151D01*
X20130Y59118D01*
X20063Y59090D01*
X19994Y59064D01*
X19924Y59043D01*
X19853Y59025D01*
X19781Y59012D01*
X19708Y59002D01*
X19635Y58996D01*
X19562Y58994D01*
X18277Y59911D02*
X18215Y60043D01*
X18157Y60176D01*
X18102Y60310D01*
X18051Y60446D01*
X18004Y60583D01*
X17960Y60722D01*
X17920Y60861D01*
X17883Y61002D01*
X17851Y61143D01*
X17822Y61285D01*
X17797Y61428D01*
X17775Y61572D01*
X17758Y61716D01*
X17744Y61861D01*
X17735Y62006D01*
X17729Y62151D01*
X17727Y62296D01*
X18278Y59911D02*
X18304Y59842D01*
X18333Y59775D01*
X18366Y59710D01*
X18402Y59646D01*
X18442Y59585D01*
X18485Y59526D01*
X18531Y59469D01*
X18580Y59414D01*
X18632Y59363D01*
X18687Y59314D01*
X18744Y59268D01*
X18803Y59226D01*
X18865Y59187D01*
X18929Y59151D01*
X18994Y59118D01*
X19062Y59090D01*
X19130Y59064D01*
X19200Y59043D01*
X19272Y59025D01*
X19343Y59012D01*
X19416Y59002D01*
X19489Y58996D01*
X19562Y58994D01*
X21029Y60462D02*
X18094Y64130D01*
X12063Y65598D02*
X11984Y65596D01*
X11906Y65591D01*
X11828Y65581D01*
X11751Y65568D01*
X11674Y65551D01*
X11598Y65531D01*
X11523Y65507D01*
X11449Y65480D01*
X11377Y65449D01*
X11306Y65414D01*
X11238Y65377D01*
X11170Y65336D01*
X11105Y65292D01*
X11042Y65245D01*
X10982Y65195D01*
X10924Y65142D01*
X10868Y65086D01*
X10815Y65028D01*
X10765Y64968D01*
X10718Y64905D01*
X10674Y64840D01*
X10633Y64773D01*
X10596Y64704D01*
X10561Y64633D01*
X10530Y64561D01*
X10503Y64487D01*
X10479Y64412D01*
X10459Y64336D01*
X10442Y64259D01*
X10429Y64182D01*
X10419Y64104D01*
X10414Y64026D01*
X10412Y63947D01*
X12063Y65598D02*
X12152Y65596D01*
X12241Y65591D01*
X12329Y65581D01*
X12417Y65568D01*
X12504Y65552D01*
X12591Y65531D01*
X12676Y65507D01*
X12761Y65480D01*
X12844Y65449D01*
X12926Y65414D01*
X13007Y65376D01*
X13086Y65335D01*
X13162Y65291D01*
X13238Y65243D01*
X13311Y65192D01*
X13381Y65139D01*
X13450Y65082D01*
X13516Y65022D01*
X13579Y64960D01*
X13640Y64895D01*
X13698Y64828D01*
X13753Y64758D01*
X13806Y64686D01*
X13855Y64612D01*
X13901Y64536D01*
X13943Y64458D01*
X13983Y64378D01*
X14019Y64297D01*
X14052Y64214D01*
X14081Y64130D01*
X10962Y62663D02*
X10906Y62719D01*
X10852Y62778D01*
X10801Y62839D01*
X10752Y62903D01*
X10707Y62968D01*
X10664Y63036D01*
X10625Y63105D01*
X10588Y63176D01*
X10555Y63249D01*
X10526Y63323D01*
X10499Y63398D01*
X10476Y63474D01*
X10457Y63552D01*
X10441Y63630D01*
X10428Y63708D01*
X10419Y63788D01*
X10414Y63867D01*
X10412Y63947D01*
X10962Y62663D02*
X14081Y58994D01*
X10412Y58994D01*
X52968Y71694D02*
X52968Y78298D01*
X54802Y78298D02*
X51133Y78298D01*
X46543Y71694D02*
X45075Y71694D01*
X46543Y71694D02*
X46617Y71696D01*
X46692Y71702D01*
X46765Y71711D01*
X46839Y71724D01*
X46911Y71741D01*
X46982Y71761D01*
X47053Y71785D01*
X47122Y71813D01*
X47190Y71844D01*
X47255Y71878D01*
X47320Y71916D01*
X47382Y71957D01*
X47442Y72001D01*
X47499Y72048D01*
X47554Y72098D01*
X47607Y72151D01*
X47657Y72206D01*
X47704Y72263D01*
X47748Y72323D01*
X47789Y72385D01*
X47827Y72450D01*
X47861Y72516D01*
X47892Y72583D01*
X47920Y72652D01*
X47944Y72723D01*
X47964Y72794D01*
X47981Y72867D01*
X47994Y72940D01*
X48003Y73014D01*
X48009Y73088D01*
X48011Y73162D01*
X48010Y73162D02*
X48010Y76830D01*
X48008Y76904D01*
X48002Y76979D01*
X47993Y77052D01*
X47980Y77125D01*
X47963Y77198D01*
X47943Y77269D01*
X47919Y77340D01*
X47891Y77409D01*
X47860Y77476D01*
X47826Y77542D01*
X47788Y77607D01*
X47747Y77669D01*
X47703Y77729D01*
X47656Y77786D01*
X47606Y77841D01*
X47553Y77894D01*
X47498Y77944D01*
X47441Y77991D01*
X47381Y78035D01*
X47319Y78076D01*
X47254Y78114D01*
X47189Y78148D01*
X47121Y78179D01*
X47052Y78207D01*
X46982Y78231D01*
X46910Y78251D01*
X46838Y78268D01*
X46764Y78281D01*
X46691Y78290D01*
X46616Y78296D01*
X46542Y78298D01*
X46543Y78298D02*
X45075Y78298D01*
X41454Y78298D02*
X41454Y71694D01*
X41454Y74262D02*
X37785Y78298D01*
X39986Y75730D02*
X37785Y71694D01*
X34928Y70960D02*
X31993Y79032D01*
X26877Y78298D02*
X29078Y71694D01*
X24675Y71694D02*
X26877Y78298D01*
X25226Y73345D02*
X28528Y73345D01*
X21396Y74996D02*
X21394Y75141D01*
X21388Y75286D01*
X21379Y75431D01*
X21365Y75576D01*
X21348Y75720D01*
X21326Y75863D01*
X21301Y76007D01*
X21272Y76149D01*
X21240Y76290D01*
X21203Y76431D01*
X21163Y76570D01*
X21119Y76709D01*
X21072Y76846D01*
X21021Y76982D01*
X20966Y77116D01*
X20908Y77249D01*
X20846Y77381D01*
X20847Y77381D02*
X20821Y77450D01*
X20792Y77517D01*
X20759Y77583D01*
X20723Y77646D01*
X20683Y77708D01*
X20640Y77767D01*
X20594Y77824D01*
X20545Y77878D01*
X20493Y77930D01*
X20438Y77979D01*
X20381Y78024D01*
X20321Y78067D01*
X20259Y78106D01*
X20196Y78142D01*
X20130Y78175D01*
X20063Y78203D01*
X19994Y78229D01*
X19924Y78250D01*
X19853Y78268D01*
X19781Y78281D01*
X19708Y78291D01*
X19635Y78297D01*
X19562Y78299D01*
X19562Y78298D02*
X19489Y78296D01*
X19416Y78290D01*
X19343Y78280D01*
X19272Y78267D01*
X19200Y78249D01*
X19130Y78228D01*
X19062Y78202D01*
X18994Y78174D01*
X18929Y78141D01*
X18865Y78105D01*
X18803Y78066D01*
X18744Y78024D01*
X18687Y77978D01*
X18632Y77929D01*
X18580Y77878D01*
X18531Y77823D01*
X18485Y77766D01*
X18442Y77707D01*
X18402Y77646D01*
X18366Y77582D01*
X18333Y77517D01*
X18304Y77450D01*
X18278Y77381D01*
X18277Y77381D02*
X18215Y77249D01*
X18157Y77116D01*
X18102Y76982D01*
X18051Y76846D01*
X18004Y76709D01*
X17960Y76570D01*
X17920Y76431D01*
X17883Y76290D01*
X17851Y76149D01*
X17822Y76007D01*
X17797Y75864D01*
X17775Y75720D01*
X17758Y75576D01*
X17744Y75431D01*
X17735Y75286D01*
X17729Y75141D01*
X17727Y74996D01*
X21396Y74996D02*
X21394Y74851D01*
X21388Y74706D01*
X21379Y74561D01*
X21365Y74416D01*
X21348Y74272D01*
X21326Y74129D01*
X21301Y73986D01*
X21273Y73843D01*
X21240Y73702D01*
X21203Y73561D01*
X21163Y73422D01*
X21119Y73283D01*
X21072Y73146D01*
X21021Y73010D01*
X20966Y72876D01*
X20908Y72743D01*
X20846Y72611D01*
X20847Y72612D02*
X20821Y72543D01*
X20792Y72476D01*
X20759Y72410D01*
X20723Y72347D01*
X20683Y72285D01*
X20640Y72226D01*
X20594Y72169D01*
X20545Y72115D01*
X20493Y72063D01*
X20438Y72014D01*
X20381Y71969D01*
X20321Y71926D01*
X20259Y71887D01*
X20196Y71851D01*
X20130Y71818D01*
X20063Y71790D01*
X19994Y71764D01*
X19924Y71743D01*
X19853Y71725D01*
X19781Y71712D01*
X19708Y71702D01*
X19635Y71696D01*
X19562Y71694D01*
X18277Y72611D02*
X18215Y72743D01*
X18157Y72876D01*
X18102Y73010D01*
X18051Y73146D01*
X18004Y73283D01*
X17960Y73422D01*
X17920Y73561D01*
X17883Y73702D01*
X17851Y73843D01*
X17822Y73985D01*
X17797Y74128D01*
X17775Y74272D01*
X17758Y74416D01*
X17744Y74561D01*
X17735Y74706D01*
X17729Y74851D01*
X17727Y74996D01*
X18278Y72611D02*
X18304Y72542D01*
X18333Y72475D01*
X18366Y72410D01*
X18402Y72346D01*
X18442Y72285D01*
X18485Y72226D01*
X18531Y72169D01*
X18580Y72114D01*
X18632Y72063D01*
X18687Y72014D01*
X18744Y71968D01*
X18803Y71926D01*
X18865Y71887D01*
X18929Y71851D01*
X18994Y71818D01*
X19062Y71790D01*
X19130Y71764D01*
X19200Y71743D01*
X19272Y71725D01*
X19343Y71712D01*
X19416Y71702D01*
X19489Y71696D01*
X19562Y71694D01*
X21029Y73162D02*
X18094Y76830D01*
X14081Y76830D02*
X12246Y78298D01*
X12246Y71694D01*
X10412Y71694D02*
X14081Y71694D01*
X29078Y84394D02*
X26877Y90998D01*
X24675Y84394D01*
X25226Y86045D02*
X28528Y86045D01*
X21396Y87696D02*
X21394Y87841D01*
X21388Y87986D01*
X21379Y88131D01*
X21365Y88276D01*
X21348Y88420D01*
X21326Y88563D01*
X21301Y88707D01*
X21272Y88849D01*
X21240Y88990D01*
X21203Y89131D01*
X21163Y89270D01*
X21119Y89409D01*
X21072Y89546D01*
X21021Y89682D01*
X20966Y89816D01*
X20908Y89949D01*
X20846Y90081D01*
X20847Y90081D02*
X20821Y90150D01*
X20792Y90217D01*
X20759Y90283D01*
X20723Y90346D01*
X20683Y90408D01*
X20640Y90467D01*
X20594Y90524D01*
X20545Y90578D01*
X20493Y90630D01*
X20438Y90679D01*
X20381Y90724D01*
X20321Y90767D01*
X20259Y90806D01*
X20196Y90842D01*
X20130Y90875D01*
X20063Y90903D01*
X19994Y90929D01*
X19924Y90950D01*
X19853Y90968D01*
X19781Y90981D01*
X19708Y90991D01*
X19635Y90997D01*
X19562Y90999D01*
X19562Y90998D02*
X19489Y90996D01*
X19416Y90990D01*
X19343Y90980D01*
X19272Y90967D01*
X19200Y90949D01*
X19130Y90928D01*
X19062Y90902D01*
X18994Y90874D01*
X18929Y90841D01*
X18865Y90805D01*
X18803Y90766D01*
X18744Y90724D01*
X18687Y90678D01*
X18632Y90629D01*
X18580Y90578D01*
X18531Y90523D01*
X18485Y90466D01*
X18442Y90407D01*
X18402Y90346D01*
X18366Y90282D01*
X18333Y90217D01*
X18304Y90150D01*
X18278Y90081D01*
X18277Y90081D02*
X18215Y89949D01*
X18157Y89816D01*
X18102Y89682D01*
X18051Y89546D01*
X18004Y89409D01*
X17960Y89270D01*
X17920Y89131D01*
X17883Y88990D01*
X17851Y88849D01*
X17822Y88707D01*
X17797Y88564D01*
X17775Y88420D01*
X17758Y88276D01*
X17744Y88131D01*
X17735Y87986D01*
X17729Y87841D01*
X17727Y87696D01*
X21396Y87696D02*
X21394Y87551D01*
X21388Y87406D01*
X21379Y87261D01*
X21365Y87116D01*
X21348Y86972D01*
X21326Y86829D01*
X21301Y86686D01*
X21273Y86543D01*
X21240Y86402D01*
X21203Y86261D01*
X21163Y86122D01*
X21119Y85983D01*
X21072Y85846D01*
X21021Y85710D01*
X20966Y85576D01*
X20908Y85443D01*
X20846Y85311D01*
X20847Y85312D02*
X20821Y85243D01*
X20792Y85176D01*
X20759Y85110D01*
X20723Y85047D01*
X20683Y84985D01*
X20640Y84926D01*
X20594Y84869D01*
X20545Y84815D01*
X20493Y84763D01*
X20438Y84714D01*
X20381Y84669D01*
X20321Y84626D01*
X20259Y84587D01*
X20196Y84551D01*
X20130Y84518D01*
X20063Y84490D01*
X19994Y84464D01*
X19924Y84443D01*
X19853Y84425D01*
X19781Y84412D01*
X19708Y84402D01*
X19635Y84396D01*
X19562Y84394D01*
X18277Y85311D02*
X18215Y85443D01*
X18157Y85576D01*
X18102Y85710D01*
X18051Y85846D01*
X18004Y85983D01*
X17960Y86122D01*
X17920Y86261D01*
X17883Y86402D01*
X17851Y86543D01*
X17822Y86685D01*
X17797Y86828D01*
X17775Y86972D01*
X17758Y87116D01*
X17744Y87261D01*
X17735Y87406D01*
X17729Y87551D01*
X17727Y87696D01*
X18278Y85311D02*
X18304Y85242D01*
X18333Y85175D01*
X18366Y85110D01*
X18402Y85046D01*
X18442Y84985D01*
X18485Y84926D01*
X18531Y84869D01*
X18580Y84814D01*
X18632Y84763D01*
X18687Y84714D01*
X18744Y84668D01*
X18803Y84626D01*
X18865Y84587D01*
X18929Y84551D01*
X18994Y84518D01*
X19062Y84490D01*
X19130Y84464D01*
X19200Y84443D01*
X19272Y84425D01*
X19343Y84412D01*
X19416Y84402D01*
X19489Y84396D01*
X19562Y84394D01*
X21029Y85862D02*
X18094Y89530D01*
X14081Y87696D02*
X14079Y87841D01*
X14073Y87986D01*
X14064Y88131D01*
X14050Y88276D01*
X14033Y88420D01*
X14011Y88563D01*
X13986Y88707D01*
X13957Y88849D01*
X13925Y88990D01*
X13888Y89131D01*
X13848Y89270D01*
X13804Y89409D01*
X13757Y89546D01*
X13706Y89682D01*
X13651Y89816D01*
X13593Y89949D01*
X13531Y90081D01*
X13505Y90150D01*
X13476Y90217D01*
X13443Y90283D01*
X13407Y90346D01*
X13367Y90408D01*
X13324Y90467D01*
X13278Y90524D01*
X13229Y90578D01*
X13177Y90630D01*
X13122Y90679D01*
X13065Y90724D01*
X13005Y90767D01*
X12943Y90806D01*
X12880Y90842D01*
X12814Y90875D01*
X12747Y90903D01*
X12678Y90929D01*
X12608Y90950D01*
X12537Y90968D01*
X12465Y90981D01*
X12392Y90991D01*
X12319Y90997D01*
X12246Y90999D01*
X12246Y90998D02*
X12173Y90996D01*
X12100Y90990D01*
X12027Y90980D01*
X11956Y90967D01*
X11884Y90949D01*
X11814Y90928D01*
X11746Y90902D01*
X11678Y90874D01*
X11613Y90841D01*
X11549Y90805D01*
X11487Y90766D01*
X11428Y90724D01*
X11371Y90678D01*
X11316Y90629D01*
X11264Y90578D01*
X11215Y90523D01*
X11169Y90466D01*
X11126Y90407D01*
X11086Y90346D01*
X11050Y90282D01*
X11017Y90217D01*
X10988Y90150D01*
X10962Y90081D01*
X10900Y89949D01*
X10842Y89816D01*
X10787Y89682D01*
X10736Y89546D01*
X10689Y89409D01*
X10645Y89270D01*
X10605Y89131D01*
X10568Y88990D01*
X10536Y88849D01*
X10507Y88707D01*
X10482Y88564D01*
X10460Y88420D01*
X10443Y88276D01*
X10429Y88131D01*
X10420Y87986D01*
X10414Y87841D01*
X10412Y87696D01*
X14080Y87696D02*
X14078Y87551D01*
X14072Y87406D01*
X14063Y87261D01*
X14049Y87116D01*
X14032Y86972D01*
X14010Y86829D01*
X13985Y86686D01*
X13957Y86543D01*
X13924Y86402D01*
X13887Y86261D01*
X13847Y86122D01*
X13803Y85983D01*
X13756Y85846D01*
X13705Y85710D01*
X13650Y85576D01*
X13592Y85443D01*
X13530Y85311D01*
X13531Y85312D02*
X13505Y85243D01*
X13476Y85176D01*
X13443Y85110D01*
X13407Y85047D01*
X13367Y84985D01*
X13324Y84926D01*
X13278Y84869D01*
X13229Y84815D01*
X13177Y84763D01*
X13122Y84714D01*
X13065Y84669D01*
X13005Y84626D01*
X12943Y84587D01*
X12880Y84551D01*
X12814Y84518D01*
X12747Y84490D01*
X12678Y84464D01*
X12608Y84443D01*
X12537Y84425D01*
X12465Y84412D01*
X12392Y84402D01*
X12319Y84396D01*
X12246Y84394D01*
X10962Y85311D02*
X10900Y85443D01*
X10842Y85576D01*
X10787Y85710D01*
X10736Y85846D01*
X10689Y85983D01*
X10645Y86122D01*
X10605Y86261D01*
X10568Y86402D01*
X10536Y86543D01*
X10507Y86685D01*
X10482Y86828D01*
X10460Y86972D01*
X10443Y87116D01*
X10429Y87261D01*
X10420Y87406D01*
X10414Y87551D01*
X10412Y87696D01*
X10962Y85311D02*
X10988Y85242D01*
X11017Y85175D01*
X11050Y85110D01*
X11086Y85046D01*
X11126Y84985D01*
X11169Y84926D01*
X11215Y84869D01*
X11264Y84814D01*
X11316Y84763D01*
X11371Y84714D01*
X11428Y84668D01*
X11487Y84626D01*
X11549Y84587D01*
X11613Y84551D01*
X11678Y84518D01*
X11746Y84490D01*
X11814Y84464D01*
X11884Y84443D01*
X11956Y84425D01*
X12027Y84412D01*
X12100Y84402D01*
X12173Y84396D01*
X12246Y84394D01*
X13714Y85862D02*
X10779Y89530D01*
X26452Y100763D02*
X28286Y100763D01*
X26452Y100762D02*
X26367Y100760D01*
X26283Y100754D01*
X26199Y100744D01*
X26115Y100731D01*
X26032Y100713D01*
X25950Y100692D01*
X25869Y100667D01*
X25789Y100638D01*
X25711Y100606D01*
X25635Y100570D01*
X25560Y100530D01*
X25487Y100487D01*
X25416Y100441D01*
X25347Y100392D01*
X25280Y100339D01*
X25216Y100283D01*
X25155Y100225D01*
X25097Y100164D01*
X25041Y100100D01*
X24988Y100033D01*
X24939Y99964D01*
X24893Y99893D01*
X24850Y99820D01*
X24810Y99745D01*
X24774Y99669D01*
X24742Y99591D01*
X24713Y99511D01*
X24688Y99430D01*
X24667Y99348D01*
X24649Y99265D01*
X24636Y99181D01*
X24626Y99097D01*
X24620Y99013D01*
X24618Y98928D01*
X24620Y98843D01*
X24626Y98759D01*
X24636Y98675D01*
X24649Y98591D01*
X24667Y98508D01*
X24688Y98426D01*
X24713Y98345D01*
X24742Y98265D01*
X24774Y98187D01*
X24810Y98111D01*
X24850Y98036D01*
X24893Y97963D01*
X24939Y97892D01*
X24988Y97823D01*
X25041Y97756D01*
X25097Y97692D01*
X25155Y97631D01*
X25216Y97573D01*
X25280Y97517D01*
X25347Y97464D01*
X25416Y97415D01*
X25487Y97369D01*
X25560Y97326D01*
X25635Y97286D01*
X25711Y97250D01*
X25789Y97218D01*
X25869Y97189D01*
X25950Y97164D01*
X26032Y97143D01*
X26115Y97125D01*
X26199Y97112D01*
X26283Y97102D01*
X26367Y97096D01*
X26452Y97094D01*
X28286Y97094D01*
X28286Y103698D01*
X26452Y103698D01*
X26376Y103696D01*
X26301Y103690D01*
X26226Y103681D01*
X26152Y103667D01*
X26078Y103650D01*
X26006Y103628D01*
X25934Y103604D01*
X25864Y103575D01*
X25796Y103543D01*
X25729Y103508D01*
X25664Y103469D01*
X25601Y103426D01*
X25541Y103381D01*
X25483Y103333D01*
X25427Y103281D01*
X25375Y103227D01*
X25325Y103170D01*
X25278Y103111D01*
X25234Y103050D01*
X25193Y102986D01*
X25156Y102920D01*
X25122Y102852D01*
X25092Y102783D01*
X25065Y102712D01*
X25042Y102640D01*
X25023Y102567D01*
X25008Y102493D01*
X24996Y102418D01*
X24988Y102343D01*
X24984Y102268D01*
X24984Y102192D01*
X24988Y102117D01*
X24996Y102042D01*
X25008Y101967D01*
X25023Y101893D01*
X25042Y101820D01*
X25065Y101748D01*
X25092Y101677D01*
X25122Y101608D01*
X25156Y101540D01*
X25193Y101474D01*
X25234Y101410D01*
X25278Y101349D01*
X25325Y101290D01*
X25375Y101233D01*
X25427Y101179D01*
X25483Y101127D01*
X25541Y101079D01*
X25601Y101034D01*
X25664Y100991D01*
X25729Y100952D01*
X25796Y100917D01*
X25864Y100885D01*
X25934Y100856D01*
X26006Y100832D01*
X26078Y100810D01*
X26152Y100793D01*
X26226Y100779D01*
X26301Y100770D01*
X26376Y100764D01*
X26452Y100762D01*
X21396Y100396D02*
X21394Y100541D01*
X21388Y100686D01*
X21379Y100831D01*
X21365Y100976D01*
X21348Y101120D01*
X21326Y101263D01*
X21301Y101407D01*
X21272Y101549D01*
X21240Y101690D01*
X21203Y101831D01*
X21163Y101970D01*
X21119Y102109D01*
X21072Y102246D01*
X21021Y102382D01*
X20966Y102516D01*
X20908Y102649D01*
X20846Y102781D01*
X20847Y102781D02*
X20821Y102850D01*
X20792Y102917D01*
X20759Y102983D01*
X20723Y103046D01*
X20683Y103108D01*
X20640Y103167D01*
X20594Y103224D01*
X20545Y103278D01*
X20493Y103330D01*
X20438Y103379D01*
X20381Y103424D01*
X20321Y103467D01*
X20259Y103506D01*
X20196Y103542D01*
X20130Y103575D01*
X20063Y103603D01*
X19994Y103629D01*
X19924Y103650D01*
X19853Y103668D01*
X19781Y103681D01*
X19708Y103691D01*
X19635Y103697D01*
X19562Y103699D01*
X19562Y103698D02*
X19489Y103696D01*
X19416Y103690D01*
X19343Y103680D01*
X19272Y103667D01*
X19200Y103649D01*
X19130Y103628D01*
X19062Y103602D01*
X18994Y103574D01*
X18929Y103541D01*
X18865Y103505D01*
X18803Y103466D01*
X18744Y103424D01*
X18687Y103378D01*
X18632Y103329D01*
X18580Y103278D01*
X18531Y103223D01*
X18485Y103166D01*
X18442Y103107D01*
X18402Y103046D01*
X18366Y102982D01*
X18333Y102917D01*
X18304Y102850D01*
X18278Y102781D01*
X18277Y102781D02*
X18215Y102649D01*
X18157Y102516D01*
X18102Y102382D01*
X18051Y102246D01*
X18004Y102109D01*
X17960Y101970D01*
X17920Y101831D01*
X17883Y101690D01*
X17851Y101549D01*
X17822Y101407D01*
X17797Y101264D01*
X17775Y101120D01*
X17758Y100976D01*
X17744Y100831D01*
X17735Y100686D01*
X17729Y100541D01*
X17727Y100396D01*
X21396Y100396D02*
X21394Y100251D01*
X21388Y100106D01*
X21379Y99961D01*
X21365Y99816D01*
X21348Y99672D01*
X21326Y99529D01*
X21301Y99386D01*
X21273Y99243D01*
X21240Y99102D01*
X21203Y98961D01*
X21163Y98822D01*
X21119Y98683D01*
X21072Y98546D01*
X21021Y98410D01*
X20966Y98276D01*
X20908Y98143D01*
X20846Y98011D01*
X20847Y98012D02*
X20821Y97943D01*
X20792Y97876D01*
X20759Y97810D01*
X20723Y97747D01*
X20683Y97685D01*
X20640Y97626D01*
X20594Y97569D01*
X20545Y97515D01*
X20493Y97463D01*
X20438Y97414D01*
X20381Y97369D01*
X20321Y97326D01*
X20259Y97287D01*
X20196Y97251D01*
X20130Y97218D01*
X20063Y97190D01*
X19994Y97164D01*
X19924Y97143D01*
X19853Y97125D01*
X19781Y97112D01*
X19708Y97102D01*
X19635Y97096D01*
X19562Y97094D01*
X18277Y98011D02*
X18215Y98143D01*
X18157Y98276D01*
X18102Y98410D01*
X18051Y98546D01*
X18004Y98683D01*
X17960Y98822D01*
X17920Y98961D01*
X17883Y99102D01*
X17851Y99243D01*
X17822Y99385D01*
X17797Y99528D01*
X17775Y99672D01*
X17758Y99816D01*
X17744Y99961D01*
X17735Y100106D01*
X17729Y100251D01*
X17727Y100396D01*
X18278Y98011D02*
X18304Y97942D01*
X18333Y97875D01*
X18366Y97810D01*
X18402Y97746D01*
X18442Y97685D01*
X18485Y97626D01*
X18531Y97569D01*
X18580Y97514D01*
X18632Y97463D01*
X18687Y97414D01*
X18744Y97368D01*
X18803Y97326D01*
X18865Y97287D01*
X18929Y97251D01*
X18994Y97218D01*
X19062Y97190D01*
X19130Y97164D01*
X19200Y97143D01*
X19272Y97125D01*
X19343Y97112D01*
X19416Y97102D01*
X19489Y97096D01*
X19562Y97094D01*
X21029Y98562D02*
X18094Y102230D01*
X14081Y100396D02*
X14079Y100541D01*
X14073Y100686D01*
X14064Y100831D01*
X14050Y100976D01*
X14033Y101120D01*
X14011Y101263D01*
X13986Y101407D01*
X13957Y101549D01*
X13925Y101690D01*
X13888Y101831D01*
X13848Y101970D01*
X13804Y102109D01*
X13757Y102246D01*
X13706Y102382D01*
X13651Y102516D01*
X13593Y102649D01*
X13531Y102781D01*
X13505Y102850D01*
X13476Y102917D01*
X13443Y102983D01*
X13407Y103046D01*
X13367Y103108D01*
X13324Y103167D01*
X13278Y103224D01*
X13229Y103278D01*
X13177Y103330D01*
X13122Y103379D01*
X13065Y103424D01*
X13005Y103467D01*
X12943Y103506D01*
X12880Y103542D01*
X12814Y103575D01*
X12747Y103603D01*
X12678Y103629D01*
X12608Y103650D01*
X12537Y103668D01*
X12465Y103681D01*
X12392Y103691D01*
X12319Y103697D01*
X12246Y103699D01*
X12246Y103698D02*
X12173Y103696D01*
X12100Y103690D01*
X12027Y103680D01*
X11956Y103667D01*
X11884Y103649D01*
X11814Y103628D01*
X11746Y103602D01*
X11678Y103574D01*
X11613Y103541D01*
X11549Y103505D01*
X11487Y103466D01*
X11428Y103424D01*
X11371Y103378D01*
X11316Y103329D01*
X11264Y103278D01*
X11215Y103223D01*
X11169Y103166D01*
X11126Y103107D01*
X11086Y103046D01*
X11050Y102982D01*
X11017Y102917D01*
X10988Y102850D01*
X10962Y102781D01*
X10900Y102649D01*
X10842Y102516D01*
X10787Y102382D01*
X10736Y102246D01*
X10689Y102109D01*
X10645Y101970D01*
X10605Y101831D01*
X10568Y101690D01*
X10536Y101549D01*
X10507Y101407D01*
X10482Y101264D01*
X10460Y101120D01*
X10443Y100976D01*
X10429Y100831D01*
X10420Y100686D01*
X10414Y100541D01*
X10412Y100396D01*
X14080Y100396D02*
X14078Y100251D01*
X14072Y100106D01*
X14063Y99961D01*
X14049Y99816D01*
X14032Y99672D01*
X14010Y99529D01*
X13985Y99386D01*
X13957Y99243D01*
X13924Y99102D01*
X13887Y98961D01*
X13847Y98822D01*
X13803Y98683D01*
X13756Y98546D01*
X13705Y98410D01*
X13650Y98276D01*
X13592Y98143D01*
X13530Y98011D01*
X13531Y98012D02*
X13505Y97943D01*
X13476Y97876D01*
X13443Y97810D01*
X13407Y97747D01*
X13367Y97685D01*
X13324Y97626D01*
X13278Y97569D01*
X13229Y97515D01*
X13177Y97463D01*
X13122Y97414D01*
X13065Y97369D01*
X13005Y97326D01*
X12943Y97287D01*
X12880Y97251D01*
X12814Y97218D01*
X12747Y97190D01*
X12678Y97164D01*
X12608Y97143D01*
X12537Y97125D01*
X12465Y97112D01*
X12392Y97102D01*
X12319Y97096D01*
X12246Y97094D01*
X10962Y98011D02*
X10900Y98143D01*
X10842Y98276D01*
X10787Y98410D01*
X10736Y98546D01*
X10689Y98683D01*
X10645Y98822D01*
X10605Y98961D01*
X10568Y99102D01*
X10536Y99243D01*
X10507Y99385D01*
X10482Y99528D01*
X10460Y99672D01*
X10443Y99816D01*
X10429Y99961D01*
X10420Y100106D01*
X10414Y100251D01*
X10412Y100396D01*
X10962Y98011D02*
X10988Y97942D01*
X11017Y97875D01*
X11050Y97810D01*
X11086Y97746D01*
X11126Y97685D01*
X11169Y97626D01*
X11215Y97569D01*
X11264Y97514D01*
X11316Y97463D01*
X11371Y97414D01*
X11428Y97368D01*
X11487Y97326D01*
X11549Y97287D01*
X11613Y97251D01*
X11678Y97218D01*
X11746Y97190D01*
X11814Y97164D01*
X11884Y97143D01*
X11956Y97125D01*
X12027Y97112D01*
X12100Y97102D01*
X12173Y97096D01*
X12246Y97094D01*
X13714Y98562D02*
X10779Y102230D01*
X26452Y113463D02*
X28286Y113463D01*
X26452Y113462D02*
X26367Y113460D01*
X26283Y113454D01*
X26199Y113444D01*
X26115Y113431D01*
X26032Y113413D01*
X25950Y113392D01*
X25869Y113367D01*
X25789Y113338D01*
X25711Y113306D01*
X25635Y113270D01*
X25560Y113230D01*
X25487Y113187D01*
X25416Y113141D01*
X25347Y113092D01*
X25280Y113039D01*
X25216Y112983D01*
X25155Y112925D01*
X25097Y112864D01*
X25041Y112800D01*
X24988Y112733D01*
X24939Y112664D01*
X24893Y112593D01*
X24850Y112520D01*
X24810Y112445D01*
X24774Y112369D01*
X24742Y112291D01*
X24713Y112211D01*
X24688Y112130D01*
X24667Y112048D01*
X24649Y111965D01*
X24636Y111881D01*
X24626Y111797D01*
X24620Y111713D01*
X24618Y111628D01*
X24620Y111543D01*
X24626Y111459D01*
X24636Y111375D01*
X24649Y111291D01*
X24667Y111208D01*
X24688Y111126D01*
X24713Y111045D01*
X24742Y110965D01*
X24774Y110887D01*
X24810Y110811D01*
X24850Y110736D01*
X24893Y110663D01*
X24939Y110592D01*
X24988Y110523D01*
X25041Y110456D01*
X25097Y110392D01*
X25155Y110331D01*
X25216Y110273D01*
X25280Y110217D01*
X25347Y110164D01*
X25416Y110115D01*
X25487Y110069D01*
X25560Y110026D01*
X25635Y109986D01*
X25711Y109950D01*
X25789Y109918D01*
X25869Y109889D01*
X25950Y109864D01*
X26032Y109843D01*
X26115Y109825D01*
X26199Y109812D01*
X26283Y109802D01*
X26367Y109796D01*
X26452Y109794D01*
X28286Y109794D01*
X28286Y116398D01*
X26452Y116398D01*
X26376Y116396D01*
X26301Y116390D01*
X26226Y116381D01*
X26152Y116367D01*
X26078Y116350D01*
X26006Y116328D01*
X25934Y116304D01*
X25864Y116275D01*
X25796Y116243D01*
X25729Y116208D01*
X25664Y116169D01*
X25601Y116126D01*
X25541Y116081D01*
X25483Y116033D01*
X25427Y115981D01*
X25375Y115927D01*
X25325Y115870D01*
X25278Y115811D01*
X25234Y115750D01*
X25193Y115686D01*
X25156Y115620D01*
X25122Y115552D01*
X25092Y115483D01*
X25065Y115412D01*
X25042Y115340D01*
X25023Y115267D01*
X25008Y115193D01*
X24996Y115118D01*
X24988Y115043D01*
X24984Y114968D01*
X24984Y114892D01*
X24988Y114817D01*
X24996Y114742D01*
X25008Y114667D01*
X25023Y114593D01*
X25042Y114520D01*
X25065Y114448D01*
X25092Y114377D01*
X25122Y114308D01*
X25156Y114240D01*
X25193Y114174D01*
X25234Y114110D01*
X25278Y114049D01*
X25325Y113990D01*
X25375Y113933D01*
X25427Y113879D01*
X25483Y113827D01*
X25541Y113779D01*
X25601Y113734D01*
X25664Y113691D01*
X25729Y113652D01*
X25796Y113617D01*
X25864Y113585D01*
X25934Y113556D01*
X26006Y113532D01*
X26078Y113510D01*
X26152Y113493D01*
X26226Y113479D01*
X26301Y113470D01*
X26376Y113464D01*
X26452Y113462D01*
X21396Y113096D02*
X21394Y113241D01*
X21388Y113386D01*
X21379Y113531D01*
X21365Y113676D01*
X21348Y113820D01*
X21326Y113963D01*
X21301Y114107D01*
X21272Y114249D01*
X21240Y114390D01*
X21203Y114531D01*
X21163Y114670D01*
X21119Y114809D01*
X21072Y114946D01*
X21021Y115082D01*
X20966Y115216D01*
X20908Y115349D01*
X20846Y115481D01*
X20847Y115481D02*
X20821Y115550D01*
X20792Y115617D01*
X20759Y115683D01*
X20723Y115746D01*
X20683Y115808D01*
X20640Y115867D01*
X20594Y115924D01*
X20545Y115978D01*
X20493Y116030D01*
X20438Y116079D01*
X20381Y116124D01*
X20321Y116167D01*
X20259Y116206D01*
X20196Y116242D01*
X20130Y116275D01*
X20063Y116303D01*
X19994Y116329D01*
X19924Y116350D01*
X19853Y116368D01*
X19781Y116381D01*
X19708Y116391D01*
X19635Y116397D01*
X19562Y116399D01*
X19562Y116398D02*
X19489Y116396D01*
X19416Y116390D01*
X19343Y116380D01*
X19272Y116367D01*
X19200Y116349D01*
X19130Y116328D01*
X19062Y116302D01*
X18994Y116274D01*
X18929Y116241D01*
X18865Y116205D01*
X18803Y116166D01*
X18744Y116124D01*
X18687Y116078D01*
X18632Y116029D01*
X18580Y115978D01*
X18531Y115923D01*
X18485Y115866D01*
X18442Y115807D01*
X18402Y115746D01*
X18366Y115682D01*
X18333Y115617D01*
X18304Y115550D01*
X18278Y115481D01*
X18277Y115481D02*
X18215Y115349D01*
X18157Y115216D01*
X18102Y115082D01*
X18051Y114946D01*
X18004Y114809D01*
X17960Y114670D01*
X17920Y114531D01*
X17883Y114390D01*
X17851Y114249D01*
X17822Y114107D01*
X17797Y113964D01*
X17775Y113820D01*
X17758Y113676D01*
X17744Y113531D01*
X17735Y113386D01*
X17729Y113241D01*
X17727Y113096D01*
X21396Y113096D02*
X21394Y112951D01*
X21388Y112806D01*
X21379Y112661D01*
X21365Y112516D01*
X21348Y112372D01*
X21326Y112229D01*
X21301Y112086D01*
X21273Y111943D01*
X21240Y111802D01*
X21203Y111661D01*
X21163Y111522D01*
X21119Y111383D01*
X21072Y111246D01*
X21021Y111110D01*
X20966Y110976D01*
X20908Y110843D01*
X20846Y110711D01*
X20847Y110712D02*
X20821Y110643D01*
X20792Y110576D01*
X20759Y110510D01*
X20723Y110447D01*
X20683Y110385D01*
X20640Y110326D01*
X20594Y110269D01*
X20545Y110215D01*
X20493Y110163D01*
X20438Y110114D01*
X20381Y110069D01*
X20321Y110026D01*
X20259Y109987D01*
X20196Y109951D01*
X20130Y109918D01*
X20063Y109890D01*
X19994Y109864D01*
X19924Y109843D01*
X19853Y109825D01*
X19781Y109812D01*
X19708Y109802D01*
X19635Y109796D01*
X19562Y109794D01*
X18277Y110711D02*
X18215Y110843D01*
X18157Y110976D01*
X18102Y111110D01*
X18051Y111246D01*
X18004Y111383D01*
X17960Y111522D01*
X17920Y111661D01*
X17883Y111802D01*
X17851Y111943D01*
X17822Y112085D01*
X17797Y112228D01*
X17775Y112372D01*
X17758Y112516D01*
X17744Y112661D01*
X17735Y112806D01*
X17729Y112951D01*
X17727Y113096D01*
X18278Y110711D02*
X18304Y110642D01*
X18333Y110575D01*
X18366Y110510D01*
X18402Y110446D01*
X18442Y110385D01*
X18485Y110326D01*
X18531Y110269D01*
X18580Y110214D01*
X18632Y110163D01*
X18687Y110114D01*
X18744Y110068D01*
X18803Y110026D01*
X18865Y109987D01*
X18929Y109951D01*
X18994Y109918D01*
X19062Y109890D01*
X19130Y109864D01*
X19200Y109843D01*
X19272Y109825D01*
X19343Y109812D01*
X19416Y109802D01*
X19489Y109796D01*
X19562Y109794D01*
X21029Y111262D02*
X18094Y114930D01*
X14081Y114930D02*
X12246Y116398D01*
X12246Y109794D01*
X10412Y109794D02*
X14081Y109794D01*
X26452Y126163D02*
X28286Y126163D01*
X26452Y126162D02*
X26367Y126160D01*
X26283Y126154D01*
X26199Y126144D01*
X26115Y126131D01*
X26032Y126113D01*
X25950Y126092D01*
X25869Y126067D01*
X25789Y126038D01*
X25711Y126006D01*
X25635Y125970D01*
X25560Y125930D01*
X25487Y125887D01*
X25416Y125841D01*
X25347Y125792D01*
X25280Y125739D01*
X25216Y125683D01*
X25155Y125625D01*
X25097Y125564D01*
X25041Y125500D01*
X24988Y125433D01*
X24939Y125364D01*
X24893Y125293D01*
X24850Y125220D01*
X24810Y125145D01*
X24774Y125069D01*
X24742Y124991D01*
X24713Y124911D01*
X24688Y124830D01*
X24667Y124748D01*
X24649Y124665D01*
X24636Y124581D01*
X24626Y124497D01*
X24620Y124413D01*
X24618Y124328D01*
X24620Y124243D01*
X24626Y124159D01*
X24636Y124075D01*
X24649Y123991D01*
X24667Y123908D01*
X24688Y123826D01*
X24713Y123745D01*
X24742Y123665D01*
X24774Y123587D01*
X24810Y123511D01*
X24850Y123436D01*
X24893Y123363D01*
X24939Y123292D01*
X24988Y123223D01*
X25041Y123156D01*
X25097Y123092D01*
X25155Y123031D01*
X25216Y122973D01*
X25280Y122917D01*
X25347Y122864D01*
X25416Y122815D01*
X25487Y122769D01*
X25560Y122726D01*
X25635Y122686D01*
X25711Y122650D01*
X25789Y122618D01*
X25869Y122589D01*
X25950Y122564D01*
X26032Y122543D01*
X26115Y122525D01*
X26199Y122512D01*
X26283Y122502D01*
X26367Y122496D01*
X26452Y122494D01*
X28286Y122494D01*
X28286Y129098D01*
X26452Y129098D01*
X26376Y129096D01*
X26301Y129090D01*
X26226Y129081D01*
X26152Y129067D01*
X26078Y129050D01*
X26006Y129028D01*
X25934Y129004D01*
X25864Y128975D01*
X25796Y128943D01*
X25729Y128908D01*
X25664Y128869D01*
X25601Y128826D01*
X25541Y128781D01*
X25483Y128733D01*
X25427Y128681D01*
X25375Y128627D01*
X25325Y128570D01*
X25278Y128511D01*
X25234Y128450D01*
X25193Y128386D01*
X25156Y128320D01*
X25122Y128252D01*
X25092Y128183D01*
X25065Y128112D01*
X25042Y128040D01*
X25023Y127967D01*
X25008Y127893D01*
X24996Y127818D01*
X24988Y127743D01*
X24984Y127668D01*
X24984Y127592D01*
X24988Y127517D01*
X24996Y127442D01*
X25008Y127367D01*
X25023Y127293D01*
X25042Y127220D01*
X25065Y127148D01*
X25092Y127077D01*
X25122Y127008D01*
X25156Y126940D01*
X25193Y126874D01*
X25234Y126810D01*
X25278Y126749D01*
X25325Y126690D01*
X25375Y126633D01*
X25427Y126579D01*
X25483Y126527D01*
X25541Y126479D01*
X25601Y126434D01*
X25664Y126391D01*
X25729Y126352D01*
X25796Y126317D01*
X25864Y126285D01*
X25934Y126256D01*
X26006Y126232D01*
X26078Y126210D01*
X26152Y126193D01*
X26226Y126179D01*
X26301Y126170D01*
X26376Y126164D01*
X26452Y126162D01*
X21396Y125796D02*
X21394Y125941D01*
X21388Y126086D01*
X21379Y126231D01*
X21365Y126376D01*
X21348Y126520D01*
X21326Y126663D01*
X21301Y126807D01*
X21272Y126949D01*
X21240Y127090D01*
X21203Y127231D01*
X21163Y127370D01*
X21119Y127509D01*
X21072Y127646D01*
X21021Y127782D01*
X20966Y127916D01*
X20908Y128049D01*
X20846Y128181D01*
X20847Y128181D02*
X20821Y128250D01*
X20792Y128317D01*
X20759Y128383D01*
X20723Y128446D01*
X20683Y128508D01*
X20640Y128567D01*
X20594Y128624D01*
X20545Y128678D01*
X20493Y128730D01*
X20438Y128779D01*
X20381Y128824D01*
X20321Y128867D01*
X20259Y128906D01*
X20196Y128942D01*
X20130Y128975D01*
X20063Y129003D01*
X19994Y129029D01*
X19924Y129050D01*
X19853Y129068D01*
X19781Y129081D01*
X19708Y129091D01*
X19635Y129097D01*
X19562Y129099D01*
X19562Y129098D02*
X19489Y129096D01*
X19416Y129090D01*
X19343Y129080D01*
X19272Y129067D01*
X19200Y129049D01*
X19130Y129028D01*
X19062Y129002D01*
X18994Y128974D01*
X18929Y128941D01*
X18865Y128905D01*
X18803Y128866D01*
X18744Y128824D01*
X18687Y128778D01*
X18632Y128729D01*
X18580Y128678D01*
X18531Y128623D01*
X18485Y128566D01*
X18442Y128507D01*
X18402Y128446D01*
X18366Y128382D01*
X18333Y128317D01*
X18304Y128250D01*
X18278Y128181D01*
X18277Y128181D02*
X18215Y128049D01*
X18157Y127916D01*
X18102Y127782D01*
X18051Y127646D01*
X18004Y127509D01*
X17960Y127370D01*
X17920Y127231D01*
X17883Y127090D01*
X17851Y126949D01*
X17822Y126807D01*
X17797Y126664D01*
X17775Y126520D01*
X17758Y126376D01*
X17744Y126231D01*
X17735Y126086D01*
X17729Y125941D01*
X17727Y125796D01*
X21396Y125796D02*
X21394Y125651D01*
X21388Y125506D01*
X21379Y125361D01*
X21365Y125216D01*
X21348Y125072D01*
X21326Y124929D01*
X21301Y124786D01*
X21273Y124643D01*
X21240Y124502D01*
X21203Y124361D01*
X21163Y124222D01*
X21119Y124083D01*
X21072Y123946D01*
X21021Y123810D01*
X20966Y123676D01*
X20908Y123543D01*
X20846Y123411D01*
X20847Y123412D02*
X20821Y123343D01*
X20792Y123276D01*
X20759Y123210D01*
X20723Y123147D01*
X20683Y123085D01*
X20640Y123026D01*
X20594Y122969D01*
X20545Y122915D01*
X20493Y122863D01*
X20438Y122814D01*
X20381Y122769D01*
X20321Y122726D01*
X20259Y122687D01*
X20196Y122651D01*
X20130Y122618D01*
X20063Y122590D01*
X19994Y122564D01*
X19924Y122543D01*
X19853Y122525D01*
X19781Y122512D01*
X19708Y122502D01*
X19635Y122496D01*
X19562Y122494D01*
X18277Y123411D02*
X18215Y123543D01*
X18157Y123676D01*
X18102Y123810D01*
X18051Y123946D01*
X18004Y124083D01*
X17960Y124222D01*
X17920Y124361D01*
X17883Y124502D01*
X17851Y124643D01*
X17822Y124785D01*
X17797Y124928D01*
X17775Y125072D01*
X17758Y125216D01*
X17744Y125361D01*
X17735Y125506D01*
X17729Y125651D01*
X17727Y125796D01*
X18278Y123411D02*
X18304Y123342D01*
X18333Y123275D01*
X18366Y123210D01*
X18402Y123146D01*
X18442Y123085D01*
X18485Y123026D01*
X18531Y122969D01*
X18580Y122914D01*
X18632Y122863D01*
X18687Y122814D01*
X18744Y122768D01*
X18803Y122726D01*
X18865Y122687D01*
X18929Y122651D01*
X18994Y122618D01*
X19062Y122590D01*
X19130Y122564D01*
X19200Y122543D01*
X19272Y122525D01*
X19343Y122512D01*
X19416Y122502D01*
X19489Y122496D01*
X19562Y122494D01*
X21029Y123962D02*
X18094Y127630D01*
X12063Y129098D02*
X11984Y129096D01*
X11906Y129091D01*
X11828Y129081D01*
X11751Y129068D01*
X11674Y129051D01*
X11598Y129031D01*
X11523Y129007D01*
X11449Y128980D01*
X11377Y128949D01*
X11306Y128914D01*
X11238Y128877D01*
X11170Y128836D01*
X11105Y128792D01*
X11042Y128745D01*
X10982Y128695D01*
X10924Y128642D01*
X10868Y128586D01*
X10815Y128528D01*
X10765Y128468D01*
X10718Y128405D01*
X10674Y128340D01*
X10633Y128273D01*
X10596Y128204D01*
X10561Y128133D01*
X10530Y128061D01*
X10503Y127987D01*
X10479Y127912D01*
X10459Y127836D01*
X10442Y127759D01*
X10429Y127682D01*
X10419Y127604D01*
X10414Y127526D01*
X10412Y127447D01*
X12063Y129098D02*
X12152Y129096D01*
X12241Y129091D01*
X12329Y129081D01*
X12417Y129068D01*
X12504Y129052D01*
X12591Y129031D01*
X12676Y129007D01*
X12761Y128980D01*
X12844Y128949D01*
X12926Y128914D01*
X13007Y128876D01*
X13086Y128835D01*
X13162Y128791D01*
X13238Y128743D01*
X13311Y128692D01*
X13381Y128639D01*
X13450Y128582D01*
X13516Y128522D01*
X13579Y128460D01*
X13640Y128395D01*
X13698Y128328D01*
X13753Y128258D01*
X13806Y128186D01*
X13855Y128112D01*
X13901Y128036D01*
X13943Y127958D01*
X13983Y127878D01*
X14019Y127797D01*
X14052Y127714D01*
X14081Y127630D01*
X10962Y126163D02*
X10906Y126219D01*
X10852Y126278D01*
X10801Y126339D01*
X10752Y126403D01*
X10707Y126468D01*
X10664Y126536D01*
X10625Y126605D01*
X10588Y126676D01*
X10555Y126749D01*
X10526Y126823D01*
X10499Y126898D01*
X10476Y126974D01*
X10457Y127052D01*
X10441Y127130D01*
X10428Y127208D01*
X10419Y127288D01*
X10414Y127367D01*
X10412Y127447D01*
X10962Y126163D02*
X14081Y122494D01*
X10412Y122494D01*
M02*
