M48
;GenerationSoftware,Autodesk,EAGLE,9.6.2*%
;CreationDate,2021-12-29T21:07:10Z*%
FMAT,2
ICI,OFF
METRIC,TZ,000.000
T2C0.250
T1C0.700
%
G90
M71
T1
X127Y12700
X16677Y6350
X16677Y5080
X16677Y3810
X16677Y2540
X16677Y1270
X16677Y7620
X16677Y8890
X16677Y10160
X16677Y11430
X16677Y12700
X127Y6350
X127Y5080
X127Y3810
X127Y2540
X127Y1270
X127Y7620
X127Y8890
X127Y10160
X127Y11430
T2
X5715Y9398
X5715Y7874
X7239Y7112
X6477Y7112
X8001Y7112
X8763Y8636
X8763Y9398
X8763Y7874
X6477Y9398
X7239Y9398
X8001Y9398
X6477Y8636
X6477Y7874
X7239Y8636
X7239Y7874
X8001Y8636
X8001Y7874
X2540Y6096
X4826Y14478
X6350Y3048
X7366Y3048
X8382Y2286
X9398Y2286
X10414Y2667
X11430Y2667
X9652Y14478
X10668Y14478
X4826Y1651
X9017Y15621
X1016Y889
X2465Y17635
X508Y17653
X508Y16891
X508Y16002
X508Y15113
X508Y14224
X1270Y17653
X1270Y16891
X1270Y16002
X1270Y15113
X1270Y14224
X2032Y16891
X2794Y16891
X3556Y16891
X2032Y16002
X2794Y16002
X3556Y16002
X4318Y15875
X3556Y17653
X5461Y17653
X16383Y17653
X15494Y17653
X14478Y17653
X13462Y17653
X12446Y17653
X11430Y17653
X10287Y16891
X9271Y17653
X8255Y17653
X6350Y17653
X8509Y16891
X11430Y16891
X12446Y16891
X13462Y16891
X14478Y16891
X15494Y16891
X16383Y16891
X9652Y15367
X11430Y15367
X12446Y15367
X13462Y15367
X14478Y15367
X15494Y15367
X16383Y15367
X13843Y14478
X15494Y14478
X16383Y14478
X13843Y13716
X15494Y13716
X16383Y13716
X13843Y12700
X15494Y12700
X5842Y508
X4953Y508
X10287Y17653
X10287Y16129
X12446Y16129
X13462Y16129
X14478Y16129
X15494Y16129
X16383Y16129
X4191Y16510
X2032Y15113
X1270Y13462
X14605Y14478
X14605Y13716
X14605Y12700
X6604Y12954
X8382Y14859
X8382Y13335
X11430Y16129
X10287Y15367
X8509Y16256
X12954Y12700
X12954Y13716
X9779Y12192
X10414Y12192
X14351Y11303
X11557Y10033
X5080Y15875
X6604Y15875
X5842Y15875
X6604Y15240
X6604Y14478
X5842Y15240
X5842Y14478
X5080Y15240
X9271Y16891
X9398Y16256
X6604Y13716
X15494Y11684
X15494Y10922
X10541Y6858
X15494Y3683
X15494Y4953
X7366Y17653
X12954Y3556
X15494Y8001
X1270Y10668
X889Y9525
X2794Y3302
X4318Y15240
X8382Y14097
X1270Y12700
X6731Y508
X6731Y1397
X5969Y5334
X5461Y5334
X8890Y4572
X8382Y4572
X10160Y4953
X10668Y4953
X14097Y2286
X2667Y14478
X12827Y14478
X15367Y10033
X3302Y889
X3302Y1397
X6985Y5334
X10922Y7366
X10541Y7874
X10922Y8382
X10541Y8890
X10922Y9398
X12827Y1778
X11557Y1778
X10287Y1778
X9017Y1778
X9779Y11176
X7747Y1778
X5715Y10160
X8763Y10160
X7239Y10160
X6477Y10160
X8001Y10160
X5715Y7112
X8763Y7112
X5715Y8636
X3810Y889
M30