M48
;GenerationSoftware,Autodesk,EAGLE,9.6.2*%
;CreationDate,2022-01-16T19:12:21Z*%
FMAT,2
ICI,OFF
METRIC,TZ,000.000
T2C0.250
T1C0.700
%
G90
M71
T1
X127Y12700
X16677Y5080
X16677Y6350
X16677Y3810
X16677Y2540
X16677Y1270
X16677Y7620
X16677Y8890
X16677Y10160
X16677Y11430
X16677Y12700
X127Y6350
X127Y5080
X127Y3810
X127Y2540
X127Y1270
X127Y7620
X127Y8890
X127Y10160
X127Y11430
T2
X8763Y9398
X8763Y7874
X6477Y9398
X7239Y9398
X8001Y9398
X6477Y8636
X6477Y7874
X7239Y8636
X7239Y7874
X8001Y8636
X8001Y7874
X2540Y6096
X4826Y14478
X6350Y3048
X7366Y3048
X8382Y2286
X9398Y2286
X10414Y2667
X11430Y2667
X9652Y14478
X10668Y14478
X4826Y1651
X9017Y15621
X1016Y889
X2590Y16907
X508Y16002
X508Y15113
X508Y14224
X1270Y16002
X1270Y15113
X1270Y14224
X2032Y16002
X2794Y16002
X3556Y16002
X9652Y15367
X11430Y15367
X12446Y15367
X13462Y15367
X14478Y15367
X15494Y15367
X16383Y15367
X13843Y14478
X15494Y14478
X16383Y14478
X13843Y13716
X15494Y13716
X16383Y13716
X13843Y12700
X15494Y12700
X12446Y16129
X13462Y16129
X14478Y16129
X8001Y7112
X16383Y16129
X2032Y15113
X1270Y13462
X14605Y14478
X14605Y13716
X14605Y12700
X6604Y12954
X8382Y14859
X8382Y13335
X11430Y16129
X10287Y15367
X12954Y12700
X12954Y13716
X14859Y11303
X11684Y9779
X6604Y14478
X5842Y14478
X6604Y13716
X2794Y3302
X8382Y14097
X1270Y12700
X11430Y16891
X12446Y16891
X13462Y16891
X14478Y16891
X15494Y16891
X16383Y16891
X10287Y16891
X10287Y16129
X9144Y16891
X8128Y16891
X6985Y16891
X5842Y16891
X3683Y16891
X508Y16891
X12827Y1778
X5842Y16383
X6985Y16383
X8128Y16383
X5969Y5334
X5461Y5334
X8890Y4572
X8382Y4572
X10160Y4953
X10668Y4953
X14097Y2286
X2667Y14478
X12827Y14478
X3810Y889
X3302Y889
X3302Y1397
X6985Y5334
X11557Y1778
X15494Y16129
X10287Y1778
X9017Y1778
X9779Y11176
X7747Y1778
X5715Y10160
X8763Y10160
X7239Y10160
X6477Y10160
X8001Y10160
X5715Y7112
X8763Y7112
X5715Y8636
X5715Y9398
X5715Y7874
X7239Y7112
X6477Y7112
X8763Y8636
X1270Y16891
M30